<svg width="618" height="309" viewBox="0 0 618 309" fill="none" xmlns="http://www.w3.org/2000/svg">
<path d="M357.139 181.479V177.162H361.047V181.479H357.139ZM346.421 190.709C344.263 190.709 342.328 190.312 340.616 189.518C338.928 188.749 337.601 187.669 336.633 186.28C335.666 184.891 335.182 183.315 335.182 181.554C335.182 181.057 335.219 180.4 335.294 179.581C335.368 178.762 335.467 177.844 335.591 176.827C335.74 175.81 335.889 174.78 336.038 173.738C336.212 172.671 336.373 171.642 336.522 170.649L341.434 171.319C341.161 172.982 340.926 174.507 340.727 175.897C340.554 177.261 340.417 178.427 340.318 179.395C340.219 180.363 340.169 181.07 340.169 181.516C340.169 182.509 340.417 183.365 340.913 184.084C341.41 184.804 342.117 185.362 343.035 185.759C343.977 186.181 345.106 186.392 346.421 186.392C347.786 186.392 348.89 186.193 349.733 185.796C350.577 185.399 351.185 184.853 351.557 184.159C351.954 183.464 352.152 182.682 352.152 181.814V155.168H357.139V181.814C357.139 183.6 356.668 185.163 355.725 186.503C354.807 187.843 353.542 188.873 351.929 189.592C350.316 190.336 348.481 190.709 346.421 190.709ZM361.047 181.479V177.162C361.345 177.162 361.543 177.361 361.643 177.758C361.742 178.13 361.791 178.651 361.791 179.321C361.791 179.966 361.742 180.487 361.643 180.884C361.543 181.281 361.345 181.479 361.047 181.479Z" fill="black"/>
<path d="M389.977 181.479V177.162H393.884V181.479H389.977ZM361.06 181.479V177.162H389.195L384.99 180.809V172.994C384.99 171.58 384.804 170.451 384.432 169.607C384.06 168.739 383.514 168.106 382.794 167.709C382.099 167.312 381.256 167.114 380.263 167.114C379.197 167.114 378.179 167.325 377.212 167.746C376.269 168.168 375.388 168.714 374.569 169.384C373.751 170.054 372.994 170.773 372.299 171.542C371.605 172.312 370.984 173.056 370.439 173.775C369.893 174.47 369.421 175.066 369.024 175.562L367.908 171.952C368.875 170.786 369.744 169.719 370.513 168.751C371.282 167.784 372.014 166.928 372.709 166.183C373.428 165.439 374.173 164.819 374.942 164.323C375.736 163.826 376.592 163.454 377.51 163.206C378.452 162.933 379.544 162.797 380.785 162.797C382.447 162.797 383.861 163.082 385.027 163.653C386.193 164.199 387.136 164.955 387.856 165.923C388.6 166.891 389.133 167.982 389.456 169.198C389.803 170.414 389.977 171.679 389.977 172.994V181.479H361.06ZM365.749 177.162V162.797H370.736V177.162H365.749ZM361.06 181.479C360.762 181.479 360.564 181.281 360.465 180.884C360.365 180.487 360.316 179.966 360.316 179.321C360.316 178.651 360.365 178.13 360.465 177.758C360.564 177.361 360.762 177.162 361.06 177.162V181.479ZM393.884 181.479V177.162C394.182 177.162 394.381 177.361 394.48 177.758C394.579 178.13 394.629 178.651 394.629 179.321C394.629 179.966 394.579 180.487 394.48 180.884C394.381 181.281 394.182 181.479 393.884 181.479ZM375.798 159.41V155.168H380.785V159.41H375.798Z" fill="black"/>
<path d="M393.878 181.479V177.162H411.258L409.732 178.465V166.035L410.998 167.114H406.308C405.217 167.114 404.361 167.25 403.741 167.523C403.12 167.796 402.686 168.305 402.438 169.049C402.19 169.769 402.066 170.798 402.066 172.138C402.066 173.602 402.19 174.693 402.438 175.413C402.686 176.108 403.12 176.579 403.741 176.827C404.361 177.05 405.217 177.162 406.308 177.162V181.033C404.2 181.033 402.463 180.735 401.098 180.139C399.734 179.544 398.716 178.601 398.047 177.311C397.401 175.996 397.079 174.272 397.079 172.138C397.079 170.103 397.401 168.392 398.047 167.002C398.716 165.613 399.734 164.571 401.098 163.876C402.463 163.157 404.2 162.797 406.308 162.797H414.719V181.479H393.878ZM393.878 181.479C393.581 181.479 393.382 181.281 393.283 180.884C393.184 180.487 393.134 179.966 393.134 179.321C393.134 178.651 393.184 178.13 393.283 177.758C393.382 177.361 393.581 177.162 393.878 177.162V181.479ZM404.336 159.373V155.13H409.323V159.373H404.336Z" fill="black"/>
<path d="M418.809 181.479V177.162H437.714L435.332 179.618V155.168H440.319V181.479H418.809ZM423.982 177.162V160.378H428.931V177.162H423.982ZM424.242 157.289C423.771 156.718 423.411 156.172 423.163 155.651C422.915 155.13 422.791 154.572 422.791 153.977C422.791 153.133 423.014 152.376 423.461 151.706C423.907 151.012 424.49 150.478 425.21 150.106C425.929 149.709 426.723 149.511 427.592 149.511C428.063 149.511 428.547 149.573 429.043 149.697C429.539 149.821 429.961 150.007 430.308 150.255L429.043 152.525C428.82 152.401 428.596 152.327 428.373 152.302C428.175 152.252 427.964 152.227 427.74 152.227C427.145 152.227 426.686 152.389 426.363 152.711C426.041 153.009 425.88 153.418 425.88 153.939C425.88 154.237 425.942 154.522 426.066 154.795C426.19 155.068 426.376 155.366 426.624 155.689L424.242 157.289ZM421.972 157.587V154.87H430.978V157.587H421.972Z" fill="black"/>
<path d="M446.401 181.479V155.168H451.35V181.479H446.401Z" fill="black"/>
<path d="M494.158 181.479V177.162H498.103V181.479H494.158ZM475.103 191.379C473.069 191.379 471.233 190.994 469.595 190.225C467.958 189.481 466.668 188.438 465.725 187.099C464.782 185.784 464.311 184.283 464.311 182.596C464.311 182.075 464.348 181.392 464.422 180.549C464.522 179.705 464.633 178.775 464.757 177.758C464.906 176.74 465.055 175.686 465.204 174.594C465.378 173.503 465.539 172.473 465.688 171.505L470.6 172.212C470.352 173.85 470.129 175.351 469.93 176.715C469.732 178.08 469.571 179.246 469.446 180.214C469.347 181.181 469.298 181.926 469.298 182.447C469.298 183.439 469.521 184.27 469.968 184.94C470.439 185.635 471.109 186.156 471.977 186.503C472.846 186.875 473.888 187.061 475.103 187.061H483.812C485.623 187.061 486.975 186.689 487.868 185.945C488.761 185.226 489.208 184.183 489.208 182.819V166.035L490.436 167.114H485.747C484.655 167.114 483.799 167.25 483.179 167.523C482.559 167.796 482.125 168.305 481.877 169.049C481.628 169.769 481.504 170.798 481.504 172.138C481.504 173.602 481.628 174.693 481.877 175.413C482.125 176.108 482.559 176.579 483.179 176.827C483.799 177.05 484.655 177.162 485.747 177.162H489.208V181.479H485.747C483.638 181.479 481.901 181.157 480.537 180.512C479.172 179.842 478.155 178.812 477.485 177.423C476.84 176.033 476.517 174.272 476.517 172.138C476.517 170.103 476.84 168.392 477.485 167.002C478.155 165.613 479.172 164.571 480.537 163.876C481.901 163.157 483.638 162.797 485.747 162.797H494.158V182.819C494.158 184.58 493.699 186.094 492.781 187.359C491.888 188.649 490.659 189.642 489.096 190.336C487.558 191.031 485.797 191.379 483.812 191.379H475.103ZM498.103 181.479V177.162C498.4 177.162 498.599 177.361 498.698 177.758C498.797 178.13 498.847 178.651 498.847 179.321C498.847 179.966 498.797 180.487 498.698 180.884C498.599 181.281 498.4 181.479 498.103 181.479ZM480.983 160.564V156.321H485.97V160.564H480.983ZM486.082 160.564V156.321H491.069V160.564H486.082Z" fill="black"/>
<path d="M517.389 181.479V177.162H521.334V181.479H517.389ZM498.112 181.479V177.162H514.114L512.44 178.539V171.654C512.44 170.166 511.968 169.037 511.026 168.268C510.108 167.498 508.644 167.114 506.634 167.114C506.063 167.114 505.282 167.163 504.289 167.263C503.297 167.337 502.218 167.461 501.052 167.635L500.568 163.69C501.635 163.442 502.714 163.231 503.806 163.057C504.922 162.884 506.014 162.797 507.081 162.797C509.115 162.797 510.901 163.157 512.44 163.876C513.978 164.571 515.181 165.576 516.05 166.891C516.943 168.205 517.389 169.793 517.389 171.654V181.479H498.112ZM498.112 181.479C497.814 181.479 497.615 181.281 497.516 180.884C497.417 180.487 497.367 179.966 497.367 179.321C497.367 178.651 497.417 178.13 497.516 177.758C497.615 177.361 497.814 177.162 498.112 177.162V181.479ZM521.334 181.479V177.162C521.607 177.162 521.793 177.361 521.893 177.758C522.017 178.13 522.079 178.651 522.079 179.321C522.079 179.966 522.017 180.487 521.893 180.884C521.793 181.281 521.607 181.479 521.334 181.479Z" fill="black"/>
<path d="M532.202 181.479V177.162H536.854V181.479H532.202ZM536.854 181.479V177.162C537.152 177.162 537.35 177.361 537.45 177.758C537.549 178.13 537.598 178.651 537.598 179.321C537.598 179.966 537.549 180.487 537.45 180.884C537.35 181.281 537.152 181.479 536.854 181.479ZM521.334 181.479V177.162H530.155L527.253 179.581V162.797H532.202V181.479H521.334ZM521.334 181.479C521.037 181.479 520.839 181.281 520.74 180.884C520.64 180.487 520.591 179.966 520.591 179.321C520.591 178.651 520.64 178.13 520.74 177.758C520.839 177.361 521.037 177.162 521.334 177.162V181.479ZM522.824 160.564V156.321H527.811V160.564H522.824ZM527.922 160.564V156.321H532.909V160.564H527.922Z" fill="black"/>
<path d="M568.078 181.479V177.162H572.023V181.479H568.078ZM558.737 181.479C557.72 181.479 556.702 181.293 555.685 180.921C554.693 180.524 553.775 179.941 552.931 179.172L555.983 176.008C556.479 176.405 556.938 176.703 557.36 176.902C557.806 177.075 558.265 177.162 558.737 177.162H565.696L563.128 179.507V171.245C563.128 170.848 563.079 170.252 562.979 169.458C562.905 168.64 562.781 167.722 562.607 166.704C562.458 165.662 562.272 164.608 562.049 163.541L566.961 162.797C567.135 163.69 567.296 164.695 567.445 165.811C567.619 166.903 567.768 167.945 567.892 168.937C568.016 169.905 568.078 170.674 568.078 171.245V181.479H558.737ZM536.854 181.479V177.162H542.287L541.171 178.316V166.593H546.158V181.479H536.854ZM546.158 181.479V177.162H549.172C549.966 177.162 550.574 177.05 550.996 176.827C551.418 176.579 551.703 176.095 551.852 175.376C552.026 174.631 552.112 173.527 552.112 172.064V164.732H557.099V172.064C557.099 174.272 556.814 176.07 556.243 177.46C555.697 178.849 554.842 179.866 553.675 180.512C552.509 181.157 551.008 181.479 549.172 181.479H546.158ZM536.854 181.479C536.556 181.479 536.358 181.281 536.258 180.884C536.159 180.487 536.11 179.966 536.11 179.321C536.11 178.651 536.159 178.13 536.258 177.758C536.358 177.361 536.556 177.162 536.854 177.162V181.479ZM572.023 181.479V177.162C572.321 177.162 572.519 177.361 572.618 177.758C572.718 178.13 572.767 178.651 572.767 179.321C572.767 179.966 572.718 180.487 572.618 180.884C572.519 181.281 572.321 181.479 572.023 181.479Z" fill="black"/>
<path d="M572.034 181.479V177.162H578.845L575.942 179.581V162.797H580.929V181.479H572.034ZM572.034 181.479C571.737 181.479 571.538 181.281 571.439 180.884C571.34 180.487 571.29 179.966 571.29 179.321C571.29 178.651 571.34 178.13 571.439 177.758C571.538 177.361 571.737 177.162 572.034 177.162V181.479ZM575.942 159.373V155.13H580.929V159.373H575.942Z" fill="black"/>
<path d="M301.035 225.153V204.5H306.478L313.1 219.014H313.644V204.5H317.817V225.153H312.435L305.752 210.396H305.208V225.153H301.035Z" fill="black"/>
<path d="M329.751 225.485C327.553 225.485 325.81 225.102 324.52 224.336C323.25 223.55 322.332 222.371 321.768 220.798C321.224 219.226 320.952 217.26 320.952 214.902C320.952 212.523 321.224 210.538 321.768 208.945C322.332 207.353 323.25 206.153 324.52 205.347C325.81 204.54 327.553 204.137 329.751 204.137C331.948 204.137 333.682 204.54 334.952 205.347C336.242 206.153 337.159 207.353 337.703 208.945C338.268 210.538 338.55 212.523 338.55 214.902C338.55 217.301 338.268 219.286 337.703 220.859C337.159 222.431 336.242 223.6 334.952 224.366C333.682 225.112 331.948 225.485 329.751 225.485ZM329.751 221.978C331.021 221.978 331.978 221.726 332.623 221.222C333.289 220.697 333.732 219.911 333.954 218.863C334.176 217.795 334.286 216.474 334.286 214.902C334.286 213.33 334.165 212.009 333.924 210.941C333.702 209.852 333.268 209.036 332.623 208.491C331.978 207.927 331.021 207.645 329.751 207.645C328.501 207.645 327.543 207.927 326.878 208.491C326.233 209.036 325.79 209.852 325.548 210.941C325.306 212.009 325.185 213.33 325.185 214.902C325.185 216.454 325.296 217.754 325.517 218.803C325.759 219.851 326.203 220.647 326.848 221.191C327.513 221.715 328.481 221.978 329.751 221.978Z" fill="black"/>
<path d="M349.468 225.485C347.774 225.485 346.333 225.263 345.144 224.82C343.975 224.376 343.088 223.641 342.483 222.613C341.878 221.564 341.576 220.173 341.576 218.44V204.5H345.748V218.591C345.748 219.78 346.061 220.637 346.686 221.161C347.331 221.685 348.258 221.947 349.468 221.947C350.738 221.947 351.695 221.685 352.34 221.161C352.985 220.637 353.308 219.78 353.308 218.591V204.5H357.481V218.379C357.481 220.113 357.168 221.504 356.543 222.552C355.939 223.6 355.042 224.356 353.852 224.82C352.683 225.263 351.222 225.485 349.468 225.485Z" fill="black"/>
<path d="M367.809 225.485C367.043 225.485 366.207 225.435 365.3 225.334C364.392 225.253 363.505 225.153 362.639 225.032C361.792 224.89 361.066 224.77 360.462 224.669L360.734 221.373C361.359 221.453 362.084 221.544 362.911 221.645C363.737 221.726 364.554 221.796 365.36 221.857C366.187 221.917 366.902 221.947 367.507 221.947C368.656 221.947 369.493 221.726 370.017 221.282C370.541 220.818 370.803 220.103 370.803 219.135C370.803 218.611 370.692 218.198 370.47 217.895C370.269 217.573 369.896 217.321 369.351 217.139C368.807 216.938 368.051 216.746 367.084 216.565C365.471 216.263 364.161 215.89 363.153 215.446C362.165 215.003 361.439 214.378 360.976 213.571C360.532 212.765 360.31 211.687 360.31 210.336C360.31 208.764 360.603 207.534 361.187 206.647C361.772 205.74 362.608 205.095 363.697 204.712C364.786 204.329 366.066 204.137 367.537 204.137C368.202 204.137 368.958 204.178 369.805 204.258C370.672 204.319 371.518 204.399 372.345 204.5C373.192 204.601 373.907 204.712 374.492 204.833L374.31 208.159C373.706 208.078 373 208.008 372.194 207.947C371.408 207.867 370.621 207.796 369.835 207.736C369.069 207.675 368.414 207.645 367.87 207.645C366.721 207.645 365.874 207.826 365.33 208.189C364.786 208.552 364.513 209.137 364.513 209.943C364.513 210.548 364.634 211.011 364.876 211.334C365.118 211.656 365.521 211.918 366.086 212.12C366.67 212.322 367.467 212.533 368.475 212.755C369.664 213.017 370.672 213.299 371.498 213.602C372.345 213.904 373.02 214.267 373.524 214.69C374.048 215.114 374.431 215.658 374.673 216.323C374.915 216.988 375.036 217.825 375.036 218.833C375.036 220.446 374.744 221.746 374.159 222.734C373.595 223.701 372.768 224.407 371.68 224.85C370.611 225.273 369.321 225.485 367.809 225.485Z" fill="black"/>
<path d="M384.514 225.153V204.5H391.227L395.399 218.289L399.482 204.5H406.285V225.153H402.112V209.852H401.689L397.365 224.608H393.434L389.11 209.852H388.687V225.153H384.514Z" fill="black"/>
<path d="M410.086 225.153V204.5H423.814V207.977H414.259V212.997H422V216.414H414.259V221.675H423.814V225.153H410.086ZM415.559 202.414L413.17 201.355L417.736 197.938L420.972 199.239L415.559 202.414Z" fill="black"/>
<path d="M426.741 225.153V204.5H434.814C436.467 204.5 437.848 204.712 438.957 205.135C440.085 205.558 440.922 206.264 441.466 207.252C442.031 208.239 442.313 209.58 442.313 211.273C442.313 212.765 442.041 214.025 441.497 215.053C440.972 216.061 440.166 216.807 439.078 217.291L442.313 225.153H437.929L435.207 218.228H430.913V225.153H426.741ZM430.913 214.811H434.905C435.671 214.811 436.286 214.67 436.749 214.388C437.213 214.085 437.545 213.672 437.747 213.148C437.949 212.604 438.049 211.989 438.049 211.304C438.049 210.175 437.787 209.328 437.263 208.764C436.739 208.199 435.923 207.917 434.814 207.917H430.913V214.811Z" fill="black"/>
<path d="M445.373 225.153V204.5H449.546V225.153H445.373Z" fill="black"/>
<path d="M457.367 225.153V208.038H451.803V204.5H466.922V208.038H461.54V225.153H457.367Z" fill="black"/>
<path d="M477.337 225.485C475.14 225.485 473.396 225.102 472.106 224.336C470.836 223.55 469.919 222.371 469.355 220.798C468.81 219.226 468.538 217.26 468.538 214.902C468.538 212.523 468.81 210.538 469.355 208.945C469.919 207.353 470.836 206.153 472.106 205.347C473.396 204.54 475.14 204.137 477.337 204.137C479.535 204.137 481.268 204.54 482.538 205.347C483.828 206.153 484.746 207.353 485.29 208.945C485.854 210.538 486.137 212.523 486.137 214.902C486.137 217.301 485.854 219.286 485.29 220.859C484.746 222.431 483.828 223.6 482.538 224.366C481.268 225.112 479.535 225.485 477.337 225.485ZM477.337 221.978C478.607 221.978 479.565 221.726 480.21 221.222C480.875 220.697 481.319 219.911 481.54 218.863C481.762 217.795 481.873 216.474 481.873 214.902C481.873 213.33 481.752 212.009 481.51 210.941C481.288 209.852 480.855 209.036 480.21 208.491C479.565 207.927 478.607 207.645 477.337 207.645C476.088 207.645 475.13 207.927 474.465 208.491C473.82 209.036 473.376 209.852 473.134 210.941C472.892 212.009 472.771 213.33 472.771 214.902C472.771 216.454 472.882 217.754 473.104 218.803C473.346 219.851 473.789 220.647 474.435 221.191C475.1 221.715 476.067 221.978 477.337 221.978Z" fill="black"/>
<path d="M489.283 225.153V204.5H494.726L501.348 219.014H501.892V204.5H506.065V225.153H500.683L494 210.396H493.456V225.153H489.283Z" fill="black"/>
<path d="M516.548 225.485C515.782 225.485 514.945 225.435 514.038 225.334C513.131 225.253 512.244 225.153 511.377 225.032C510.53 224.89 509.805 224.77 509.2 224.669L509.472 221.373C510.097 221.453 510.823 221.544 511.649 221.645C512.476 221.726 513.292 221.796 514.098 221.857C514.925 221.917 515.64 221.947 516.245 221.947C517.394 221.947 518.231 221.726 518.755 221.282C519.279 220.818 519.541 220.103 519.541 219.135C519.541 218.611 519.43 218.198 519.209 217.895C519.007 217.573 518.634 217.321 518.09 217.139C517.545 216.938 516.789 216.746 515.822 216.565C514.209 216.263 512.899 215.89 511.891 215.446C510.903 215.003 510.177 214.378 509.714 213.571C509.27 212.765 509.049 211.687 509.049 210.336C509.049 208.764 509.341 207.534 509.926 206.647C510.51 205.74 511.347 205.095 512.435 204.712C513.524 204.329 514.804 204.137 516.275 204.137C516.941 204.137 517.697 204.178 518.543 204.258C519.41 204.319 520.257 204.399 521.083 204.5C521.93 204.601 522.646 204.712 523.23 204.833L523.049 208.159C522.444 208.078 521.738 208.008 520.932 207.947C520.146 207.867 519.36 207.796 518.574 207.736C517.808 207.675 517.152 207.645 516.608 207.645C515.459 207.645 514.612 207.826 514.068 208.189C513.524 208.552 513.252 209.137 513.252 209.943C513.252 210.548 513.373 211.011 513.615 211.334C513.856 211.656 514.26 211.918 514.824 212.12C515.409 212.322 516.205 212.533 517.213 212.755C518.402 213.017 519.41 213.299 520.237 213.602C521.083 213.904 521.759 214.267 522.263 214.69C522.787 215.114 523.17 215.658 523.412 216.323C523.653 216.988 523.774 217.825 523.774 218.833C523.774 220.446 523.482 221.746 522.898 222.734C522.333 223.701 521.507 224.407 520.418 224.85C519.35 225.273 518.059 225.485 516.548 225.485Z" fill="black"/>
<path d="M533.252 225.153V204.5H539.965L544.138 218.289L548.22 204.5H555.023V225.153H550.851V209.852H550.427L546.103 224.608H542.172L537.848 209.852H537.425V225.153H533.252Z" fill="black"/>
<path d="M558.824 225.153V204.5H562.997V225.153H558.824Z" fill="black"/>
<path d="M566.827 225.153V204.5H580.555V207.977H571V212.997H578.74V216.414H571V221.675H580.555V225.153H566.827Z" fill="black"/>
<path d="M591.252 225.485C589.559 225.485 588.118 225.263 586.928 224.82C585.759 224.376 584.872 223.641 584.267 222.613C583.663 221.564 583.36 220.173 583.36 218.44V204.5H587.533V218.591C587.533 219.78 587.845 220.637 588.47 221.161C589.115 221.685 590.043 221.947 591.252 221.947C592.522 221.947 593.48 221.685 594.125 221.161C594.77 220.637 595.092 219.78 595.092 218.591V204.5H599.265V218.379C599.265 220.113 598.953 221.504 598.328 222.552C597.723 223.6 596.826 224.356 595.637 224.82C594.468 225.263 593.006 225.485 591.252 225.485Z" fill="black"/>
<path d="M601.248 225.153L606.872 215.114L601.248 204.5H605.663L609.594 212.09L613.736 204.5H618L612.346 214.72L617.879 225.153H613.434L609.564 217.774L605.572 225.153H601.248Z" fill="black"/>
<path d="M128.168 148.637C106.494 139.817 72.6327 171.137 72.6327 171.137C73.2578 176.452 74.4875 181.582 76.2511 186.456C81.1321 195.189 105.633 188.598 129.061 182.297C145.947 177.754 162.275 173.362 170.295 174.967C189.444 178.796 205.936 186.456 205.936 186.456C208.585 179.134 210.029 171.235 210.029 162.999C199.976 171.137 153.317 158.871 128.168 148.637Z" fill="url(#paint0_linear_171_1586)"/>
<path fill-rule="evenodd" clip-rule="evenodd" d="M141.093 94.0625C179.166 94.0625 210.029 124.926 210.029 162.999C199.976 171.137 153.317 158.871 128.168 148.637C106.494 139.817 72.6327 171.137 72.6327 171.137C72.3188 168.468 72.1573 165.752 72.1573 162.999C72.1573 124.926 103.021 94.0625 141.093 94.0625Z" fill="url(#paint1_linear_171_1586)"/>
<path d="M76.2511 186.456C85.8484 212.98 111.257 231.935 141.093 231.935C170.929 231.935 196.338 212.98 205.936 186.456C205.936 186.456 189.444 178.796 170.295 174.967C162.275 173.362 145.947 177.754 129.061 182.297C105.633 188.598 81.1321 195.189 76.2511 186.456Z" fill="url(#paint2_linear_171_1586)"/>
<path d="M182.648 118.373C183.136 118.645 183.728 118.715 184.189 119.071C183.31 118.966 182.431 118.848 181.553 118.771C176.971 118.366 173.157 119.956 169.956 123.192C169.614 123.541 169.391 123.534 169.133 123.136C168.931 122.822 168.68 122.536 168.457 122.237C165.207 118.067 160.891 116.309 155.64 116.588C156.428 116.226 158.081 115.968 159.58 116.002C163.352 116.072 166.609 117.411 169.356 119.998C169.698 120.319 169.893 120.319 170.277 120.075C173.966 117.725 177.934 117.104 182.173 118.269C182.334 118.297 182.487 118.332 182.648 118.373ZM184.217 119.071H184.189L184.21 119.078L184.217 119.071ZM163.534 128.303C160.333 128.08 157.599 129.098 155.298 131.309C155.061 131.546 154.922 131.581 154.636 131.393C152.3 129.942 149.789 129.461 147.07 129.942C145.989 130.13 144.845 130.549 144.329 130.925C148.046 129.97 151.372 130.605 154.301 133.115C154.503 133.303 154.719 133.471 154.915 133.666C155.159 133.91 155.319 133.875 155.514 133.575C157.328 130.821 159.831 129.119 163.164 128.75C163.806 128.68 164.447 128.645 165.089 128.589C164.698 128.401 164.273 128.443 163.889 128.317C163.757 128.317 163.652 128.317 163.534 128.303ZM178.645 137.738C176.923 137.431 175.367 137.801 173.98 138.875C173.826 138.979 173.764 138.993 173.617 138.875C172.481 137.954 171.044 137.508 169.594 137.62C168.994 137.668 168.352 137.829 168.052 137.996C170.124 137.696 171.902 138.254 173.338 139.795C173.436 139.9 173.54 140.012 173.638 140.123C173.757 140.277 173.84 140.263 173.966 140.116C175.123 138.721 176.588 137.954 178.422 137.954C178.77 137.954 179.126 137.975 179.475 137.975C179.286 137.85 179.049 137.85 178.833 137.752C178.763 137.759 178.708 137.752 178.645 137.738Z" fill="black"/>
<mask id="mask0_171_1586" style="mask-type:luminance" maskUnits="userSpaceOnUse" x="106" y="128" width="32" height="24">
<path d="M106.948 128.853H137.742V151.614H106.948V128.853Z" fill="white"/>
</mask>
<g mask="url(#mask0_171_1586)">
<path d="M111.355 137.925L111.159 137.451L111.215 135.91C111.222 135.91 111.557 137.081 111.355 137.925ZM137.923 130.959C137.888 130.456 137.393 130.045 137.393 130.045C136.723 129.557 135.587 129.696 135.587 129.696C134.764 129.801 134.06 129.355 134.06 129.355C133.3 128.867 132.512 129.417 132.512 129.417C131.71 129.145 131.549 129.71 131.549 129.71L131.626 129.899C131.48 129.947 131.431 130.275 131.431 130.275C131.445 130.533 131.263 130.938 131.263 130.938C130.957 131.454 130.503 133.26 130.503 133.26C130.217 134.529 129.039 134.557 129.039 134.557C127.756 134.529 127.072 132.939 127.072 132.939C126.291 131.293 123.293 130.533 123.293 130.533C122.54 130.408 121.891 129.968 121.891 129.968C120.664 128.971 119.22 129.145 119.22 129.145C117.624 129.208 116.278 131.154 116.278 131.154C115.908 131.293 113.607 131.935 113.607 131.935C112.979 132.032 112.596 132.772 112.596 132.772C112.477 133.183 112.108 133.434 112.108 133.434C109.458 134.857 110.525 137.255 110.525 137.255C111.055 138.462 110.741 139.675 110.741 139.675C110.601 139.982 110.525 140.47 110.525 140.47C110.155 141.384 108.712 142.674 108.712 142.674C107.993 143.183 108.168 144.138 108.168 144.138C108.286 144.835 108.231 146.704 108.231 146.704C108.091 148.406 107.366 148.971 107.366 148.971C107.254 149.061 107.198 149.145 107.171 149.215C107.164 149.257 107.164 149.305 107.157 149.361C107.157 149.382 107.15 149.41 107.15 149.438C107.108 150.254 107.603 150.839 107.603 150.839C108.147 151.446 108.244 150.254 108.244 150.254C108.286 149.556 108.816 149.222 108.816 149.222C109.088 149.005 108.886 148.329 108.886 148.329C108.949 147.102 109.179 145.986 109.179 145.986C109.493 144.389 110.392 143.531 110.392 143.531C110.664 143.301 111.954 141.99 111.954 141.99C111.961 142.904 111.592 144.34 111.592 144.34C111.327 145.059 111.599 145.498 111.599 145.498C111.724 145.721 111.871 146.251 112.219 146.9C112.575 147.555 113.182 149.905 113.182 149.905C113.14 150.344 113.44 150.895 113.44 150.895C113.356 151.425 114.374 151.432 114.374 151.432C115.525 151.551 115.469 151.104 115.469 151.104C115.476 150.923 114.855 150.86 114.855 150.86C114.493 150.7 114.318 150.323 114.318 150.323C114.318 150.051 113.956 149.591 113.956 149.591C113.614 148.929 113.335 147.206 113.335 147.206C113.307 147.025 113.265 146.551 113.265 146.551C113.272 146.314 113.237 144.612 113.237 144.612C113.216 144.48 113.356 143.831 113.356 143.831C113.454 143.483 113.53 142.29 113.53 142.29C113.516 142.186 113.649 141.942 113.649 141.942C113.956 141.788 114.632 140.519 114.632 140.519C115.071 140.087 114.995 139.808 114.995 139.808L114.981 139.166C116.062 138.141 117.386 139.145 117.386 139.145C118.098 139.703 120.504 139.836 120.504 139.836C120.971 139.836 121.417 140.142 121.417 140.142C121.215 140.345 120.678 141.788 120.678 141.788C120.371 142.876 119.513 144.563 119.513 144.563C119.193 144.898 119.248 145.491 119.248 145.491C119.213 146.725 118.063 149.047 118.063 149.047C117.84 149.277 117.854 149.745 117.854 149.745C117.847 150.038 117.526 150.581 117.526 150.581C116.773 151.362 118.516 151.251 118.516 151.251C119.688 151.279 119.437 150.916 119.437 150.916C119.325 150.644 118.893 150.491 118.893 150.491L118.879 150.268C118.997 150.031 119.172 149.089 119.172 149.089C119.492 147.206 120.406 146.139 120.406 146.139C121.082 145.805 120.922 145.135 120.922 145.135C121.187 143.873 122.609 142.06 122.609 142.06C122.93 141.677 123.509 140.637 123.509 140.637C123.662 140.108 124.541 139.801 124.541 139.801C124.82 139.982 125.05 140.735 125.05 140.735C125.259 141.621 125.992 144.389 125.992 144.389C126.138 146.286 126.905 146.9 126.905 146.9C127.163 147.534 128.042 150.742 128.042 150.742C127.581 151.495 129.102 151.251 129.102 151.251C130.754 151.495 130.482 151.056 130.482 151.056C130.155 150.393 129.13 150.031 129.13 150.031C128.167 148.706 127.881 146.767 127.881 146.767C128.181 145.003 127.581 144.961 127.581 144.961C127.093 143.845 127.024 139.766 127.024 139.766C127.017 139.487 127.177 139.236 127.177 139.236C127.303 139.194 127.846 138.532 127.846 138.532C128.056 138.608 128.823 138.504 128.823 138.504C128.739 138.999 130.113 138.629 130.113 138.629C134.004 136.914 134.255 133.302 134.255 133.302C134.499 133.288 135.329 132.597 135.329 132.597C135.531 132.318 136.005 131.886 136.005 131.886C136.319 131.893 136.654 131.649 136.654 131.649C137.888 131.963 137.686 131.405 137.686 131.405C138.055 131.398 137.923 130.959 137.923 130.959Z" fill="url(#paint3_linear_171_1586)"/>
</g>
<path d="M66.6094 165.562C66.6094 122.676 101.378 87.9075 144.271 87.9075C163.88 87.9075 181.787 95.1807 195.455 107.168C180.588 84.121 154.682 68.8564 125.22 68.8564C79.0916 68.8564 41.7007 106.254 41.7007 152.376C41.7007 192.451 69.9287 225.93 107.585 234.026C83.1919 220.93 66.6094 195.185 66.6094 165.562Z" fill="black"/>
<path fill-rule="evenodd" clip-rule="evenodd" d="M176.493 20.5361C176.037 18.4136 176.152 16.6832 177.789 16.7204C179.871 17.6411 182.309 18.5978 185.021 19.6619C206 27.8947 243.369 42.5591 258.969 96.7576C272.818 144.875 272.06 197.782 237.88 237.309C201.865 278.949 144.21 286.659 94.6204 262.748C55.2782 243.776 41.1111 209.697 36.1851 169.363C46.6382 194.124 60.3031 220.982 86.393 233.628C135.771 257.569 185.451 243.494 218.122 202.151C228.389 189.155 227.875 170.658 217.087 158.097C209.646 149.416 201.12 139.398 195.976 125.468C186.99 101.106 200.777 91.708 196.094 82.2692C201.684 81.0575 204.252 89.8276 206.97 99.1148C209.953 109.305 213.119 120.119 220.661 119.05C242.612 115.942 225.282 46.2903 184.26 29.6435C180.335 28.0532 177.382 24.6712 176.493 20.5361Z" fill="black"/>
<path d="M184.506 55.1119C205.835 63.8012 220.743 86.8092 227.051 107.325C227.433 100.151 225.631 90.4718 221.897 80.7326C216.899 67.7121 209.489 56.4656 200.777 48.2916C191.737 44.1288 182.122 46.1262 177.97 42.1676C176.295 42.1286 176.216 43.9423 176.708 46.1262C177.639 50.2321 180.612 53.5256 184.506 55.1119Z" fill="black"/>
<defs>
<linearGradient id="paint0_linear_171_1586" x1="141" y1="155.5" x2="141.093" y2="231.935" gradientUnits="userSpaceOnUse">
<stop stop-color="#393939"/>
<stop offset="1" stop-color="#8E8E8E"/>
</linearGradient>
<linearGradient id="paint1_linear_171_1586" x1="156.5" y1="94" x2="141.093" y2="231.935" gradientUnits="userSpaceOnUse">
<stop stop-color="#E2E2E2"/>
<stop offset="1" stop-color="white"/>
</linearGradient>
<linearGradient id="paint2_linear_171_1586" x1="126.732" y1="185.499" x2="141.093" y2="231.935" gradientUnits="userSpaceOnUse">
<stop stop-color="#C3C3C3"/>
<stop offset="1" stop-color="#919191"/>
</linearGradient>
<linearGradient id="paint3_linear_171_1586" x1="122.547" y1="129.134" x2="122.547" y2="151.452" gradientUnits="userSpaceOnUse">
<stop stop-color="#3A3A3A"/>
<stop offset="1" stop-color="#404040"/>
</linearGradient>
</defs>
</svg>
