<svg width="348" height="389" viewBox="0 0 348 389" fill="none" xmlns="http://www.w3.org/2000/svg">
<path d="M89.4812 355.207V351.938H92.44V355.207H89.4812ZM81.3656 362.196C79.7312 362.196 78.2659 361.896 76.9697 361.294C75.6922 360.712 74.6872 359.895 73.9545 358.843C73.2219 357.791 72.8555 356.598 72.8555 355.264C72.8555 354.888 72.8837 354.39 72.9401 353.77C72.9964 353.15 73.0716 352.455 73.1655 351.685C73.2782 350.914 73.3909 350.135 73.5036 349.346C73.6352 348.538 73.7573 347.758 73.87 347.007L77.5896 347.514C77.383 348.773 77.2045 349.928 77.0542 350.98C76.9227 352.014 76.8194 352.897 76.7442 353.629C76.6691 354.362 76.6315 354.897 76.6315 355.236C76.6315 355.987 76.8194 356.635 77.1951 357.18C77.5708 357.725 78.1062 358.148 78.8013 358.448C79.5152 358.768 80.37 358.927 81.3656 358.927C82.3989 358.927 83.2348 358.777 83.8736 358.476C84.5123 358.176 84.9725 357.762 85.2543 357.236C85.5549 356.71 85.7052 356.119 85.7052 355.461V335.283H89.4812V355.461C89.4812 356.814 89.1243 357.997 88.4104 359.012C87.7153 360.026 86.7572 360.806 85.5361 361.351C84.315 361.914 82.9249 362.196 81.3656 362.196ZM92.44 355.207V351.938C92.6654 351.938 92.8157 352.089 92.8909 352.389C92.966 352.671 93.0036 353.066 93.0036 353.573C93.0036 354.061 92.966 354.456 92.8909 354.756C92.8157 355.057 92.6654 355.207 92.44 355.207Z" fill="black"/>
<path d="M114.345 355.207V351.938H117.304V355.207H114.345ZM92.4499 355.207V351.938H113.753L110.569 354.7V348.782C110.569 347.711 110.428 346.856 110.146 346.218C109.865 345.56 109.451 345.081 108.907 344.78C108.381 344.48 107.742 344.33 106.99 344.33C106.183 344.33 105.412 344.489 104.68 344.809C103.966 345.128 103.299 345.541 102.679 346.049C102.059 346.556 101.486 347.101 100.96 347.683C100.434 348.265 99.9643 348.829 99.5511 349.374C99.1378 349.9 98.7808 350.351 98.4802 350.727L97.6349 347.993C98.3675 347.11 99.025 346.302 99.6074 345.57C100.19 344.837 100.744 344.189 101.27 343.625C101.815 343.061 102.378 342.592 102.961 342.216C103.562 341.84 104.21 341.558 104.905 341.371C105.619 341.164 106.446 341.061 107.385 341.061C108.644 341.061 109.714 341.277 110.597 341.709C111.48 342.122 112.194 342.695 112.739 343.428C113.302 344.16 113.706 344.987 113.951 345.908C114.214 346.828 114.345 347.786 114.345 348.782V355.207H92.4499ZM96.0005 351.938V341.061H99.7765V351.938H96.0005ZM92.4499 355.207C92.2245 355.207 92.0742 355.057 91.9991 354.756C91.9239 354.456 91.8863 354.061 91.8863 353.573C91.8863 353.066 91.9239 352.671 91.9991 352.389C92.0742 352.089 92.2245 351.938 92.4499 351.938V355.207ZM117.304 355.207V351.938C117.529 351.938 117.68 352.089 117.755 352.389C117.83 352.671 117.867 353.066 117.867 353.573C117.867 354.061 117.83 354.456 117.755 354.756C117.68 355.057 117.529 355.207 117.304 355.207ZM103.609 338.496V335.283H107.385V338.496H103.609Z" fill="black"/>
<path d="M117.299 355.207V351.938H130.459L129.304 352.925V343.512L130.262 344.33H126.711C125.884 344.33 125.236 344.433 124.767 344.64C124.297 344.846 123.968 345.231 123.78 345.795C123.593 346.34 123.499 347.119 123.499 348.134C123.499 349.242 123.593 350.069 123.78 350.614C123.968 351.14 124.297 351.497 124.767 351.685C125.236 351.854 125.884 351.938 126.711 351.938V354.869C125.114 354.869 123.799 354.644 122.766 354.193C121.733 353.742 120.963 353.028 120.455 352.051C119.967 351.055 119.723 349.75 119.723 348.134C119.723 346.593 119.967 345.297 120.455 344.245C120.963 343.193 121.733 342.404 122.766 341.878C123.799 341.333 125.114 341.061 126.711 341.061H133.08V355.207H117.299ZM117.299 355.207C117.074 355.207 116.924 355.057 116.848 354.756C116.773 354.456 116.736 354.061 116.736 353.573C116.736 353.066 116.773 352.671 116.848 352.389C116.924 352.089 117.074 351.938 117.299 351.938V355.207ZM125.218 338.468V335.255H128.994V338.468H125.218Z" fill="black"/>
<path d="M136.176 355.207V351.938H150.491L148.687 353.798V335.283H152.463V355.207H136.176ZM140.093 351.938V339.229H143.841V351.938H140.093ZM140.29 336.89C139.933 336.458 139.661 336.044 139.473 335.65C139.285 335.255 139.191 334.833 139.191 334.382C139.191 333.743 139.36 333.17 139.698 332.663C140.036 332.137 140.478 331.733 141.023 331.451C141.568 331.15 142.169 331 142.826 331C143.183 331 143.549 331.047 143.925 331.141C144.301 331.235 144.62 331.376 144.883 331.564L143.925 333.283C143.756 333.189 143.587 333.132 143.418 333.114C143.268 333.076 143.108 333.057 142.939 333.057C142.488 333.057 142.141 333.179 141.896 333.424C141.652 333.649 141.53 333.959 141.53 334.354C141.53 334.579 141.577 334.795 141.671 335.002C141.765 335.208 141.906 335.434 142.094 335.678L140.29 336.89ZM138.571 337.115V335.058H145.391V337.115H138.571Z" fill="black"/>
<path d="M157.068 355.207V335.283H160.816V355.207H157.068Z" fill="black"/>
<path d="M193.229 355.207V351.938H196.216V355.207H193.229ZM178.801 362.703C177.261 362.703 175.871 362.412 174.631 361.83C173.391 361.266 172.414 360.477 171.7 359.463C170.986 358.467 170.629 357.33 170.629 356.053C170.629 355.658 170.658 355.142 170.714 354.503C170.789 353.864 170.874 353.16 170.967 352.389C171.08 351.619 171.193 350.821 171.306 349.994C171.437 349.167 171.559 348.388 171.672 347.655L175.392 348.19C175.204 349.43 175.035 350.567 174.884 351.6C174.734 352.634 174.612 353.517 174.518 354.249C174.443 354.982 174.405 355.546 174.405 355.94C174.405 356.692 174.574 357.321 174.913 357.828C175.269 358.354 175.777 358.749 176.434 359.012C177.092 359.294 177.881 359.434 178.801 359.434H185.395C186.767 359.434 187.79 359.153 188.467 358.589C189.143 358.044 189.481 357.255 189.481 356.222V343.512L190.411 344.33H186.86C186.034 344.33 185.386 344.433 184.916 344.64C184.446 344.846 184.118 345.231 183.93 345.795C183.742 346.34 183.648 347.119 183.648 348.134C183.648 349.242 183.742 350.069 183.93 350.614C184.118 351.14 184.446 351.497 184.916 351.685C185.386 351.854 186.034 351.938 186.86 351.938H189.481V355.207H186.86C185.264 355.207 183.949 354.963 182.915 354.475C181.882 353.967 181.112 353.188 180.605 352.136C180.116 351.084 179.872 349.75 179.872 348.134C179.872 346.593 180.116 345.297 180.605 344.245C181.112 343.193 181.882 342.404 182.915 341.878C183.949 341.333 185.264 341.061 186.86 341.061H193.229V356.222C193.229 357.556 192.881 358.702 192.186 359.66C191.51 360.637 190.58 361.388 189.397 361.914C188.232 362.44 186.898 362.703 185.395 362.703H178.801ZM196.216 355.207V351.938C196.441 351.938 196.592 352.089 196.667 352.389C196.742 352.671 196.78 353.066 196.78 353.573C196.78 354.061 196.742 354.456 196.667 354.756C196.592 355.057 196.441 355.207 196.216 355.207ZM183.254 339.37V336.157H187.03V339.37H183.254ZM187.114 339.37V336.157H190.89V339.37H187.114Z" fill="black"/>
<path d="M210.82 355.207V351.938H213.807V355.207H210.82ZM196.223 355.207V351.938H208.34L207.072 352.981V347.768C207.072 346.64 206.715 345.786 206.001 345.203C205.306 344.621 204.197 344.33 202.676 344.33C202.244 344.33 201.652 344.367 200.9 344.442C200.149 344.499 199.332 344.593 198.449 344.724L198.083 341.737C198.89 341.549 199.708 341.389 200.534 341.258C201.38 341.126 202.206 341.061 203.014 341.061C204.554 341.061 205.907 341.333 207.072 341.878C208.236 342.404 209.148 343.165 209.805 344.16C210.481 345.156 210.82 346.359 210.82 347.768V355.207H196.223ZM196.223 355.207C195.997 355.207 195.847 355.057 195.772 354.756C195.697 354.456 195.659 354.061 195.659 353.573C195.659 353.066 195.697 352.671 195.772 352.389C195.847 352.089 195.997 351.938 196.223 351.938V355.207ZM213.807 355.207V351.938C214.013 351.938 214.154 352.089 214.229 352.389C214.323 352.671 214.37 353.066 214.37 353.573C214.37 354.061 214.323 354.456 214.229 354.756C214.154 355.057 214.013 355.207 213.807 355.207Z" fill="black"/>
<path d="M222.035 355.207V351.938H225.558V355.207H222.035ZM225.558 355.207V351.938C225.783 351.938 225.934 352.089 226.009 352.389C226.084 352.671 226.121 353.066 226.121 353.573C226.121 354.061 226.084 354.456 226.009 354.756C225.934 355.057 225.783 355.207 225.558 355.207ZM213.807 355.207V351.938H220.486L218.288 353.77V341.061H222.035V355.207H213.807ZM213.807 355.207C213.581 355.207 213.431 355.057 213.356 354.756C213.281 354.456 213.244 354.061 213.244 353.573C213.244 353.066 213.281 352.671 213.356 352.389C213.431 352.089 213.581 351.938 213.807 351.938V355.207ZM214.934 339.37V336.157H218.71V339.37H214.934ZM218.795 339.37V336.157H222.571V339.37H218.795Z" fill="black"/>
<path d="M249.2 355.207V351.938H252.187V355.207H249.2ZM242.127 355.207C241.357 355.207 240.587 355.066 239.816 354.785C239.065 354.484 238.37 354.043 237.731 353.46L240.042 351.065C240.417 351.365 240.765 351.591 241.084 351.741C241.423 351.873 241.77 351.938 242.127 351.938H247.396L245.452 353.714V347.458C245.452 347.157 245.415 346.706 245.339 346.105C245.283 345.485 245.189 344.79 245.058 344.02C244.945 343.23 244.804 342.432 244.635 341.624L248.355 341.061C248.486 341.737 248.608 342.498 248.721 343.343C248.852 344.17 248.965 344.959 249.059 345.71C249.153 346.443 249.2 347.026 249.2 347.458V355.207H242.127ZM225.558 355.207V351.938H229.672L228.826 352.812V343.935H232.602V355.207H225.558ZM232.602 355.207V351.938H234.885C235.486 351.938 235.946 351.854 236.266 351.685C236.585 351.497 236.801 351.131 236.914 350.586C237.045 350.022 237.111 349.186 237.111 348.078V342.526H240.887V348.078C240.887 349.75 240.671 351.112 240.239 352.164C239.826 353.216 239.178 353.986 238.295 354.475C237.412 354.963 236.275 355.207 234.885 355.207H232.602ZM225.558 355.207C225.332 355.207 225.182 355.057 225.107 354.756C225.032 354.456 224.994 354.061 224.994 353.573C224.994 353.066 225.032 352.671 225.107 352.389C225.182 352.089 225.332 351.938 225.558 351.938V355.207ZM252.187 355.207V351.938C252.412 351.938 252.563 352.089 252.638 352.389C252.713 352.671 252.751 353.066 252.751 353.573C252.751 354.061 252.713 354.456 252.638 354.756C252.563 355.057 252.412 355.207 252.187 355.207Z" fill="black"/>
<path d="M252.196 355.207V351.938H257.353L255.155 353.77V341.061H258.931V355.207H252.196ZM252.196 355.207C251.97 355.207 251.82 355.057 251.745 354.756C251.67 354.456 251.632 354.061 251.632 353.573C251.632 353.066 251.67 352.671 251.745 352.389C251.82 352.089 251.97 351.938 252.196 351.938V355.207ZM255.155 338.468V335.255H258.931V338.468H255.155Z" fill="black"/>
<path d="M47 388.278V372.64H51.1212L56.1353 383.63H56.5474V372.64H59.707V388.278H55.6316L50.5717 377.104H50.1596V388.278H47Z" fill="black"/>
<path d="M68.7431 388.53C67.0793 388.53 65.759 388.24 64.7821 387.66C63.8205 387.065 63.126 386.172 62.6986 384.981C62.2865 383.79 62.0805 382.302 62.0805 380.516C62.0805 378.715 62.2865 377.211 62.6986 376.005C63.126 374.799 63.8205 373.891 64.7821 373.281C65.759 372.67 67.0793 372.365 68.7431 372.365C70.4068 372.365 71.7195 372.67 72.6811 373.281C73.658 373.891 74.3525 374.799 74.7646 376.005C75.192 377.211 75.4057 378.715 75.4057 380.516C75.4057 382.333 75.192 383.836 74.7646 385.027C74.3525 386.217 73.658 387.103 72.6811 387.683C71.7195 388.248 70.4068 388.53 68.7431 388.53ZM68.7431 385.874C69.7047 385.874 70.4297 385.683 70.9181 385.302C71.4218 384.905 71.7576 384.309 71.9255 383.516C72.0934 382.707 72.1774 381.707 72.1774 380.516C72.1774 379.325 72.0858 378.326 71.9026 377.517C71.7347 376.692 71.4066 376.074 70.9181 375.662C70.4297 375.235 69.7047 375.021 68.7431 375.021C67.7967 375.021 67.0717 375.235 66.568 375.662C66.0795 376.074 65.7437 376.692 65.5606 377.517C65.3774 378.326 65.2858 379.325 65.2858 380.516C65.2858 381.691 65.3698 382.676 65.5377 383.47C65.7208 384.264 66.0566 384.867 66.5451 385.279C67.0488 385.676 67.7814 385.874 68.7431 385.874Z" fill="black"/>
<path d="M83.6724 388.53C82.3902 388.53 81.2989 388.362 80.3983 388.026C79.513 387.69 78.8414 387.133 78.3835 386.355C77.9256 385.561 77.6966 384.508 77.6966 383.195V372.64H80.8562V383.31C80.8562 384.21 81.0928 384.859 81.566 385.256C82.0544 385.653 82.7565 385.851 83.6724 385.851C84.634 385.851 85.359 385.653 85.8474 385.256C86.3359 384.859 86.5801 384.21 86.5801 383.31V372.64H89.7397V383.149C89.7397 384.462 89.5031 385.515 89.0299 386.309C88.572 387.103 87.8928 387.675 86.9922 388.026C86.1069 388.362 85.0003 388.53 83.6724 388.53Z" fill="black"/>
<path d="M97.5603 388.53C96.9803 388.53 96.3468 388.492 95.66 388.416C94.9731 388.354 94.3015 388.278 93.6452 388.187C93.0041 388.08 92.4546 387.988 91.9967 387.912L92.2027 385.416C92.6759 385.477 93.2254 385.546 93.8512 385.622C94.477 385.683 95.0952 385.737 95.7058 385.782C96.3316 385.828 96.8734 385.851 97.3313 385.851C98.2014 385.851 98.8348 385.683 99.2317 385.347C99.6285 384.996 99.827 384.454 99.827 383.722C99.827 383.325 99.743 383.012 99.5751 382.783C99.4225 382.539 99.1401 382.348 98.728 382.21C98.3158 382.058 97.7435 381.913 97.0108 381.775C95.7897 381.546 94.7976 381.264 94.0344 380.928C93.2865 380.592 92.737 380.119 92.3859 379.509C92.0501 378.898 91.8822 378.081 91.8822 377.059C91.8822 375.868 92.1035 374.937 92.5462 374.265C92.9888 373.578 93.6223 373.09 94.4465 372.8C95.2707 372.51 96.24 372.365 97.3542 372.365C97.8579 372.365 98.4303 372.395 99.0714 372.456C99.7277 372.502 100.369 372.563 100.995 372.64C101.636 372.716 102.178 372.8 102.62 372.891L102.483 375.41C102.025 375.349 101.491 375.296 100.88 375.25C100.285 375.189 99.6896 375.135 99.0943 375.09C98.5143 375.044 98.0182 375.021 97.6061 375.021C96.7361 375.021 96.095 375.158 95.6829 375.433C95.2707 375.708 95.0647 376.15 95.0647 376.761C95.0647 377.219 95.1563 377.57 95.3394 377.814C95.5226 378.058 95.8279 378.257 96.2552 378.41C96.6979 378.562 97.3008 378.722 98.064 378.89C98.9646 379.089 99.7277 379.303 100.354 379.532C100.995 379.76 101.506 380.035 101.888 380.356C102.284 380.676 102.574 381.089 102.758 381.592C102.941 382.096 103.032 382.729 103.032 383.493C103.032 384.714 102.811 385.698 102.368 386.446C101.941 387.179 101.315 387.713 100.491 388.049C99.6819 388.37 98.7051 388.53 97.5603 388.53Z" fill="black"/>
<path d="M110.209 388.278V372.64H115.291L118.451 383.081L121.542 372.64H126.693V388.278H123.534V376.692H123.213L119.939 387.866H116.963L113.689 376.692H113.368V388.278H110.209Z" fill="black"/>
<path d="M129.571 388.278V372.64H139.966V375.273H132.731V379.074H138.592V381.661H132.731V385.645H139.966V388.278H129.571ZM133.716 371.06L131.907 370.258L135.364 367.671L137.814 368.655L133.716 371.06Z" fill="black"/>
<path d="M142.182 388.278V372.64H148.295C149.547 372.64 150.592 372.8 151.432 373.12C152.286 373.441 152.92 373.975 153.332 374.723C153.759 375.471 153.973 376.486 153.973 377.768C153.973 378.898 153.767 379.852 153.355 380.631C152.958 381.394 152.347 381.959 151.523 382.325L153.973 388.278H150.653L148.593 383.035H145.341V388.278H142.182ZM145.341 380.447H148.364C148.944 380.447 149.409 380.341 149.76 380.127C150.111 379.898 150.363 379.585 150.516 379.188C150.668 378.776 150.745 378.31 150.745 377.791C150.745 376.937 150.546 376.295 150.15 375.868C149.753 375.441 149.134 375.227 148.295 375.227H145.341V380.447Z" fill="black"/>
<path d="M156.29 388.278V372.64H159.45V388.278H156.29Z" fill="black"/>
<path d="M165.372 388.278V375.318H161.159V372.64H172.607V375.318H168.531V388.278H165.372Z" fill="black"/>
<path d="M180.493 388.53C178.829 388.53 177.509 388.24 176.532 387.66C175.57 387.065 174.876 386.172 174.448 384.981C174.036 383.79 173.83 382.302 173.83 380.516C173.83 378.715 174.036 377.211 174.448 376.005C174.876 374.799 175.57 373.891 176.532 373.281C177.509 372.67 178.829 372.365 180.493 372.365C182.157 372.365 183.469 372.67 184.431 373.281C185.408 373.891 186.102 374.799 186.514 376.005C186.942 377.211 187.155 378.715 187.155 380.516C187.155 382.333 186.942 383.836 186.514 385.027C186.102 386.217 185.408 387.103 184.431 387.683C183.469 388.248 182.157 388.53 180.493 388.53ZM180.493 385.874C181.454 385.874 182.18 385.683 182.668 385.302C183.172 384.905 183.507 384.309 183.675 383.516C183.843 382.707 183.927 381.707 183.927 380.516C183.927 379.325 183.836 378.326 183.652 377.517C183.485 376.692 183.156 376.074 182.668 375.662C182.18 375.235 181.454 375.021 180.493 375.021C179.547 375.021 178.822 375.235 178.318 375.662C177.829 376.074 177.494 376.692 177.31 377.517C177.127 378.326 177.036 379.325 177.036 380.516C177.036 381.691 177.12 382.676 177.288 383.47C177.471 384.264 177.806 384.867 178.295 385.279C178.799 385.676 179.531 385.874 180.493 385.874Z" fill="black"/>
<path d="M189.538 388.278V372.64H193.659L198.673 383.63H199.085V372.64H202.245V388.278H198.17L193.11 377.104H192.698V388.278H189.538Z" fill="black"/>
<path d="M210.182 388.53C209.602 388.53 208.969 388.492 208.282 388.416C207.595 388.354 206.923 388.278 206.267 388.187C205.626 388.08 205.076 387.988 204.618 387.912L204.825 385.416C205.298 385.477 205.847 385.546 206.473 385.622C207.099 385.683 207.717 385.737 208.328 385.782C208.953 385.828 209.495 385.851 209.953 385.851C210.823 385.851 211.457 385.683 211.853 385.347C212.25 384.996 212.449 384.454 212.449 383.722C212.449 383.325 212.365 383.012 212.197 382.783C212.044 382.539 211.762 382.348 211.35 382.21C210.938 382.058 210.365 381.913 209.633 381.775C208.412 381.546 207.419 381.264 206.656 380.928C205.908 380.592 205.359 380.119 205.008 379.509C204.672 378.898 204.504 378.081 204.504 377.059C204.504 375.868 204.725 374.937 205.168 374.265C205.611 373.578 206.244 373.09 207.068 372.8C207.893 372.51 208.862 372.365 209.976 372.365C210.48 372.365 211.052 372.395 211.693 372.456C212.35 372.502 212.991 372.563 213.616 372.64C214.258 372.716 214.799 372.8 215.242 372.891L215.105 375.41C214.647 375.349 214.113 375.296 213.502 375.25C212.907 375.189 212.311 375.135 211.716 375.09C211.136 375.044 210.64 375.021 210.228 375.021C209.358 375.021 208.717 375.158 208.305 375.433C207.893 375.708 207.687 376.15 207.687 376.761C207.687 377.219 207.778 377.57 207.961 377.814C208.144 378.058 208.45 378.257 208.877 378.41C209.32 378.562 209.923 378.722 210.686 378.89C211.586 379.089 212.35 379.303 212.975 379.532C213.616 379.76 214.128 380.035 214.509 380.356C214.906 380.676 215.196 381.089 215.379 381.592C215.563 382.096 215.654 382.729 215.654 383.493C215.654 384.714 215.433 385.698 214.99 386.446C214.563 387.179 213.937 387.713 213.113 388.049C212.304 388.37 211.327 388.53 210.182 388.53Z" fill="black"/>
<path d="M222.83 388.278V372.64H227.913L231.073 383.081L234.164 372.64H239.315V388.278H236.156V376.692H235.835L232.561 387.866H229.585L226.311 376.692H225.99V388.278H222.83Z" fill="black"/>
<path d="M242.193 388.278V372.64H245.353V388.278H242.193Z" fill="black"/>
<path d="M248.253 388.278V372.64H258.647V375.273H251.412V379.074H257.273V381.661H251.412V385.645H258.647V388.278H248.253Z" fill="black"/>
<path d="M266.747 388.53C265.465 388.53 264.374 388.362 263.473 388.026C262.588 387.69 261.916 387.133 261.458 386.355C261 385.561 260.771 384.508 260.771 383.195V372.64H263.931V383.31C263.931 384.21 264.168 384.859 264.641 385.256C265.129 385.653 265.831 385.851 266.747 385.851C267.709 385.851 268.434 385.653 268.922 385.256C269.411 384.859 269.655 384.21 269.655 383.31V372.64H272.814V383.149C272.814 384.462 272.578 385.515 272.105 386.309C271.647 387.103 270.968 387.675 270.067 388.026C269.182 388.362 268.075 388.53 266.747 388.53Z" fill="black"/>
<path d="M274.316 388.278L278.574 380.676L274.316 372.64H277.659L280.635 378.387L283.772 372.64H287L282.719 380.379L286.908 388.278H283.543L280.612 382.691L277.59 388.278H274.316Z" fill="black"/>
<path d="M145.719 168.991C121.077 158.963 82.5791 194.572 82.5791 194.572C83.2898 200.615 84.6879 206.447 86.693 211.989C92.2424 221.918 120.099 214.425 146.734 207.26C165.933 202.096 184.497 197.103 193.616 198.927C215.387 203.281 234.137 211.989 234.137 211.989C237.149 203.664 238.791 194.684 238.791 185.32C227.361 194.572 174.313 180.627 145.719 168.991Z" fill="url(#paint0_linear_171_1715)"/>
<path fill-rule="evenodd" clip-rule="evenodd" d="M160.415 106.943C203.701 106.943 238.791 142.034 238.791 185.32C227.361 194.572 174.313 180.627 145.719 168.991C121.077 158.963 82.5791 194.572 82.5791 194.572C82.2222 191.538 82.0386 188.45 82.0386 185.32C82.0386 142.034 117.129 106.943 160.415 106.943Z" fill="url(#paint1_linear_171_1715)"/>
<path d="M86.693 211.989C97.6046 242.146 126.493 263.696 160.415 263.696C194.337 263.696 223.225 242.146 234.137 211.989C234.137 211.989 215.387 203.281 193.616 198.927C184.497 197.103 165.933 202.096 146.734 207.26C120.099 214.425 92.2424 221.918 86.693 211.989Z" fill="url(#paint2_linear_171_1715)"/>
<path d="M207.66 134.583C208.215 134.893 208.888 134.972 209.412 135.376C208.413 135.257 207.414 135.123 206.415 135.035C201.206 134.576 196.869 136.383 193.23 140.062C192.842 140.458 192.588 140.45 192.295 139.998C192.065 139.642 191.779 139.317 191.526 138.976C187.831 134.235 182.923 132.237 176.953 132.554C177.849 132.142 179.728 131.848 181.433 131.888C185.722 131.967 189.425 133.489 192.548 136.431C192.937 136.795 193.159 136.795 193.595 136.518C197.789 133.846 202.3 133.141 207.12 134.465C207.303 134.496 207.477 134.536 207.66 134.583ZM209.443 135.376H209.412L209.435 135.384L209.443 135.376ZM185.928 145.873C182.289 145.62 179.181 146.777 176.565 149.29C176.295 149.56 176.137 149.6 175.812 149.385C173.156 147.736 170.302 147.189 167.21 147.736C165.981 147.95 164.681 148.426 164.094 148.854C168.32 147.768 172.101 148.49 175.431 151.344C175.661 151.558 175.907 151.748 176.129 151.97C176.406 152.248 176.589 152.208 176.811 151.867C178.872 148.735 181.718 146.801 185.508 146.381C186.237 146.301 186.967 146.262 187.696 146.198C187.252 145.984 186.769 146.032 186.333 145.889C186.182 145.889 186.063 145.889 185.928 145.873ZM203.109 156.6C201.15 156.251 199.382 156.672 197.805 157.892C197.63 158.011 197.559 158.027 197.392 157.892C196.1 156.846 194.467 156.339 192.818 156.465C192.136 156.521 191.407 156.703 191.066 156.894C193.42 156.553 195.442 157.187 197.075 158.939C197.186 159.058 197.305 159.185 197.416 159.312C197.551 159.486 197.646 159.47 197.789 159.304C199.105 157.718 200.77 156.846 202.855 156.846C203.251 156.846 203.656 156.87 204.052 156.87C203.838 156.727 203.569 156.727 203.323 156.616C203.244 156.624 203.18 156.616 203.109 156.6Z" fill="black"/>
<mask id="mask0_171_1715" style="mask-type:luminance" maskUnits="userSpaceOnUse" x="121" y="146" width="36" height="27">
<path d="M121.593 146.498H156.604V172.376H121.593V146.498Z" fill="white"/>
</mask>
<g mask="url(#mask0_171_1715)">
<path d="M126.604 156.812L126.382 156.273L126.445 154.521C126.453 154.521 126.834 155.853 126.604 156.812ZM156.81 148.892C156.771 148.321 156.208 147.853 156.208 147.853C155.447 147.298 154.154 147.457 154.154 147.457C153.219 147.576 152.418 147.068 152.418 147.068C151.554 146.513 150.658 147.14 150.658 147.14C149.746 146.83 149.564 147.473 149.564 147.473L149.651 147.687C149.484 147.742 149.429 148.115 149.429 148.115C149.445 148.408 149.239 148.868 149.239 148.868C148.89 149.455 148.375 151.508 148.375 151.508C148.049 152.951 146.71 152.983 146.71 152.983C145.251 152.951 144.474 151.143 144.474 151.143C143.586 149.272 140.177 148.408 140.177 148.408C139.32 148.265 138.583 147.766 138.583 147.766C137.188 146.632 135.547 146.83 135.547 146.83C133.731 146.902 132.201 149.114 132.201 149.114C131.781 149.272 129.164 150.002 129.164 150.002C128.451 150.113 128.015 150.953 128.015 150.953C127.88 151.421 127.46 151.706 127.46 151.706C124.447 153.324 125.66 156.051 125.66 156.051C126.263 157.423 125.906 158.802 125.906 158.802C125.747 159.151 125.66 159.706 125.66 159.706C125.24 160.745 123.599 162.211 123.599 162.211C122.782 162.79 122.98 163.876 122.98 163.876C123.115 164.669 123.052 166.794 123.052 166.794C122.893 168.728 122.069 169.37 122.069 169.37C121.942 169.473 121.878 169.569 121.847 169.648C121.839 169.695 121.839 169.751 121.831 169.814C121.831 169.838 121.823 169.87 121.823 169.902C121.775 170.829 122.338 171.495 122.338 171.495C122.957 172.185 123.068 170.829 123.068 170.829C123.115 170.036 123.718 169.656 123.718 169.656C124.027 169.41 123.797 168.641 123.797 168.641C123.868 167.246 124.13 165.977 124.13 165.977C124.487 164.162 125.509 163.186 125.509 163.186C125.819 162.925 127.285 161.434 127.285 161.434C127.293 162.473 126.873 164.106 126.873 164.106C126.572 164.923 126.881 165.422 126.881 165.422C127.024 165.676 127.19 166.278 127.587 167.016C127.991 167.761 128.681 170.433 128.681 170.433C128.633 170.932 128.974 171.559 128.974 171.559C128.879 172.161 130.037 172.169 130.037 172.169C131.345 172.304 131.281 171.796 131.281 171.796C131.289 171.59 130.584 171.519 130.584 171.519C130.171 171.337 129.973 170.909 129.973 170.909C129.973 170.599 129.561 170.076 129.561 170.076C129.172 169.323 128.855 167.365 128.855 167.365C128.823 167.158 128.776 166.619 128.776 166.619C128.784 166.35 128.744 164.415 128.744 164.415C128.72 164.265 128.879 163.527 128.879 163.527C128.99 163.131 129.077 161.775 129.077 161.775C129.061 161.656 129.212 161.379 129.212 161.379C129.561 161.204 130.33 159.761 130.33 159.761C130.829 159.27 130.742 158.953 130.742 158.953L130.726 158.223C131.955 157.058 133.462 158.2 133.462 158.2C134.27 158.834 137.005 158.984 137.005 158.984C137.537 158.984 138.044 159.333 138.044 159.333C137.814 159.563 137.204 161.204 137.204 161.204C136.855 162.441 135.88 164.36 135.88 164.36C135.515 164.74 135.578 165.414 135.578 165.414C135.539 166.818 134.231 169.458 134.231 169.458C133.977 169.719 133.993 170.25 133.993 170.25C133.985 170.583 133.62 171.202 133.62 171.202C132.764 172.09 134.746 171.963 134.746 171.963C136.078 171.995 135.792 171.582 135.792 171.582C135.666 171.273 135.174 171.099 135.174 171.099L135.158 170.845C135.293 170.576 135.491 169.505 135.491 169.505C135.856 167.365 136.894 166.152 136.894 166.152C137.663 165.771 137.481 165.01 137.481 165.01C137.782 163.575 139.4 161.514 139.4 161.514C139.764 161.077 140.423 159.896 140.423 159.896C140.597 159.294 141.596 158.945 141.596 158.945C141.913 159.151 142.175 160.007 142.175 160.007C142.412 161.014 143.245 164.162 143.245 164.162C143.411 166.318 144.284 167.016 144.284 167.016C144.577 167.737 145.576 171.384 145.576 171.384C145.053 172.24 146.781 171.963 146.781 171.963C148.66 172.24 148.351 171.741 148.351 171.741C147.978 170.988 146.813 170.576 146.813 170.576C145.719 169.069 145.394 166.865 145.394 166.865C145.734 164.859 145.053 164.812 145.053 164.812C144.498 163.543 144.418 158.905 144.418 158.905C144.41 158.588 144.593 158.303 144.593 158.303C144.735 158.255 145.354 157.502 145.354 157.502C145.592 157.589 146.464 157.47 146.464 157.47C146.369 158.033 147.931 157.613 147.931 157.613C152.355 155.662 152.64 151.556 152.64 151.556C152.917 151.54 153.861 150.755 153.861 150.755C154.091 150.438 154.63 149.946 154.63 149.946C154.987 149.954 155.367 149.677 155.367 149.677C156.771 150.033 156.541 149.399 156.541 149.399C156.961 149.391 156.81 148.892 156.81 148.892Z" fill="url(#paint3_linear_171_1715)"/>
</g>
<path d="M75.7309 188.234C75.7309 139.476 115.261 99.9456 164.028 99.9456C186.322 99.9456 206.682 108.215 222.221 121.843C205.318 95.6406 175.865 78.2856 142.368 78.2856C89.9225 78.2856 47.4113 120.805 47.4113 173.242C47.4113 218.806 79.5048 256.869 122.317 266.074C94.5843 251.185 75.7309 221.914 75.7309 188.234Z" fill="black"/>
<path fill-rule="evenodd" clip-rule="evenodd" d="M200.662 23.3485C200.144 20.9354 200.275 18.968 202.136 19.0103C204.503 20.0571 207.274 21.1448 210.357 22.3546C234.21 31.7148 276.697 48.3873 294.432 110.008C310.178 164.715 309.316 224.867 270.455 269.807C229.508 317.149 163.958 325.915 107.578 298.729C62.848 277.159 46.7409 238.413 41.1404 192.556C53.0249 220.707 68.561 251.243 98.2237 265.622C154.363 292.841 210.847 276.839 247.992 229.834C259.665 215.058 259.081 194.029 246.815 179.747C238.355 169.877 228.662 158.488 222.813 142.65C212.597 114.952 228.272 104.267 222.947 93.5354C229.303 92.1578 232.222 102.129 235.313 112.688C238.705 124.274 242.303 136.568 250.878 135.353C275.835 131.819 256.133 52.6296 209.492 33.7031C205.03 31.895 201.673 28.0499 200.662 23.3485Z" fill="black"/>
<path d="M209.773 62.6591C234.022 72.5384 250.972 98.6972 258.144 122.022C258.578 113.866 256.529 102.861 252.284 91.7884C246.601 76.9848 238.177 64.1982 228.272 54.9049C217.994 50.172 207.062 52.4429 202.341 47.9422C200.437 47.8979 200.347 49.96 200.907 52.4429C201.965 57.1111 205.345 60.8556 209.773 62.6591Z" fill="black"/>
<defs>
<linearGradient id="paint0_linear_171_1715" x1="160.309" y1="176.794" x2="160.415" y2="263.696" gradientUnits="userSpaceOnUse">
<stop stop-color="#393939"/>
<stop offset="1" stop-color="#8E8E8E"/>
</linearGradient>
<linearGradient id="paint1_linear_171_1715" x1="177.931" y1="106.872" x2="160.415" y2="263.696" gradientUnits="userSpaceOnUse">
<stop stop-color="#E2E2E2"/>
<stop offset="1" stop-color="white"/>
</linearGradient>
<linearGradient id="paint2_linear_171_1715" x1="144.086" y1="210.901" x2="160.415" y2="263.696" gradientUnits="userSpaceOnUse">
<stop stop-color="#C3C3C3"/>
<stop offset="1" stop-color="#919191"/>
</linearGradient>
<linearGradient id="paint3_linear_171_1715" x1="139.328" y1="146.817" x2="139.328" y2="172.192" gradientUnits="userSpaceOnUse">
<stop stop-color="#3A3A3A"/>
<stop offset="1" stop-color="#404040"/>
</linearGradient>
</defs>
</svg>
