<svg width="489" height="483" viewBox="0 0 489 483" fill="none" xmlns="http://www.w3.org/2000/svg">
<circle cx="250" cy="239" r="239" fill="white"/>
<path d="M207.832 242.628C175.222 229.358 124.278 276.479 124.278 276.479C125.218 284.476 127.068 292.194 129.722 299.527C137.065 312.666 173.928 302.75 209.175 293.269C234.58 286.436 259.146 279.828 271.214 282.241C300.024 288.003 324.835 299.527 324.835 299.527C328.821 288.511 330.994 276.627 330.994 264.235C315.869 276.479 245.67 258.025 207.832 242.628Z" fill="#FEDB42"/>
<path fill-rule="evenodd" clip-rule="evenodd" d="M227.278 160.519C284.559 160.519 330.994 206.954 330.994 264.235C315.869 276.479 245.67 258.025 207.832 242.628C175.222 229.358 124.278 276.479 124.278 276.479C123.805 272.464 123.562 268.378 123.562 264.235C123.562 206.954 169.998 160.519 227.278 160.519Z" fill="url(#paint0_linear_177_48)"/>
<path d="M129.722 299.527C144.161 339.434 182.389 367.951 227.278 367.951C272.167 367.951 310.396 339.434 324.835 299.527C324.835 299.527 300.024 288.003 271.214 282.241C259.146 279.828 234.58 286.436 209.175 293.269C173.928 302.75 137.065 312.666 129.722 299.527Z" fill="url(#paint1_linear_177_48)"/>
<path d="M289.798 197.095C290.532 197.505 291.424 197.61 292.116 198.145C290.794 197.987 289.472 197.809 288.15 197.693C281.258 197.085 275.519 199.477 270.703 204.345C270.189 204.87 269.853 204.859 269.465 204.261C269.161 203.789 268.783 203.359 268.447 202.908C263.558 196.634 257.064 193.99 249.164 194.41C250.35 193.864 252.836 193.476 255.092 193.528C260.768 193.633 265.667 195.648 269.801 199.54C270.315 200.023 270.609 200.023 271.186 199.655C276.736 196.12 282.705 195.186 289.084 196.938C289.325 196.98 289.556 197.032 289.798 197.095ZM292.158 198.145H292.116L292.148 198.155L292.158 198.145ZM261.04 212.035C256.225 211.7 252.112 213.231 248.65 216.557C248.293 216.914 248.083 216.966 247.653 216.683C244.139 214.501 240.362 213.777 236.27 214.501C234.644 214.784 232.923 215.414 232.147 215.98C237.739 214.543 242.743 215.498 247.15 219.274C247.454 219.558 247.779 219.81 248.073 220.103C248.44 220.47 248.681 220.418 248.975 219.967C251.703 215.823 255.469 213.263 260.484 212.707C261.45 212.602 262.415 212.549 263.38 212.465C262.792 212.182 262.152 212.245 261.575 212.056C261.376 212.056 261.219 212.056 261.04 212.035ZM283.775 226.23C281.184 225.769 278.844 226.325 276.757 227.94C276.526 228.098 276.431 228.119 276.211 227.94C274.501 226.556 272.34 225.884 270.158 226.052C269.255 226.125 268.29 226.367 267.839 226.619C270.955 226.167 273.63 227.007 275.791 229.325C275.938 229.483 276.096 229.651 276.243 229.818C276.421 230.049 276.547 230.028 276.736 229.808C278.477 227.71 280.68 226.556 283.44 226.556C283.964 226.556 284.499 226.587 285.024 226.587C284.741 226.398 284.384 226.398 284.059 226.251C283.954 226.262 283.87 226.251 283.775 226.23Z" fill="#E0BB18"/>
<mask id="mask0_177_48" style="mask-type:luminance" maskUnits="userSpaceOnUse" x="175" y="212" width="48" height="36">
<path d="M175.905 212.862H222.236V247.106H175.905V212.862Z" fill="white"/>
</mask>
<g mask="url(#mask0_177_48)">
<path d="M182.536 226.511L182.242 225.798L182.326 223.479C182.336 223.479 182.84 225.241 182.536 226.511ZM222.508 216.03C222.456 215.275 221.711 214.656 221.711 214.656C220.704 213.921 218.994 214.131 218.994 214.131C217.756 214.288 216.696 213.617 216.696 213.617C215.552 212.882 214.367 213.711 214.367 213.711C213.16 213.302 212.919 214.152 212.919 214.152L213.034 214.435C212.814 214.509 212.741 215.002 212.741 215.002C212.762 215.39 212.489 215.998 212.489 215.998C212.027 216.775 211.345 219.492 211.345 219.492C210.915 221.402 209.142 221.444 209.142 221.444C207.212 221.402 206.183 219.01 206.183 219.01C205.008 216.534 200.497 215.39 200.497 215.39C199.364 215.201 198.388 214.54 198.388 214.54C196.542 213.04 194.37 213.302 194.37 213.302C191.967 213.397 189.943 216.324 189.943 216.324C189.387 216.534 185.924 217.499 185.924 217.499C184.98 217.646 184.403 218.758 184.403 218.758C184.225 219.377 183.669 219.754 183.669 219.754C179.682 221.895 181.287 225.504 181.287 225.504C182.084 227.319 181.612 229.144 181.612 229.144C181.403 229.606 181.287 230.34 181.287 230.34C180.731 231.715 178.559 233.656 178.559 233.656C177.479 234.422 177.741 235.859 177.741 235.859C177.919 236.908 177.835 239.72 177.835 239.72C177.626 242.28 176.534 243.13 176.534 243.13C176.367 243.266 176.283 243.392 176.241 243.497C176.23 243.56 176.23 243.633 176.22 243.717C176.22 243.749 176.209 243.79 176.209 243.832C176.146 245.06 176.891 245.941 176.891 245.941C177.71 246.854 177.856 245.06 177.856 245.06C177.919 244.011 178.717 243.507 178.717 243.507C179.126 243.182 178.822 242.164 178.822 242.164C178.916 240.318 179.262 238.639 179.262 238.639C179.734 236.237 181.088 234.946 181.088 234.946C181.497 234.6 183.438 232.628 183.438 232.628C183.448 234.002 182.892 236.163 182.892 236.163C182.494 237.244 182.903 237.905 182.903 237.905C183.092 238.24 183.312 239.038 183.837 240.014C184.372 241 185.284 244.535 185.284 244.535C185.221 245.196 185.673 246.025 185.673 246.025C185.547 246.823 187.078 246.833 187.078 246.833C188.81 247.011 188.726 246.34 188.726 246.34C188.736 246.067 187.802 245.973 187.802 245.973C187.257 245.731 186.994 245.165 186.994 245.165C186.994 244.756 186.449 244.063 186.449 244.063C185.935 243.067 185.515 240.475 185.515 240.475C185.473 240.202 185.41 239.489 185.41 239.489C185.421 239.132 185.368 236.572 185.368 236.572C185.337 236.373 185.547 235.397 185.547 235.397C185.694 234.873 185.809 233.079 185.809 233.079C185.788 232.921 185.987 232.554 185.987 232.554C186.449 232.323 187.467 230.414 187.467 230.414C188.128 229.763 188.012 229.344 188.012 229.344L187.991 228.378C189.617 226.836 191.611 228.347 191.611 228.347C192.681 229.186 196.3 229.386 196.3 229.386C197.003 229.386 197.675 229.847 197.675 229.847C197.371 230.152 196.563 232.323 196.563 232.323C196.101 233.96 194.811 236.499 194.811 236.499C194.328 237.002 194.412 237.894 194.412 237.894C194.36 239.751 192.628 243.245 192.628 243.245C192.293 243.591 192.314 244.294 192.314 244.294C192.303 244.735 191.821 245.553 191.821 245.553C190.687 246.728 193.31 246.56 193.31 246.56C195.073 246.602 194.695 246.057 194.695 246.057C194.527 245.647 193.877 245.417 193.877 245.417L193.856 245.081C194.034 244.724 194.297 243.308 194.297 243.308C194.779 240.475 196.154 238.87 196.154 238.87C197.171 238.366 196.93 237.359 196.93 237.359C197.329 235.46 199.469 232.732 199.469 232.732C199.951 232.155 200.822 230.592 200.822 230.592C201.053 229.795 202.375 229.333 202.375 229.333C202.795 229.606 203.141 230.739 203.141 230.739C203.456 232.071 204.557 236.237 204.557 236.237C204.778 239.09 205.932 240.014 205.932 240.014C206.32 240.968 207.642 245.794 207.642 245.794C206.949 246.927 209.236 246.56 209.236 246.56C211.723 246.927 211.314 246.266 211.314 246.266C210.821 245.27 209.278 244.724 209.278 244.724C207.831 242.731 207.4 239.814 207.4 239.814C207.852 237.16 206.949 237.097 206.949 237.097C206.215 235.418 206.11 229.281 206.11 229.281C206.1 228.861 206.341 228.483 206.341 228.483C206.53 228.42 207.348 227.424 207.348 227.424C207.663 227.539 208.817 227.382 208.817 227.382C208.691 228.127 210.758 227.571 210.758 227.571C216.612 224.99 216.99 219.555 216.99 219.555C217.357 219.534 218.605 218.495 218.605 218.495C218.91 218.076 219.623 217.425 219.623 217.425C220.095 217.436 220.599 217.069 220.599 217.069C222.456 217.541 222.152 216.701 222.152 216.701C222.708 216.691 222.508 216.03 222.508 216.03Z" fill="url(#paint2_linear_177_48)"/>
</g>
<path d="M115.215 268.092C115.215 203.57 167.526 151.259 232.059 151.259C261.561 151.259 288.504 162.202 309.067 180.237C286.699 145.562 247.723 122.596 203.396 122.596C133.995 122.596 77.7397 178.862 77.7397 248.253C77.7397 308.548 120.209 358.917 176.863 371.098C140.164 351.395 115.215 312.66 115.215 268.092Z" fill="url(#paint3_linear_177_48)"/>
<path fill-rule="evenodd" clip-rule="evenodd" d="M280.538 49.8974C279.852 46.704 280.026 44.1006 282.488 44.1566C285.62 45.5418 289.288 46.9811 293.368 48.5821C324.932 60.9685 381.155 83.0314 404.625 164.574C425.462 236.968 424.32 316.568 372.896 376.037C318.711 438.686 231.967 450.286 157.359 414.31C98.1674 385.767 76.8527 334.494 69.4414 273.81C85.1683 311.064 105.727 351.473 144.98 370.5C219.27 406.519 294.016 385.343 343.17 323.141C358.617 303.588 357.844 275.76 341.613 256.861C330.417 243.8 317.59 228.728 309.851 207.771C296.331 171.117 317.074 156.977 310.028 142.776C318.439 140.953 322.302 154.148 326.392 168.121C330.88 183.453 335.642 199.722 346.989 198.114C380.015 193.438 353.943 88.6452 292.223 63.5997C286.318 61.207 281.875 56.1187 280.538 49.8974Z" fill="url(#paint4_linear_177_48)"/>
<path d="M292.594 101.917C324.683 114.991 347.113 149.607 356.604 180.473C357.178 169.68 354.467 155.117 348.849 140.464C341.329 120.875 330.182 103.954 317.074 91.6562C303.473 85.3931 289.008 88.3982 282.759 82.4424C280.24 82.3838 280.121 85.1126 280.862 88.3982C282.261 94.5756 286.735 99.5308 292.594 101.917Z" fill="url(#paint5_linear_177_48)"/>
<defs>
<linearGradient id="paint0_linear_177_48" x1="227.278" y1="160.519" x2="227.278" y2="367.951" gradientUnits="userSpaceOnUse">
<stop stop-color="#008343"/>
<stop offset="1" stop-color="#18FF8F"/>
</linearGradient>
<linearGradient id="paint1_linear_177_48" x1="205.671" y1="298.087" x2="227.278" y2="367.951" gradientUnits="userSpaceOnUse">
<stop stop-color="#E3BD1A"/>
<stop offset="1" stop-color="#F4C90D"/>
</linearGradient>
<linearGradient id="paint2_linear_177_48" x1="199.374" y1="213.285" x2="199.374" y2="246.863" gradientUnits="userSpaceOnUse">
<stop stop-color="#FEDB44"/>
<stop offset="1" stop-color="#FEDB44"/>
</linearGradient>
<linearGradient id="paint3_linear_177_48" x1="193.403" y1="122.596" x2="193.403" y2="371.098" gradientUnits="userSpaceOnUse">
<stop stop-color="#E56D6D"/>
<stop offset="1" stop-color="#EC3538"/>
</linearGradient>
<linearGradient id="paint4_linear_177_48" x1="75.7993" y1="410.953" x2="378.849" y2="110.684" gradientUnits="userSpaceOnUse">
<stop stop-color="#F5C700"/>
<stop offset="1" stop-color="#FAD947"/>
</linearGradient>
<linearGradient id="paint5_linear_177_48" x1="348.431" y1="152.948" x2="244.691" y2="42.1582" gradientUnits="userSpaceOnUse">
<stop stop-color="#E0B90D"/>
<stop offset="1" stop-color="#FAD947"/>
</linearGradient>
</defs>
</svg>
