<svg width="331" height="381" viewBox="0 0 331 381" fill="none" xmlns="http://www.w3.org/2000/svg">
<path d="M70.4811 347.206V343.937H73.4399V347.206H70.4811ZM62.3656 354.194C60.7312 354.194 59.2659 353.894 57.9696 353.293C56.6922 352.71 55.6871 351.893 54.9545 350.841C54.2218 349.789 53.8555 348.596 53.8555 347.262C53.8555 346.886 53.8836 346.389 53.94 345.769C53.9964 345.149 54.0715 344.454 54.1654 343.683C54.2782 342.913 54.3909 342.134 54.5036 341.345C54.6351 340.537 54.7572 339.757 54.8699 339.006L58.5896 339.513C58.3829 340.772 58.2044 341.927 58.0542 342.979C57.9227 344.012 57.8193 344.895 57.7442 345.628C57.669 346.36 57.6315 346.896 57.6315 347.234C57.6315 347.985 57.8193 348.634 58.1951 349.178C58.5708 349.723 59.1062 350.146 59.8013 350.446C60.5151 350.766 61.3699 350.925 62.3656 350.925C63.3988 350.925 64.2348 350.775 64.8735 350.475C65.5122 350.174 65.9725 349.761 66.2543 349.235C66.5549 348.709 66.7051 348.117 66.7051 347.459V327.283H70.4811V347.459C70.4811 348.812 70.1242 349.996 69.4103 351.01C68.7153 352.024 67.7572 352.804 66.5361 353.349C65.315 353.912 63.9248 354.194 62.3656 354.194ZM73.4399 347.206V343.937C73.6654 343.937 73.8157 344.087 73.8908 344.388C73.966 344.67 74.0035 345.064 74.0035 345.571C74.0035 346.06 73.966 346.454 73.8908 346.755C73.8157 347.056 73.6654 347.206 73.4399 347.206Z" fill="#00964D"/>
<path d="M95.345 347.206V343.937H98.3038V347.206H95.345ZM73.4499 347.206V343.937H94.7533L91.569 346.699V340.781C91.569 339.71 91.4281 338.855 91.1463 338.217C90.8645 337.559 90.4512 337.08 89.9065 336.78C89.3804 336.479 88.7417 336.329 87.9903 336.329C87.1825 336.329 86.4122 336.488 85.6796 336.808C84.9657 337.127 84.2988 337.54 83.6789 338.048C83.0589 338.555 82.486 339.1 81.9599 339.682C81.4339 340.264 80.9643 340.828 80.551 341.373C80.1377 341.899 79.7808 342.35 79.4802 342.725L78.6348 339.992C79.3675 339.109 80.025 338.301 80.6073 337.569C81.1897 336.836 81.7439 336.188 82.2699 335.624C82.8147 335.061 83.3783 334.591 83.9607 334.215C84.5618 333.84 85.2099 333.558 85.905 333.37C86.6189 333.163 87.4455 333.06 88.3848 333.06C89.6434 333.06 90.7143 333.276 91.5972 333.708C92.4801 334.121 93.194 334.694 93.7388 335.427C94.3024 336.16 94.7063 336.986 94.9505 337.907C95.2135 338.827 95.345 339.785 95.345 340.781V347.206H73.4499ZM77.0004 343.937V333.06H80.7764V343.937H77.0004ZM73.4499 347.206C73.2244 347.206 73.0741 347.056 72.999 346.755C72.9238 346.454 72.8863 346.06 72.8863 345.571C72.8863 345.064 72.9238 344.67 72.999 344.388C73.0741 344.087 73.2244 343.937 73.4499 343.937V347.206ZM98.3038 347.206V343.937C98.5293 343.937 98.6795 344.087 98.7547 344.388C98.8298 344.67 98.8674 345.064 98.8674 345.571C98.8674 346.06 98.8298 346.454 98.7547 346.755C98.6795 347.056 98.5293 347.206 98.3038 347.206ZM84.6088 330.496V327.283H88.3848V330.496H84.6088Z" fill="#00964D"/>
<path d="M98.2992 347.206V343.937H111.459L110.303 344.923V335.512L111.262 336.329H107.711C106.884 336.329 106.236 336.432 105.767 336.639C105.297 336.845 104.968 337.23 104.78 337.794C104.593 338.339 104.499 339.118 104.499 340.133C104.499 341.241 104.593 342.068 104.78 342.613C104.968 343.139 105.297 343.496 105.767 343.683C106.236 343.853 106.884 343.937 107.711 343.937V346.868C106.114 346.868 104.799 346.642 103.766 346.191C102.733 345.741 101.962 345.027 101.455 344.05C100.967 343.054 100.723 341.748 100.723 340.133C100.723 338.592 100.967 337.296 101.455 336.244C101.962 335.192 102.733 334.403 103.766 333.877C104.799 333.332 106.114 333.06 107.711 333.06H114.08V347.206H98.2992ZM98.2992 347.206C98.0738 347.206 97.9235 347.056 97.8483 346.755C97.7732 346.454 97.7356 346.06 97.7356 345.571C97.7356 345.064 97.7732 344.67 97.8483 344.388C97.9235 344.087 98.0738 343.937 98.2992 343.937V347.206ZM106.218 330.467V327.255H109.994V330.467H106.218Z" fill="#00964D"/>
<path d="M117.176 347.206V343.937H131.491L129.687 345.797V327.283H133.463V347.206H117.176ZM121.093 343.937V331.228H124.841V343.937H121.093ZM121.29 328.889C120.933 328.457 120.661 328.044 120.473 327.65C120.285 327.255 120.191 326.832 120.191 326.381C120.191 325.743 120.36 325.17 120.698 324.663C121.036 324.137 121.478 323.733 122.023 323.451C122.567 323.15 123.169 323 123.826 323C124.183 323 124.549 323.047 124.925 323.141C125.301 323.235 125.62 323.376 125.883 323.564L124.925 325.283C124.756 325.189 124.587 325.132 124.418 325.113C124.268 325.076 124.108 325.057 123.939 325.057C123.488 325.057 123.14 325.179 122.896 325.423C122.652 325.649 122.53 325.959 122.53 326.353C122.53 326.579 122.577 326.795 122.671 327.001C122.765 327.208 122.906 327.434 123.094 327.678L121.29 328.889ZM119.571 329.115V327.058H126.39V329.115H119.571Z" fill="#00964D"/>
<path d="M138.068 347.206V327.283H141.816V347.206H138.068Z" fill="#00964D"/>
<path d="M174.229 347.206V343.937H177.216V347.206H174.229ZM159.801 354.701C158.261 354.701 156.871 354.41 155.631 353.828C154.391 353.264 153.414 352.475 152.7 351.461C151.986 350.465 151.629 349.329 151.629 348.051C151.629 347.657 151.657 347.14 151.714 346.501C151.789 345.863 151.873 345.158 151.967 344.388C152.08 343.618 152.193 342.819 152.306 341.993C152.437 341.166 152.559 340.387 152.672 339.654L156.392 340.189C156.204 341.429 156.035 342.566 155.884 343.599C155.734 344.632 155.612 345.515 155.518 346.248C155.443 346.98 155.405 347.544 155.405 347.939C155.405 348.69 155.574 349.319 155.912 349.827C156.269 350.353 156.777 350.747 157.434 351.01C158.092 351.292 158.881 351.433 159.801 351.433H166.395C167.766 351.433 168.79 351.151 169.467 350.587C170.143 350.043 170.481 349.254 170.481 348.22V335.512L171.411 336.329H167.86C167.034 336.329 166.386 336.432 165.916 336.639C165.446 336.845 165.118 337.23 164.93 337.794C164.742 338.339 164.648 339.118 164.648 340.133C164.648 341.241 164.742 342.068 164.93 342.613C165.118 343.139 165.446 343.496 165.916 343.683C166.386 343.853 167.034 343.937 167.86 343.937H170.481V347.206H167.86C166.264 347.206 164.949 346.962 163.915 346.473C162.882 345.966 162.112 345.186 161.605 344.134C161.116 343.082 160.872 341.748 160.872 340.133C160.872 338.592 161.116 337.296 161.605 336.244C162.112 335.192 162.882 334.403 163.915 333.877C164.949 333.332 166.264 333.06 167.86 333.06H174.229V348.22C174.229 349.554 173.881 350.7 173.186 351.658C172.51 352.635 171.58 353.386 170.397 353.912C169.232 354.438 167.898 354.701 166.395 354.701H159.801ZM177.216 347.206V343.937C177.441 343.937 177.592 344.087 177.667 344.388C177.742 344.67 177.779 345.064 177.779 345.571C177.779 346.06 177.742 346.454 177.667 346.755C177.592 347.056 177.441 347.206 177.216 347.206ZM164.254 331.369V328.157H168.03V331.369H164.254ZM168.114 331.369V328.157H171.89V331.369H168.114Z" fill="#00964D"/>
<path d="M191.819 347.206V343.937H194.806V347.206H191.819ZM177.223 347.206V343.937H189.34L188.072 344.98V339.767C188.072 338.639 187.715 337.785 187.001 337.202C186.306 336.62 185.197 336.329 183.676 336.329C183.244 336.329 182.652 336.366 181.9 336.441C181.149 336.498 180.332 336.592 179.449 336.723L179.083 333.736C179.89 333.548 180.708 333.389 181.534 333.257C182.379 333.126 183.206 333.06 184.014 333.06C185.554 333.06 186.907 333.332 188.072 333.877C189.236 334.403 190.148 335.164 190.805 336.16C191.481 337.155 191.819 338.358 191.819 339.767V347.206H177.223ZM177.223 347.206C176.997 347.206 176.847 347.056 176.772 346.755C176.697 346.454 176.659 346.06 176.659 345.571C176.659 345.064 176.697 344.67 176.772 344.388C176.847 344.087 176.997 343.937 177.223 343.937V347.206ZM194.806 347.206V343.937C195.013 343.937 195.154 344.087 195.229 344.388C195.323 344.67 195.37 345.064 195.37 345.571C195.37 346.06 195.323 346.454 195.229 346.755C195.154 347.056 195.013 347.206 194.806 347.206Z" fill="#00964D"/>
<path d="M203.035 347.206V343.937H206.558V347.206H203.035ZM206.558 347.206V343.937C206.783 343.937 206.934 344.087 207.009 344.388C207.084 344.67 207.121 345.064 207.121 345.571C207.121 346.06 207.084 346.454 207.009 346.755C206.934 347.056 206.783 347.206 206.558 347.206ZM194.806 347.206V343.937H201.486L199.288 345.769V333.06H203.035V347.206H194.806ZM194.806 347.206C194.581 347.206 194.431 347.056 194.356 346.755C194.281 346.454 194.244 346.06 194.244 345.571C194.244 345.064 194.281 344.67 194.356 344.388C194.431 344.087 194.581 343.937 194.806 343.937V347.206ZM195.934 331.369V328.157H199.71V331.369H195.934ZM199.795 331.369V328.157H203.571V331.369H199.795Z" fill="#00964D"/>
<path d="M230.2 347.206V343.937H233.187V347.206H230.2ZM223.127 347.206C222.357 347.206 221.586 347.065 220.816 346.783C220.065 346.483 219.37 346.041 218.731 345.459L221.042 343.064C221.417 343.364 221.765 343.59 222.084 343.74C222.422 343.871 222.77 343.937 223.127 343.937H228.396L226.452 345.712V339.457C226.452 339.156 226.414 338.705 226.339 338.104C226.283 337.484 226.189 336.789 226.058 336.019C225.945 335.23 225.804 334.431 225.635 333.624L229.355 333.06C229.486 333.736 229.608 334.497 229.721 335.342C229.852 336.169 229.965 336.958 230.059 337.709C230.153 338.442 230.2 339.025 230.2 339.457V347.206H223.127ZM206.558 347.206V343.937H210.672L209.826 344.811V335.934H213.602V347.206H206.558ZM213.602 347.206V343.937H215.885C216.486 343.937 216.946 343.853 217.266 343.683C217.585 343.496 217.801 343.129 217.914 342.584C218.045 342.021 218.111 341.185 218.111 340.077V334.525H221.887V340.077C221.887 341.748 221.671 343.11 221.239 344.163C220.826 345.215 220.178 345.985 219.295 346.473C218.412 346.962 217.275 347.206 215.885 347.206H213.602ZM206.558 347.206C206.332 347.206 206.182 347.056 206.107 346.755C206.032 346.454 205.994 346.06 205.994 345.571C205.994 345.064 206.032 344.67 206.107 344.388C206.182 344.087 206.332 343.937 206.558 343.937V347.206ZM233.187 347.206V343.937C233.412 343.937 233.563 344.087 233.638 344.388C233.713 344.67 233.75 345.064 233.75 345.571C233.75 346.06 233.713 346.454 233.638 346.755C233.563 347.056 233.412 347.206 233.187 347.206Z" fill="#00964D"/>
<path d="M233.196 347.206V343.937H238.352L236.154 345.769V333.06H239.93V347.206H233.196ZM233.196 347.206C232.97 347.206 232.82 347.056 232.745 346.755C232.67 346.454 232.632 346.06 232.632 345.571C232.632 345.064 232.67 344.67 232.745 344.388C232.82 344.087 232.97 343.937 233.196 343.937V347.206ZM236.154 330.467V327.255H239.93V330.467H236.154Z" fill="#00964D"/>
<path d="M28 380.275V364.637H32.1212L37.1353 375.627H37.5474V364.637H40.707V380.275H36.6316L31.5717 369.102H31.1596V380.275H28Z" fill="#E4BF1A"/>
<path d="M49.7431 380.527C48.0793 380.527 46.759 380.237 45.7821 379.656C44.8205 379.061 44.126 378.168 43.6986 376.978C43.2865 375.787 43.0805 374.299 43.0805 372.513C43.0805 370.712 43.2865 369.209 43.6986 368.003C44.126 366.797 44.8205 365.889 45.7821 365.278C46.759 364.668 48.0793 364.362 49.7431 364.362C51.4068 364.362 52.7195 364.668 53.6811 365.278C54.658 365.889 55.3525 366.797 55.7646 368.003C56.192 369.209 56.4057 370.712 56.4057 372.513C56.4057 374.329 56.192 375.833 55.7646 377.024C55.3525 378.214 54.658 379.099 53.6811 379.679C52.7195 380.244 51.4068 380.527 49.7431 380.527ZM49.7431 377.871C50.7047 377.871 51.4297 377.68 51.9181 377.298C52.4218 376.901 52.7576 376.306 52.9255 375.512C53.0934 374.703 53.1774 373.704 53.1774 372.513C53.1774 371.323 53.0858 370.323 52.9026 369.514C52.7347 368.69 52.4066 368.071 51.9181 367.659C51.4297 367.232 50.7047 367.018 49.7431 367.018C48.7967 367.018 48.0717 367.232 47.568 367.659C47.0795 368.071 46.7437 368.69 46.5606 369.514C46.3774 370.323 46.2858 371.323 46.2858 372.513C46.2858 373.688 46.3698 374.673 46.5377 375.467C46.7208 376.26 47.0566 376.863 47.5451 377.275C48.0488 377.672 48.7814 377.871 49.7431 377.871Z" fill="#E4BF1A"/>
<path d="M64.6724 380.527C63.3902 380.527 62.2989 380.359 61.3983 380.023C60.513 379.687 59.8414 379.13 59.3835 378.351C58.9256 377.558 58.6966 376.505 58.6966 375.192V364.637H61.8562V375.306C61.8562 376.207 62.0928 376.856 62.566 377.252C63.0544 377.649 63.7565 377.848 64.6724 377.848C65.634 377.848 66.359 377.649 66.8474 377.252C67.3359 376.856 67.5801 376.207 67.5801 375.306V364.637H70.7397V375.146C70.7397 376.459 70.5031 377.512 70.0299 378.306C69.572 379.099 68.8928 379.672 67.9922 380.023C67.1069 380.359 66.0003 380.527 64.6724 380.527Z" fill="#E4BF1A"/>
<path d="M78.5603 380.527C77.9803 380.527 77.3468 380.488 76.66 380.412C75.9731 380.351 75.3015 380.275 74.6452 380.183C74.0041 380.076 73.4546 379.985 72.9967 379.908L73.2027 377.413C73.6759 377.474 74.2254 377.542 74.8512 377.619C75.477 377.68 76.0952 377.733 76.7058 377.779C77.3316 377.825 77.8734 377.848 78.3313 377.848C79.2014 377.848 79.8348 377.68 80.2317 377.344C80.6285 376.993 80.827 376.451 80.827 375.718C80.827 375.322 80.743 375.009 80.5751 374.78C80.4225 374.536 80.1401 374.345 79.728 374.207C79.3158 374.055 78.7435 373.91 78.0108 373.772C76.7897 373.543 75.7976 373.261 75.0344 372.925C74.2865 372.589 73.737 372.116 73.3859 371.506C73.0501 370.895 72.8822 370.079 72.8822 369.056C72.8822 367.865 73.1035 366.934 73.5462 366.263C73.9888 365.576 74.6223 365.087 75.4465 364.797C76.2707 364.507 77.24 364.362 78.3542 364.362C78.8579 364.362 79.4303 364.393 80.0714 364.454C80.7277 364.5 81.3688 364.561 81.9946 364.637C82.6357 364.713 83.1776 364.797 83.6202 364.889L83.4828 367.407C83.0249 367.346 82.4907 367.293 81.8801 367.247C81.2849 367.186 80.6896 367.133 80.0943 367.087C79.5143 367.041 79.0182 367.018 78.6061 367.018C77.7361 367.018 77.095 367.156 76.6829 367.43C76.2707 367.705 76.0647 368.148 76.0647 368.758C76.0647 369.216 76.1563 369.567 76.3394 369.811C76.5226 370.056 76.8279 370.254 77.2552 370.407C77.6979 370.559 78.3008 370.72 79.064 370.888C79.9646 371.086 80.7277 371.3 81.3535 371.529C81.9946 371.758 82.506 372.032 82.8875 372.353C83.2844 372.673 83.5744 373.085 83.7576 373.589C83.9407 374.093 84.0323 374.726 84.0323 375.49C84.0323 376.711 83.811 377.695 83.3684 378.443C82.941 379.176 82.3152 379.71 81.4909 380.046C80.6819 380.366 79.7051 380.527 78.5603 380.527Z" fill="#E4BF1A"/>
<path d="M91.2086 380.275V364.637H96.2914L99.451 375.077L102.542 364.637H107.693V380.275H104.534V368.69H104.213L100.939 379.863H97.9628L94.6888 368.69H94.3682V380.275H91.2086Z" fill="#E4BF1A"/>
<path d="M110.571 380.275V364.637H120.966V367.27H113.731V371.071H119.592V373.658H113.731V377.642H120.966V380.275H110.571ZM114.716 363.057L112.907 362.256L116.364 359.669L118.814 360.653L114.716 363.057Z" fill="#E4BF1A"/>
<path d="M123.182 380.275V364.637H129.295C130.547 364.637 131.592 364.797 132.432 365.118C133.286 365.438 133.92 365.973 134.332 366.721C134.759 367.468 134.973 368.483 134.973 369.766C134.973 370.895 134.767 371.849 134.355 372.628C133.958 373.391 133.347 373.956 132.523 374.322L134.973 380.275H131.653L129.593 375.032H126.341V380.275H123.182ZM126.341 372.444H129.364C129.944 372.444 130.409 372.338 130.76 372.124C131.111 371.895 131.363 371.582 131.516 371.185C131.668 370.773 131.745 370.307 131.745 369.789C131.745 368.934 131.546 368.293 131.15 367.865C130.753 367.438 130.134 367.224 129.295 367.224H126.341V372.444Z" fill="#E4BF1A"/>
<path d="M137.29 380.275V364.637H140.45V380.275H137.29Z" fill="#E4BF1A"/>
<path d="M146.372 380.275V367.316H142.159V364.637H153.607V367.316H149.531V380.275H146.372Z" fill="#E4BF1A"/>
<path d="M161.493 380.527C159.829 380.527 158.509 380.237 157.532 379.656C156.57 379.061 155.876 378.168 155.448 376.978C155.036 375.787 154.83 374.299 154.83 372.513C154.83 370.712 155.036 369.209 155.448 368.003C155.876 366.797 156.57 365.889 157.532 365.278C158.509 364.668 159.829 364.362 161.493 364.362C163.157 364.362 164.469 364.668 165.431 365.278C166.408 365.889 167.102 366.797 167.514 368.003C167.942 369.209 168.155 370.712 168.155 372.513C168.155 374.329 167.942 375.833 167.514 377.024C167.102 378.214 166.408 379.099 165.431 379.679C164.469 380.244 163.157 380.527 161.493 380.527ZM161.493 377.871C162.454 377.871 163.18 377.68 163.668 377.298C164.172 376.901 164.507 376.306 164.675 375.512C164.843 374.703 164.927 373.704 164.927 372.513C164.927 371.323 164.836 370.323 164.652 369.514C164.485 368.69 164.156 368.071 163.668 367.659C163.18 367.232 162.454 367.018 161.493 367.018C160.547 367.018 159.822 367.232 159.318 367.659C158.829 368.071 158.494 368.69 158.31 369.514C158.127 370.323 158.036 371.323 158.036 372.513C158.036 373.688 158.12 374.673 158.288 375.467C158.471 376.26 158.806 376.863 159.295 377.275C159.799 377.672 160.531 377.871 161.493 377.871Z" fill="#E4BF1A"/>
<path d="M170.538 380.275V364.637H174.659L179.673 375.627H180.085V364.637H183.245V380.275H179.17L174.11 369.102H173.698V380.275H170.538Z" fill="#E4BF1A"/>
<path d="M191.182 380.527C190.602 380.527 189.969 380.488 189.282 380.412C188.595 380.351 187.923 380.275 187.267 380.183C186.626 380.076 186.076 379.985 185.618 379.908L185.825 377.413C186.298 377.474 186.847 377.542 187.473 377.619C188.099 377.68 188.717 377.733 189.328 377.779C189.953 377.825 190.495 377.848 190.953 377.848C191.823 377.848 192.457 377.68 192.853 377.344C193.25 376.993 193.449 376.451 193.449 375.718C193.449 375.322 193.365 375.009 193.197 374.78C193.044 374.536 192.762 374.345 192.35 374.207C191.938 374.055 191.365 373.91 190.633 373.772C189.412 373.543 188.419 373.261 187.656 372.925C186.908 372.589 186.359 372.116 186.008 371.506C185.672 370.895 185.504 370.079 185.504 369.056C185.504 367.865 185.725 366.934 186.168 366.263C186.611 365.576 187.244 365.087 188.068 364.797C188.893 364.507 189.862 364.362 190.976 364.362C191.48 364.362 192.052 364.393 192.693 364.454C193.35 364.5 193.991 364.561 194.616 364.637C195.258 364.713 195.799 364.797 196.242 364.889L196.105 367.407C195.647 367.346 195.113 367.293 194.502 367.247C193.907 367.186 193.311 367.133 192.716 367.087C192.136 367.041 191.64 367.018 191.228 367.018C190.358 367.018 189.717 367.156 189.305 367.43C188.893 367.705 188.687 368.148 188.687 368.758C188.687 369.216 188.778 369.567 188.961 369.811C189.144 370.056 189.45 370.254 189.877 370.407C190.32 370.559 190.923 370.72 191.686 370.888C192.586 371.086 193.35 371.3 193.975 371.529C194.616 371.758 195.128 372.032 195.509 372.353C195.906 372.673 196.196 373.085 196.379 373.589C196.563 374.093 196.654 374.726 196.654 375.49C196.654 376.711 196.433 377.695 195.99 378.443C195.563 379.176 194.937 379.71 194.113 380.046C193.304 380.366 192.327 380.527 191.182 380.527Z" fill="#E4BF1A"/>
<path d="M203.83 380.275V364.637H208.913L212.073 375.077L215.164 364.637H220.315V380.275H217.156V368.69H216.835L213.561 379.863H210.585L207.311 368.69H206.99V380.275H203.83Z" fill="#E4BF1A"/>
<path d="M223.193 380.275V364.637H226.353V380.275H223.193Z" fill="#E4BF1A"/>
<path d="M229.253 380.275V364.637H239.647V367.27H232.412V371.071H238.273V373.658H232.412V377.642H239.647V380.275H229.253Z" fill="#E4BF1A"/>
<path d="M247.747 380.527C246.465 380.527 245.374 380.359 244.473 380.023C243.588 379.687 242.916 379.13 242.458 378.351C242 377.558 241.771 376.505 241.771 375.192V364.637H244.931V375.306C244.931 376.207 245.168 376.856 245.641 377.252C246.129 377.649 246.831 377.848 247.747 377.848C248.709 377.848 249.434 377.649 249.922 377.252C250.411 376.856 250.655 376.207 250.655 375.306V364.637H253.814V375.146C253.814 376.459 253.578 377.512 253.105 378.306C252.647 379.099 251.968 379.672 251.067 380.023C250.182 380.359 249.075 380.527 247.747 380.527Z" fill="#E4BF1A"/>
<path d="M255.316 380.275L259.574 372.673L255.316 364.637H258.659L261.635 370.384L264.772 364.637H268L263.719 372.376L267.908 380.275H264.543L261.612 374.688L258.59 380.275H255.316Z" fill="#E4BF1A"/>
<path d="M138.919 161.105C115.427 151.545 78.7254 185.492 78.7254 185.492C79.4029 191.253 80.7358 196.813 82.6474 202.097C87.9378 211.562 114.494 204.418 139.887 197.588C158.189 192.665 175.887 187.905 184.58 189.644C205.336 193.795 223.21 202.097 223.21 202.097C226.082 194.16 227.647 185.599 227.647 176.672C216.751 185.492 166.178 172.198 138.919 161.105Z" fill="#FEDB42"/>
<path fill-rule="evenodd" clip-rule="evenodd" d="M152.929 101.953C194.195 101.953 227.647 135.406 227.647 176.672C216.751 185.492 166.178 172.198 138.919 161.105C115.427 151.545 78.7254 185.492 78.7254 185.492C78.3851 182.6 78.2102 179.656 78.2102 176.672C78.2102 135.406 111.663 101.953 152.929 101.953Z" fill="url(#paint0_linear_171_1564)"/>
<path d="M82.6474 202.097C93.0497 230.846 120.59 251.39 152.929 251.39C185.268 251.39 212.808 230.846 223.21 202.097C223.21 202.097 205.336 193.795 184.58 189.644C175.887 187.905 158.189 192.665 139.887 197.588C114.494 204.418 87.9378 211.562 82.6474 202.097Z" fill="url(#paint1_linear_171_1564)"/>
<path d="M197.969 128.303C198.498 128.598 199.14 128.673 199.639 129.059C198.687 128.945 197.734 128.817 196.782 128.734C191.816 128.295 187.682 130.019 184.213 133.526C183.842 133.904 183.601 133.896 183.321 133.465C183.102 133.125 182.83 132.815 182.588 132.49C179.066 127.97 174.387 126.066 168.696 126.368C169.55 125.975 171.341 125.695 172.966 125.733C177.055 125.809 180.585 127.26 183.563 130.064C183.933 130.412 184.145 130.412 184.56 130.147C188.559 127.6 192.859 126.927 197.455 128.19C197.629 128.22 197.795 128.258 197.969 128.303ZM199.669 129.059H199.639L199.662 129.066L199.669 129.059ZM177.252 139.066C173.782 138.824 170.82 139.928 168.325 142.324C168.068 142.581 167.917 142.618 167.607 142.414C165.075 140.842 162.354 140.321 159.407 140.842C158.235 141.046 156.995 141.5 156.436 141.908C160.465 140.872 164.07 141.56 167.244 144.281C167.464 144.485 167.698 144.667 167.91 144.878C168.174 145.143 168.348 145.105 168.56 144.78C170.525 141.794 173.238 139.95 176.851 139.55C177.546 139.474 178.242 139.436 178.937 139.376C178.514 139.172 178.053 139.217 177.637 139.081C177.493 139.081 177.38 139.081 177.252 139.066ZM193.63 149.292C191.763 148.96 190.078 149.36 188.574 150.524C188.408 150.638 188.34 150.653 188.181 150.524C186.949 149.527 185.392 149.043 183.82 149.164C183.17 149.217 182.474 149.39 182.149 149.572C184.394 149.247 186.321 149.852 187.878 151.522C187.984 151.635 188.098 151.756 188.203 151.877C188.332 152.043 188.423 152.028 188.559 151.87C189.813 150.358 191.401 149.527 193.388 149.527C193.766 149.527 194.152 149.549 194.53 149.549C194.326 149.413 194.069 149.413 193.834 149.307C193.759 149.315 193.698 149.307 193.63 149.292Z" fill="#E0BB18"/>
<mask id="mask0_171_1564" style="mask-type:luminance" maskUnits="userSpaceOnUse" x="115" y="139" width="35" height="26">
<path d="M115.919 139.661H149.296V164.332H115.919V139.661Z" fill="white"/>
</mask>
<g mask="url(#mask0_171_1564)">
<path d="M120.695 149.495L120.484 148.981L120.544 147.31C120.552 147.31 120.915 148.58 120.695 149.495ZM149.492 141.944C149.455 141.4 148.918 140.954 148.918 140.954C148.192 140.425 146.96 140.576 146.96 140.576C146.068 140.689 145.305 140.206 145.305 140.206C144.481 139.677 143.627 140.274 143.627 140.274C142.758 139.979 142.584 140.591 142.584 140.591L142.667 140.795C142.509 140.848 142.456 141.203 142.456 141.203C142.471 141.483 142.274 141.921 142.274 141.921C141.942 142.481 141.45 144.438 141.45 144.438C141.14 145.814 139.863 145.844 139.863 145.844C138.472 145.814 137.732 144.091 137.732 144.091C136.885 142.307 133.635 141.483 133.635 141.483C132.819 141.347 132.116 140.871 132.116 140.871C130.786 139.79 129.221 139.979 129.221 139.979C127.49 140.047 126.032 142.156 126.032 142.156C125.631 142.307 123.137 143.002 123.137 143.002C122.456 143.108 122.041 143.909 122.041 143.909C121.912 144.355 121.512 144.627 121.512 144.627C118.64 146.169 119.796 148.769 119.796 148.769C120.37 150.077 120.03 151.392 120.03 151.392C119.879 151.724 119.796 152.253 119.796 152.253C119.395 153.244 117.831 154.642 117.831 154.642C117.052 155.194 117.241 156.229 117.241 156.229C117.37 156.985 117.309 159.011 117.309 159.011C117.158 160.855 116.372 161.467 116.372 161.467C116.251 161.565 116.191 161.656 116.16 161.732C116.153 161.777 116.153 161.83 116.145 161.89C116.145 161.913 116.138 161.943 116.138 161.973C116.092 162.858 116.629 163.493 116.629 163.493C117.219 164.15 117.324 162.858 117.324 162.858C117.37 162.102 117.944 161.739 117.944 161.739C118.239 161.505 118.02 160.772 118.02 160.772C118.088 159.441 118.337 158.232 118.337 158.232C118.677 156.501 119.652 155.572 119.652 155.572C119.947 155.322 121.345 153.901 121.345 153.901C121.353 154.891 120.952 156.448 120.952 156.448C120.665 157.227 120.96 157.703 120.96 157.703C121.096 157.945 121.255 158.519 121.633 159.222C122.018 159.933 122.676 162.48 122.676 162.48C122.63 162.956 122.955 163.553 122.955 163.553C122.865 164.127 123.968 164.135 123.968 164.135C125.215 164.264 125.155 163.78 125.155 163.78C125.162 163.583 124.49 163.515 124.49 163.515C124.097 163.341 123.908 162.933 123.908 162.933C123.908 162.639 123.515 162.14 123.515 162.14C123.144 161.422 122.842 159.555 122.842 159.555C122.812 159.358 122.766 158.844 122.766 158.844C122.774 158.587 122.736 156.743 122.736 156.743C122.713 156.599 122.865 155.897 122.865 155.897C122.97 155.519 123.054 154.226 123.054 154.226C123.038 154.113 123.182 153.848 123.182 153.848C123.515 153.682 124.248 152.306 124.248 152.306C124.724 151.838 124.641 151.535 124.641 151.535L124.626 150.84C125.797 149.729 127.233 150.817 127.233 150.817C128.004 151.422 130.612 151.566 130.612 151.566C131.118 151.566 131.602 151.898 131.602 151.898C131.383 152.117 130.801 153.682 130.801 153.682C130.468 154.861 129.539 156.69 129.539 156.69C129.191 157.053 129.251 157.695 129.251 157.695C129.214 159.033 127.966 161.55 127.966 161.55C127.725 161.8 127.74 162.306 127.74 162.306C127.732 162.623 127.384 163.213 127.384 163.213C126.568 164.059 128.458 163.939 128.458 163.939C129.728 163.969 129.455 163.576 129.455 163.576C129.335 163.281 128.866 163.115 128.866 163.115L128.851 162.873C128.979 162.616 129.168 161.595 129.168 161.595C129.516 159.555 130.506 158.398 130.506 158.398C131.239 158.036 131.065 157.31 131.065 157.31C131.353 155.942 132.894 153.977 132.894 153.977C133.242 153.561 133.869 152.435 133.869 152.435C134.036 151.86 134.988 151.528 134.988 151.528C135.29 151.724 135.54 152.541 135.54 152.541C135.767 153.501 136.56 156.501 136.56 156.501C136.719 158.557 137.55 159.222 137.55 159.222C137.83 159.91 138.782 163.387 138.782 163.387C138.283 164.203 139.931 163.939 139.931 163.939C141.722 164.203 141.428 163.727 141.428 163.727C141.072 163.009 139.961 162.616 139.961 162.616C138.918 161.18 138.608 159.079 138.608 159.079C138.933 157.166 138.283 157.121 138.283 157.121C137.754 155.912 137.679 151.49 137.679 151.49C137.671 151.188 137.845 150.916 137.845 150.916C137.981 150.87 138.571 150.152 138.571 150.152C138.797 150.235 139.629 150.122 139.629 150.122C139.538 150.659 141.027 150.258 141.027 150.258C145.245 148.399 145.517 144.484 145.517 144.484C145.781 144.468 146.681 143.72 146.681 143.72C146.9 143.418 147.414 142.949 147.414 142.949C147.754 142.957 148.117 142.692 148.117 142.692C149.455 143.032 149.235 142.428 149.235 142.428C149.636 142.42 149.492 141.944 149.492 141.944Z" fill="url(#paint2_linear_171_1564)"/>
</g>
<path d="M72.1968 179.45C72.1968 132.967 109.882 95.2816 156.373 95.2816C177.627 95.2816 197.036 103.165 211.851 116.157C195.736 91.1775 167.658 74.6324 135.724 74.6324C85.7261 74.6324 45.1987 115.167 45.1987 165.158C45.1987 208.595 75.7945 244.882 116.609 253.657C90.1703 239.463 72.1968 211.558 72.1968 179.45Z" fill="url(#paint3_linear_171_1564)"/>
<path fill-rule="evenodd" clip-rule="evenodd" d="M191.298 22.2588C190.804 19.9583 190.929 18.0827 192.703 18.1231C194.959 19.121 197.602 20.1579 200.541 21.3113C223.28 30.2347 263.784 46.1292 280.692 104.874C295.704 157.028 294.881 214.373 257.834 257.216C218.798 302.348 156.306 310.706 102.557 284.788C59.9151 264.225 44.5597 227.287 39.2205 183.57C50.5504 210.407 65.3615 239.519 93.6399 253.226C147.16 279.175 201.008 263.919 236.419 219.108C247.547 205.022 246.99 184.974 235.297 171.359C227.231 161.949 217.991 151.091 212.415 135.993C202.675 109.588 217.619 99.4009 212.543 89.1703C218.602 87.857 221.385 97.3628 224.332 107.429C227.565 118.474 230.996 130.195 239.171 129.036C262.963 125.668 244.18 50.1734 199.716 32.1302C195.462 30.4065 192.261 26.7408 191.298 22.2588Z" fill="url(#paint4_linear_171_1564)"/>
<path d="M199.983 59.7349C223.101 69.1532 239.26 94.0912 246.097 116.328C246.511 108.552 244.558 98.0609 240.511 87.5049C235.093 73.3921 227.062 61.2022 217.619 52.3426C207.821 47.8305 197.4 49.9955 192.898 45.7048C191.084 45.6626 190.998 47.6285 191.531 49.9955C192.54 54.4458 195.763 58.0156 199.983 59.7349Z" fill="url(#paint5_linear_171_1564)"/>
<defs>
<linearGradient id="paint0_linear_171_1564" x1="152.929" y1="101.953" x2="152.929" y2="251.39" gradientUnits="userSpaceOnUse">
<stop stop-color="#008343"/>
<stop offset="1" stop-color="#18FF8F"/>
</linearGradient>
<linearGradient id="paint1_linear_171_1564" x1="137.362" y1="201.059" x2="152.929" y2="251.39" gradientUnits="userSpaceOnUse">
<stop stop-color="#E3BD1A"/>
<stop offset="1" stop-color="#F4C90D"/>
</linearGradient>
<linearGradient id="paint2_linear_171_1564" x1="132.826" y1="139.966" x2="132.826" y2="164.157" gradientUnits="userSpaceOnUse">
<stop stop-color="#FEDB44"/>
<stop offset="1" stop-color="#FEDB44"/>
</linearGradient>
<linearGradient id="paint3_linear_171_1564" x1="128.525" y1="74.6324" x2="128.525" y2="253.657" gradientUnits="userSpaceOnUse">
<stop stop-color="#E56D6D"/>
<stop offset="1" stop-color="#EC3538"/>
</linearGradient>
<linearGradient id="paint4_linear_171_1564" x1="43.8008" y1="282.369" x2="262.123" y2="66.0505" gradientUnits="userSpaceOnUse">
<stop stop-color="#F5C700"/>
<stop offset="1" stop-color="#FAD947"/>
</linearGradient>
<linearGradient id="paint5_linear_171_1564" x1="240.209" y1="96.4986" x2="165.473" y2="16.6834" gradientUnits="userSpaceOnUse">
<stop stop-color="#E0B90D"/>
<stop offset="1" stop-color="#FAD947"/>
</linearGradient>
</defs>
</svg>
