<svg width="475" height="471" viewBox="0 0 475 471" fill="none" xmlns="http://www.w3.org/2000/svg">
<path d="M207.832 230.628C175.222 217.358 124.278 264.479 124.278 264.479C125.218 272.476 127.068 280.194 129.722 287.527C137.065 300.666 173.928 290.75 209.175 281.269C234.58 274.436 259.146 267.828 271.214 270.241C300.024 276.003 324.835 287.527 324.835 287.527C328.821 276.511 330.994 264.627 330.994 252.235C315.869 264.479 245.67 246.025 207.832 230.628Z" fill="#FEDB42"/>
<path fill-rule="evenodd" clip-rule="evenodd" d="M227.278 148.519C284.559 148.519 330.994 194.954 330.994 252.235C315.869 264.479 245.67 246.025 207.832 230.628C175.222 217.358 124.278 264.479 124.278 264.479C123.805 260.464 123.562 256.378 123.562 252.235C123.562 194.954 169.998 148.519 227.278 148.519Z" fill="url(#paint0_linear_177_31)"/>
<path d="M129.722 287.527C144.161 327.434 182.389 355.951 227.278 355.951C272.167 355.951 310.396 327.434 324.835 287.527C324.835 287.527 300.024 276.003 271.214 270.241C259.146 267.828 234.58 274.436 209.175 281.269C173.928 290.75 137.065 300.666 129.722 287.527Z" fill="url(#paint1_linear_177_31)"/>
<path d="M289.798 185.095C290.532 185.505 291.424 185.61 292.116 186.145C290.794 185.987 289.472 185.809 288.15 185.693C281.258 185.085 275.519 187.477 270.703 192.345C270.189 192.87 269.853 192.859 269.465 192.261C269.161 191.789 268.783 191.359 268.447 190.908C263.558 184.634 257.064 181.99 249.164 182.41C250.35 181.864 252.836 181.476 255.092 181.528C260.768 181.633 265.667 183.648 269.801 187.54C270.315 188.023 270.609 188.023 271.186 187.655C276.736 184.12 282.705 183.186 289.084 184.938C289.326 184.98 289.556 185.032 289.798 185.095ZM292.158 186.145H292.116L292.148 186.155L292.158 186.145ZM261.04 200.035C256.225 199.7 252.112 201.231 248.65 204.557C248.293 204.914 248.083 204.966 247.653 204.683C244.139 202.501 240.362 201.777 236.27 202.501C234.644 202.784 232.923 203.414 232.147 203.98C237.739 202.543 242.743 203.498 247.15 207.274C247.454 207.558 247.779 207.81 248.073 208.103C248.44 208.47 248.681 208.418 248.975 207.967C251.703 203.823 255.469 201.263 260.484 200.707C261.45 200.602 262.415 200.549 263.38 200.465C262.792 200.182 262.153 200.245 261.575 200.056C261.376 200.056 261.219 200.056 261.04 200.035ZM283.776 214.23C281.184 213.769 278.844 214.325 276.757 215.94C276.526 216.098 276.431 216.119 276.211 215.94C274.501 214.556 272.34 213.884 270.158 214.052C269.255 214.125 268.29 214.367 267.839 214.619C270.955 214.167 273.63 215.007 275.791 217.325C275.938 217.483 276.096 217.651 276.243 217.818C276.421 218.049 276.547 218.028 276.736 217.808C278.477 215.71 280.681 214.556 283.44 214.556C283.964 214.556 284.499 214.587 285.024 214.587C284.741 214.398 284.384 214.398 284.059 214.251C283.954 214.262 283.87 214.251 283.776 214.23Z" fill="#E0BB18"/>
<mask id="mask0_177_31" style="mask-type:luminance" maskUnits="userSpaceOnUse" x="175" y="200" width="48" height="36">
<path d="M175.905 200.862H222.236V235.106H175.905V200.862Z" fill="white"/>
</mask>
<g mask="url(#mask0_177_31)">
<path d="M182.536 214.511L182.242 213.798L182.326 211.479C182.336 211.479 182.84 213.241 182.536 214.511ZM222.508 204.03C222.456 203.275 221.711 202.656 221.711 202.656C220.704 201.921 218.994 202.131 218.994 202.131C217.756 202.288 216.696 201.617 216.696 201.617C215.552 200.882 214.367 201.711 214.367 201.711C213.16 201.302 212.919 202.152 212.919 202.152L213.034 202.435C212.814 202.509 212.741 203.002 212.741 203.002C212.762 203.39 212.489 203.998 212.489 203.998C212.027 204.775 211.345 207.492 211.345 207.492C210.915 209.402 209.142 209.444 209.142 209.444C207.212 209.402 206.183 207.01 206.183 207.01C205.008 204.534 200.497 203.39 200.497 203.39C199.364 203.201 198.388 202.54 198.388 202.54C196.542 201.04 194.37 201.302 194.37 201.302C191.967 201.397 189.943 204.324 189.943 204.324C189.387 204.534 185.924 205.499 185.924 205.499C184.98 205.646 184.403 206.758 184.403 206.758C184.225 207.377 183.669 207.754 183.669 207.754C179.682 209.895 181.287 213.504 181.287 213.504C182.084 215.319 181.612 217.144 181.612 217.144C181.403 217.606 181.287 218.34 181.287 218.34C180.731 219.715 178.559 221.656 178.559 221.656C177.479 222.422 177.741 223.859 177.741 223.859C177.919 224.908 177.835 227.72 177.835 227.72C177.626 230.28 176.534 231.13 176.534 231.13C176.367 231.266 176.283 231.392 176.241 231.497C176.23 231.56 176.23 231.633 176.22 231.717C176.22 231.749 176.209 231.79 176.209 231.832C176.146 233.06 176.891 233.941 176.891 233.941C177.71 234.854 177.856 233.06 177.856 233.06C177.919 232.011 178.717 231.507 178.717 231.507C179.126 231.182 178.822 230.164 178.822 230.164C178.916 228.318 179.262 226.639 179.262 226.639C179.734 224.237 181.088 222.946 181.088 222.946C181.497 222.6 183.438 220.628 183.438 220.628C183.448 222.002 182.892 224.163 182.892 224.163C182.494 225.244 182.903 225.905 182.903 225.905C183.092 226.24 183.312 227.038 183.837 228.014C184.372 229 185.284 232.535 185.284 232.535C185.221 233.196 185.673 234.025 185.673 234.025C185.547 234.823 187.078 234.833 187.078 234.833C188.81 235.011 188.726 234.34 188.726 234.34C188.736 234.067 187.802 233.973 187.802 233.973C187.257 233.731 186.995 233.165 186.995 233.165C186.995 232.756 186.449 232.063 186.449 232.063C185.935 231.067 185.515 228.475 185.515 228.475C185.473 228.202 185.41 227.489 185.41 227.489C185.421 227.132 185.368 224.572 185.368 224.572C185.337 224.373 185.547 223.397 185.547 223.397C185.694 222.873 185.809 221.079 185.809 221.079C185.788 220.921 185.987 220.554 185.987 220.554C186.449 220.323 187.467 218.414 187.467 218.414C188.128 217.763 188.012 217.344 188.012 217.344L187.991 216.378C189.617 214.836 191.611 216.347 191.611 216.347C192.681 217.186 196.3 217.386 196.3 217.386C197.003 217.386 197.675 217.847 197.675 217.847C197.371 218.152 196.563 220.323 196.563 220.323C196.101 221.96 194.811 224.499 194.811 224.499C194.328 225.002 194.412 225.894 194.412 225.894C194.36 227.751 192.628 231.245 192.628 231.245C192.293 231.591 192.314 232.294 192.314 232.294C192.303 232.735 191.821 233.553 191.821 233.553C190.688 234.728 193.31 234.56 193.31 234.56C195.073 234.602 194.695 234.057 194.695 234.057C194.527 233.647 193.877 233.417 193.877 233.417L193.856 233.081C194.034 232.724 194.297 231.308 194.297 231.308C194.779 228.475 196.154 226.87 196.154 226.87C197.171 226.366 196.93 225.359 196.93 225.359C197.329 223.46 199.469 220.732 199.469 220.732C199.952 220.155 200.822 218.592 200.822 218.592C201.053 217.795 202.375 217.333 202.375 217.333C202.795 217.606 203.141 218.739 203.141 218.739C203.456 220.071 204.557 224.237 204.557 224.237C204.778 227.09 205.932 228.014 205.932 228.014C206.32 228.968 207.642 233.794 207.642 233.794C206.949 234.927 209.236 234.56 209.236 234.56C211.723 234.927 211.314 234.266 211.314 234.266C210.821 233.27 209.278 232.724 209.278 232.724C207.831 230.731 207.4 227.814 207.4 227.814C207.852 225.16 206.949 225.097 206.949 225.097C206.215 223.418 206.11 217.281 206.11 217.281C206.1 216.861 206.341 216.483 206.341 216.483C206.53 216.42 207.348 215.424 207.348 215.424C207.663 215.539 208.817 215.382 208.817 215.382C208.691 216.127 210.758 215.571 210.758 215.571C216.612 212.99 216.99 207.555 216.99 207.555C217.357 207.534 218.605 206.495 218.605 206.495C218.91 206.076 219.623 205.425 219.623 205.425C220.095 205.436 220.599 205.069 220.599 205.069C222.456 205.541 222.152 204.701 222.152 204.701C222.708 204.691 222.508 204.03 222.508 204.03Z" fill="url(#paint2_linear_177_31)"/>
</g>
<path d="M115.215 256.092C115.215 191.57 167.526 139.259 232.059 139.259C261.561 139.259 288.504 150.202 309.067 168.237C286.699 133.562 247.723 110.596 203.397 110.596C133.995 110.596 77.7398 166.862 77.7398 236.253C77.7398 296.548 120.209 346.917 176.864 359.098C140.164 339.395 115.215 300.66 115.215 256.092Z" fill="url(#paint3_linear_177_31)"/>
<path fill-rule="evenodd" clip-rule="evenodd" d="M280.538 37.8974C279.852 34.704 280.026 32.1006 282.488 32.1566C285.62 33.5418 289.288 34.9811 293.368 36.5821C324.932 48.9685 381.155 71.0314 404.625 152.574C425.462 224.968 424.32 304.568 372.896 364.037C318.711 426.686 231.967 438.286 157.359 402.31C98.1674 373.767 76.8527 322.494 69.4414 261.81C85.1683 299.064 105.727 339.473 144.98 358.5C219.27 394.519 294.016 373.343 343.17 311.141C358.617 291.588 357.844 263.76 341.613 244.861C330.417 231.8 317.59 216.728 309.851 195.771C296.331 159.117 317.074 144.977 310.028 130.776C318.439 128.953 322.302 142.148 326.392 156.121C330.88 171.453 335.642 187.722 346.989 186.114C380.015 181.438 353.943 76.6452 292.223 51.5997C286.318 49.207 281.875 44.1187 280.538 37.8974Z" fill="url(#paint4_linear_177_31)"/>
<path d="M292.594 89.9174C324.683 102.991 347.113 137.607 356.604 168.473C357.178 157.68 354.467 143.117 348.849 128.464C341.329 108.875 330.182 91.9541 317.074 79.6562C303.473 73.3931 289.008 76.3982 282.759 70.4424C280.24 70.3838 280.121 73.1126 280.862 76.3982C282.261 82.5756 286.735 87.5308 292.594 89.9174Z" fill="url(#paint5_linear_177_31)"/>
<defs>
<linearGradient id="paint0_linear_177_31" x1="227.278" y1="148.519" x2="227.278" y2="355.951" gradientUnits="userSpaceOnUse">
<stop stop-color="#008343"/>
<stop offset="1" stop-color="#18FF8F"/>
</linearGradient>
<linearGradient id="paint1_linear_177_31" x1="205.671" y1="286.087" x2="227.278" y2="355.951" gradientUnits="userSpaceOnUse">
<stop stop-color="#E3BD1A"/>
<stop offset="1" stop-color="#F4C90D"/>
</linearGradient>
<linearGradient id="paint2_linear_177_31" x1="199.374" y1="201.285" x2="199.374" y2="234.863" gradientUnits="userSpaceOnUse">
<stop stop-color="#FEDB44"/>
<stop offset="1" stop-color="#FEDB44"/>
</linearGradient>
<linearGradient id="paint3_linear_177_31" x1="193.403" y1="110.596" x2="193.403" y2="359.098" gradientUnits="userSpaceOnUse">
<stop stop-color="#E56D6D"/>
<stop offset="1" stop-color="#EC3538"/>
</linearGradient>
<linearGradient id="paint4_linear_177_31" x1="75.7993" y1="398.953" x2="378.849" y2="98.6839" gradientUnits="userSpaceOnUse">
<stop stop-color="#F5C700"/>
<stop offset="1" stop-color="#FAD947"/>
</linearGradient>
<linearGradient id="paint5_linear_177_31" x1="348.431" y1="140.948" x2="244.691" y2="30.1582" gradientUnits="userSpaceOnUse">
<stop stop-color="#E0B90D"/>
<stop offset="1" stop-color="#FAD947"/>
</linearGradient>
</defs>
</svg>
