<svg width="253" height="124" viewBox="0 0 253 124" fill="none" xmlns="http://www.w3.org/2000/svg">
<path d="M37.444 101.735C31.3399 103.02 26.1514 103.662 21.8785 103.662C14.8427 103.662 9.42927 102.361 5.63829 99.7601C1.87943 97.159 0 93.5141 0 88.8255C0 81.5358 6.5539 74.2621 19.6617 67.0045C24.1916 64.5318 26.6172 62.7495 26.9385 61.6576C26.0068 61.1117 21.9106 60.341 14.6499 59.3455C12.9793 59.1207 12.144 58.1894 12.144 56.5516C12.144 55.6846 12.4492 54.946 13.0596 54.3358C13.5094 53.8541 14.1037 53.6132 14.8427 53.6132C15.0354 53.6132 15.2282 53.6293 15.421 53.6614C18.2803 54.0468 21.1396 54.4161 23.9989 54.7693C28.1111 55.6043 30.6491 56.7604 31.613 58.2376C32.3197 59.3294 32.6731 60.4052 32.6731 61.465C32.6731 64.0019 30.3439 66.844 25.6855 69.9911C21.3805 72.817 17.0755 75.643 12.7705 78.469C8.11206 82.0015 5.78286 85.4536 5.78286 88.8255C5.78286 94.8629 11.1481 97.8815 21.8785 97.8815C25.8301 97.8815 31.0186 97.5283 37.444 96.8218C42.8413 96.2116 46.8251 95.6336 49.3952 95.0876C51.0658 94.7344 52.3991 94.5578 53.395 94.5578C54.4552 94.5578 54.9853 94.7344 54.9853 95.0876C54.9853 95.2161 54.889 95.3927 54.6962 95.6175C54.0215 96.3561 52.2706 97.2874 49.4434 98.4114C46.6484 99.5353 42.6486 100.643 37.444 101.735ZM16.7703 32.7075L15.1318 35.3568C14.5535 36.2881 13.7664 36.7537 12.7705 36.7537C11.9673 36.7537 11.2605 36.4808 10.6501 35.9348C10.0397 35.3568 9.73448 34.6664 9.73448 33.8635C9.73448 33.3497 9.89511 32.8199 10.2164 32.2739L11.8549 29.6246C12.4331 28.6933 13.2203 28.2276 14.2162 28.2276C15.0194 28.2276 15.7262 28.5167 16.3366 29.0947C16.947 29.6406 17.2522 30.315 17.2522 31.1178C17.2522 31.6317 17.0916 32.1615 16.7703 32.7075Z" fill="#EC3538"/>
<path d="M44.3834 59.3937C40.3033 59.3937 37.3637 57.9646 35.5646 55.1065C31.5808 57.9646 27.5007 59.3937 23.3242 59.3937C21.3966 59.3937 20.4328 58.4303 20.4328 56.5035C20.4328 54.5766 21.3966 53.6132 23.3242 53.6132C27.6935 53.6132 31.7736 51.5419 35.5646 47.3993C36.3356 46.5323 37.187 46.0987 38.1187 46.0987C39.8214 46.0987 40.6728 47.014 40.6728 48.8444C40.6728 49.1334 40.6085 49.5027 40.48 49.9523C40.3515 50.3698 40.2872 50.6909 40.2872 50.9157C40.2872 52.7141 41.6526 53.6132 44.3834 53.6132C46.311 53.6132 47.2749 54.5766 47.2749 56.5035C47.2749 58.4303 46.311 59.3937 44.3834 59.3937ZM41.5402 74.8562C38.8415 76.0123 35.5967 76.5904 31.8057 76.5904C28.3681 76.5904 26.6493 75.8678 26.6493 74.4227C26.6493 73.3951 28.1111 72.6565 31.0347 72.2069C33.0265 71.9179 35.7734 71.0347 39.2752 69.5575C39.6929 69.3649 40.1105 69.2685 40.5282 69.2685C42.3916 69.2685 43.3232 70.2801 43.3232 72.3032C43.3232 73.5235 42.7289 74.3745 41.5402 74.8562Z" fill="#EC3538"/>
<path d="M48.6724 59.3937H41.4438C39.5162 59.3937 38.5524 58.4303 38.5524 56.5035C38.5524 54.5766 39.5162 53.6132 41.4438 53.6132H48.6724C50.6 53.6132 51.5638 54.5766 51.5638 56.5035C51.5638 58.4303 50.6 59.3937 48.6724 59.3937Z" fill="#EC3538"/>
<path d="M95.4171 58.912C90.7266 58.912 87.6585 57.2421 86.2128 53.9023C86.02 53.4527 85.9236 53.0031 85.9236 52.5535C85.9236 51.7186 86.2128 51.0281 86.7911 50.4822C87.3693 49.9042 88.0279 49.6151 88.7669 49.6151C89.7949 49.6151 90.5499 50.1611 91.0318 51.2529C91.578 52.5053 93.0397 53.1315 95.4171 53.1315C97.3448 53.1315 98.3086 54.0949 98.3086 56.0218C98.3086 57.9486 97.3448 58.912 95.4171 58.912ZM93.6341 48.6999C92.7988 51.5259 91.2728 53.9344 89.056 55.9254C86.5822 58.1733 83.8193 59.2973 80.7672 59.2973C78.7111 59.2973 76.655 58.7514 74.5989 57.6595C73.5708 57.1457 73.0568 56.3589 73.0568 55.2992C73.0568 54.4964 73.3459 53.7738 73.9242 53.1315C74.5025 52.4893 75.1771 52.1681 75.9482 52.1681C76.4622 52.1681 76.9602 52.3127 77.4421 52.6017C78.6308 53.3082 79.8034 53.6614 80.96 53.6614C84.3976 53.6614 86.7589 51.4617 88.044 47.0621C88.4617 45.6812 89.3612 44.9908 90.7427 44.9908C92.7345 44.9908 93.7305 45.9221 93.7305 47.7847C93.7305 48.0737 93.6984 48.3788 93.6341 48.6999ZM82.1166 50.145C80.8957 53.0031 79.0806 55.4116 76.671 57.3705C74.0366 59.5221 71.2737 60.5979 68.3823 60.5979C64.3664 60.5979 61.6356 58.5426 60.1899 54.4321C60.0614 54.0468 59.9971 53.6935 59.9971 53.3724C59.9971 51.5098 61.0091 50.5785 63.0331 50.5785C64.3504 50.5785 65.2338 51.2208 65.6836 52.5053C66.2619 54.1752 67.2578 55.0102 68.6714 55.0102C70.3742 55.0102 72.0287 54.1913 73.635 52.5535C74.9844 51.2369 76.0446 49.6954 76.8156 47.9292C77.2975 46.741 78.1489 46.1469 79.3697 46.1469C81.3616 46.1469 82.3575 47.0782 82.3575 48.9408C82.3575 49.3261 82.2772 49.7275 82.1166 50.145ZM69.4425 50.9639C65.1053 56.5837 59.0333 59.3937 51.2265 59.3937C50.4233 59.3937 49.6041 59.3615 48.7688 59.2973C46.8411 59.2973 45.8773 58.3339 45.8773 56.4071C45.8773 54.4803 46.8411 53.5169 48.7688 53.5169C49.6041 53.5811 50.4233 53.6132 51.2265 53.6132C57.1057 53.6132 61.6356 51.5419 64.8162 47.3993C65.4266 46.6286 66.1816 46.2432 67.0811 46.2432C67.8522 46.2432 68.5429 46.5323 69.1533 47.1103C69.7637 47.6883 70.069 48.3788 70.069 49.1816C70.069 49.7918 69.8601 50.3859 69.4425 50.9639ZM85.0562 29.8173C85.4096 30.3632 85.5863 30.9091 85.5863 31.455C85.5863 32.2579 85.2811 32.9483 84.6707 33.5263C84.0603 34.0723 83.3535 34.3452 82.5503 34.3452C81.5865 34.3452 80.8154 33.9117 80.2371 33.0446C79.0806 31.3105 78.1007 30.4435 77.2975 30.4435C76.5265 30.4435 75.3699 31.1178 73.8278 32.4666C72.5749 33.5906 71.611 34.6343 70.9364 35.5977C69.587 37.4281 68.4787 38.3433 67.6112 38.3433C67.0972 38.3433 66.8402 37.958 66.8402 37.1873C66.8402 36.1918 67.2739 34.8912 68.1413 33.2855C71.1613 27.6657 74.4222 24.8557 77.924 24.8557C80.462 24.8557 82.8394 26.5096 85.0562 29.8173Z" fill="#EC3538"/>
<path d="M111.609 46.6286C111.673 47.3993 111.706 48.1219 111.706 48.7962C111.706 52.7783 109.601 55.5561 105.393 57.1297C101.377 58.639 98.0837 59.3937 95.5135 59.3937C93.5859 59.3937 92.6221 58.4303 92.6221 56.5035C92.6221 54.5766 93.5859 53.6132 95.5135 53.6132C97.7624 53.6132 100.188 53.0834 102.79 52.0236C104.268 51.4135 105.184 50.8033 105.537 50.1932C105.794 49.7115 105.923 48.9247 105.923 47.8328C105.923 47.5117 105.907 47.1585 105.874 46.7731C105.264 40.6716 104.445 31.2142 103.417 18.401V18.0156C103.417 17.0201 103.77 16.153 104.477 15.4144C105.28 14.5795 106.131 14.162 107.031 14.162C108.188 14.162 108.83 14.8364 108.959 16.1851C110.308 32.4987 111.191 42.6465 111.609 46.6286Z" fill="#EC3538"/>
<path d="M124.187 47.3993C124.251 48.1058 124.283 48.7962 124.283 49.4706C124.283 53.7417 123.593 55.8772 122.211 55.8772C121.183 55.8772 120.332 54.2234 119.657 50.9157C119.304 49.1495 118.757 45.0872 118.018 38.7287C117.537 34.554 116.99 29.2874 116.38 22.9289V22.5917C116.38 21.1466 116.749 19.9263 117.488 18.9308C118.195 17.9674 118.998 17.4857 119.898 17.4857C120.99 17.4857 121.601 18.2083 121.729 19.6534C122.34 26.1403 123.159 35.3889 124.187 47.3993Z" fill="#EC3538"/>
<path d="M187.606 59.3937C183.686 59.3937 180.923 58.1733 179.317 55.7327C179.156 55.5079 178.819 54.7212 178.305 53.3724C177.951 52.4411 177.582 51.9755 177.196 51.9755C176.747 51.9755 176.2 52.4251 175.558 53.3242C174.337 55.1226 172.442 57.4187 169.871 60.2125C166.562 62.5568 159.864 63.729 149.776 63.729C147.431 63.729 146.258 63.1991 146.258 62.1393C146.258 61.0475 147.479 60.2447 149.921 59.7308C152.619 59.3455 155.302 58.9601 157.968 58.5748C162.691 57.6435 165.984 56.2626 167.847 54.4321C169.293 52.5696 170.739 50.723 172.185 48.8926C174.273 46.3556 176.072 45.0872 177.582 45.0872C179.349 45.0872 180.891 46.5162 182.208 49.3743C183.525 52.2003 185.325 53.6132 187.606 53.6132C189.533 53.6132 190.497 54.5766 190.497 56.5035C190.497 58.4303 189.533 59.3937 187.606 59.3937Z" fill="#EC3538"/>
<path d="M246.88 0H247.651C250.446 0 252.197 1.05974 252.904 3.17922L253 4.3353C253 7.32185 252.213 9.34499 250.639 10.4047C248.775 11.625 245.177 13.0701 239.844 14.74C234.061 16.3457 230.174 17.9835 228.182 19.6534C228.182 19.7497 228.086 19.7979 227.893 19.7979V19.9906H227.989C231.298 20.1511 234.431 20.97 237.386 22.4472C238.961 23.7318 239.748 25.1448 239.748 26.6862V27.3124C239.748 30.3311 237.033 32.9965 231.603 35.3086C227.78 36.818 222.704 38.6003 216.375 40.6555C213.709 41.7153 211.604 42.7589 210.062 43.7866C211.894 44.4609 212.809 45.6491 212.809 47.3511C212.809 51.269 208.922 54.4964 201.147 57.0333C197.26 58.2857 194.465 58.9922 192.762 59.1528C191.059 59.2813 190.031 59.3455 189.678 59.3455H188.184C186.738 59.1207 186.015 58.4463 186.015 57.3223C185.951 57.3223 185.919 57.0975 185.919 56.648V56.4553C185.919 55.1707 186.417 54.2876 187.413 53.8059C188.216 53.6775 188.875 53.6132 189.389 53.6132H191.268C192.842 53.6132 195.573 52.8425 199.46 51.3011L199.364 50.145V49.856C199.364 46.2914 200.826 43.4494 203.749 41.3299C205.966 39.5637 208.408 38.0864 211.074 36.8982C214.126 35.6458 220.15 33.4621 229.146 30.3471C232.294 28.902 233.949 27.8423 234.109 27.1679C231.732 26.3972 227.411 25.6104 221.146 24.8076C220.022 24.2938 219.459 23.4428 219.459 22.2546V21.8692C219.909 19.8782 221.853 17.5018 225.29 14.74C227.925 12.9417 230.961 11.4484 234.398 10.2602L239.362 8.71878V8.5261C239.362 4.86517 240.744 2.24794 243.506 0.67438C244.599 0.224794 245.723 0 246.88 0Z" fill="#EC3538"/>
<path d="M65.5186 87.2422C65.1765 87.2159 64.6764 87.2027 64.0185 87.2027C63.321 87.2027 62.7289 87.2159 62.242 87.2422L62.3012 78.541C62.3012 78.4358 62.2814 78.3832 62.242 78.3832C62.2157 78.3832 62.1564 78.5674 62.0643 78.9357L61.9064 79.567C61.538 80.9482 61.005 83.0593 60.3076 85.9005C60.2023 86.2951 60.0839 86.7423 59.9523 87.2422C58.939 87.1633 57.8863 87.1633 56.7941 87.2422C56.7019 86.8607 56.5967 86.4266 56.4782 85.94C55.9387 83.6644 55.3992 81.5401 54.8597 79.567L54.7017 78.9948C54.5833 78.5871 54.5109 78.3832 54.4846 78.3832C54.4451 78.3832 54.4254 78.4358 54.4254 78.541L54.4451 79.2119L54.4846 87.2422C54.024 87.2159 53.4977 87.2027 52.9055 87.2027C52.3397 87.2027 51.8528 87.2159 51.4448 87.2422C51.4712 85.2297 51.4843 82.8817 51.4843 80.1984C51.4843 77.7913 51.4712 75.5683 51.4448 73.5295C51.958 73.5558 52.7147 73.569 53.7148 73.569C54.886 73.569 55.7413 73.5558 56.2808 73.5295C57.0178 76.9363 57.577 79.3895 57.9586 80.889C58.0902 81.4283 58.2284 82.0202 58.3732 82.6647C58.3995 82.7831 58.4258 82.8423 58.4521 82.8423C58.4916 82.8423 58.5179 82.7831 58.5311 82.6647C58.5837 82.2438 58.7153 81.6519 58.9258 80.889C59.4785 78.8896 60.0707 76.4365 60.7023 73.5295C61.4129 73.5558 62.2486 73.569 63.2092 73.569C63.9987 73.569 64.7685 73.5558 65.5186 73.5295C65.4923 74.9633 65.4791 77.1796 65.4791 80.1787C65.4791 82.4279 65.4923 84.7824 65.5186 87.2422Z" fill="#EC3538"/>
<path d="M91.6155 80.3365C91.6155 82.9146 91.2339 84.7496 90.4706 85.8413C89.7206 86.9331 88.4836 87.4789 86.7597 87.4789C85.0227 87.4789 83.7726 86.887 83.0094 85.7032C82.2856 84.5851 81.9237 82.8291 81.9237 80.4352C81.9237 77.9754 82.2593 76.1931 82.9304 75.0882C83.6805 73.8649 84.9438 73.2533 86.7203 73.2533C88.4704 73.2533 89.7206 73.8123 90.4706 74.9304C91.2339 76.0353 91.6155 77.8373 91.6155 80.3365ZM88.2007 80.5338C88.2007 78.5739 88.1086 77.298 87.9243 76.7061C87.7401 76.101 87.3651 75.7985 86.7992 75.7985C86.0491 75.7985 85.5886 76.443 85.4175 77.7321C85.378 77.9952 85.3583 78.962 85.3583 80.6325C85.3583 82.2504 85.457 83.3684 85.6544 83.9867C85.8518 84.6049 86.2268 84.914 86.7795 84.914C87.3322 84.914 87.7072 84.5983 87.9046 83.9669C88.102 83.3355 88.2007 82.1912 88.2007 80.5338Z" fill="#EC3538"/>
<path d="M117.327 87.2422C116.958 87.2159 116.458 87.2027 115.827 87.2027C115.129 87.2027 114.498 87.2159 113.932 87.2422C113.932 86.9265 113.938 86.1504 113.952 84.914C113.952 83.6907 113.952 82.816 113.952 82.2898V81.9544C113.952 81.8097 113.866 81.7308 113.695 81.7176C113.524 81.7045 113.182 81.6979 112.668 81.6979C112.34 81.6979 111.978 81.7111 111.583 81.7374C111.451 81.7505 111.385 81.8229 111.385 81.9544V82.2701C111.385 82.7436 111.405 84.401 111.445 87.2422C111.01 87.2159 110.458 87.2027 109.787 87.2027C109.102 87.2027 108.504 87.2159 107.99 87.2422C107.99 86.6108 107.997 85.4664 108.01 83.8091C108.023 82.1386 108.03 80.8824 108.03 80.0406C108.03 79.1987 108.023 78.0675 108.01 76.6469C107.997 75.2263 107.99 74.1872 107.99 73.5295C108.859 73.5558 109.425 73.569 109.688 73.569C110.07 73.569 110.642 73.5558 111.405 73.5295C111.392 74.4371 111.385 76.0945 111.385 78.5016V78.8567C111.385 79.0146 111.458 79.1001 111.603 79.1132C111.826 79.1264 112.182 79.133 112.668 79.133C113.405 79.133 113.8 79.1132 113.853 79.0738C113.919 79.0343 113.952 78.9685 113.952 78.8765V78.5016C113.952 77.9491 113.952 77.1205 113.952 76.0156C113.938 74.9238 113.932 74.0951 113.932 73.5295C114.34 73.5558 114.906 73.569 115.629 73.569C116.353 73.569 116.919 73.5558 117.327 73.5295L117.287 80.376C117.287 81.8229 117.301 84.1116 117.327 87.2422Z" fill="#EC3538"/>
<path d="M144.346 87.2422C143.952 87.2159 143.366 87.2027 142.59 87.2027C141.853 87.2027 141.3 87.2159 140.932 87.2422C140.813 86.4003 140.668 85.6243 140.497 84.914C140.458 84.7693 140.339 84.6904 140.142 84.6772C139.958 84.6641 139.477 84.6575 138.701 84.6575C137.964 84.6575 137.51 84.6641 137.339 84.6772C137.181 84.6904 137.089 84.7561 137.063 84.8745C136.905 85.5191 136.74 86.3083 136.569 87.2422C136.227 87.2159 135.694 87.2027 134.97 87.2027C134.207 87.2027 133.654 87.2159 133.312 87.2422C134.076 84.1642 135.155 79.5802 136.55 73.4901C137.115 73.5164 137.826 73.5295 138.681 73.5295C139.037 73.5295 139.458 73.5229 139.945 73.5098C140.616 73.4966 141.043 73.4901 141.228 73.4901C141.951 77.0284 142.991 81.6124 144.346 87.2422ZM139.885 82.1123C139.885 82.086 139.879 82.0333 139.866 81.9544C139.589 80.4023 139.3 78.8962 138.997 77.4361C138.984 77.3572 138.958 77.1796 138.918 76.9034C138.879 76.6272 138.839 76.4891 138.8 76.4891C138.773 76.4891 138.741 76.6338 138.701 76.9232C138.688 77.0284 138.662 77.206 138.622 77.4559C138.398 78.4555 138.069 79.9748 137.635 82.0136C137.622 82.0794 137.615 82.1123 137.615 82.1123C137.615 82.2175 137.681 82.2701 137.813 82.2701C137.892 82.2701 138.05 82.2635 138.287 82.2504C138.523 82.2504 138.694 82.2504 138.8 82.2504C138.905 82.2504 139.05 82.2504 139.234 82.2504C139.418 82.2635 139.57 82.2701 139.688 82.2701C139.82 82.2701 139.885 82.2175 139.885 82.1123Z" fill="#EC3538"/>
<path d="M174.388 87.2422C174.046 87.2159 173.546 87.2027 172.888 87.2027C172.191 87.2027 171.598 87.2159 171.112 87.2422L171.171 78.541C171.171 78.4358 171.151 78.3832 171.112 78.3832C171.085 78.3832 171.026 78.5674 170.934 78.9357L170.776 79.567C170.408 80.9482 169.875 83.0593 169.177 85.9005C169.072 86.2951 168.953 86.7423 168.822 87.2422C167.809 87.1633 166.756 87.1633 165.664 87.2422C165.572 86.8607 165.466 86.4266 165.348 85.94C164.808 83.6644 164.269 81.5401 163.729 79.567L163.571 78.9948C163.453 78.5871 163.381 78.3832 163.354 78.3832C163.315 78.3832 163.295 78.4358 163.295 78.541L163.315 79.2119L163.354 87.2422C162.894 87.2159 162.367 87.2027 161.775 87.2027C161.209 87.2027 160.722 87.2159 160.314 87.2422C160.341 85.2297 160.354 82.8817 160.354 80.1984C160.354 77.7913 160.341 75.5683 160.314 73.5295C160.828 73.5558 161.584 73.569 162.584 73.569C163.756 73.569 164.611 73.5558 165.15 73.5295C165.887 76.9363 166.447 79.3895 166.828 80.889C166.96 81.4283 167.098 82.0202 167.243 82.6647C167.269 82.7831 167.295 82.8423 167.322 82.8423C167.361 82.8423 167.388 82.7831 167.401 82.6647C167.453 82.2438 167.585 81.6519 167.795 80.889C168.348 78.8896 168.94 76.4365 169.572 73.5295C170.283 73.5558 171.118 73.569 172.079 73.569C172.868 73.569 173.638 73.5558 174.388 73.5295C174.362 74.9633 174.349 77.1796 174.349 80.1787C174.349 82.4279 174.362 84.7824 174.388 87.2422Z" fill="#EC3538"/>
<path d="M198.689 87.2224C197.82 87.1961 196.564 87.183 194.919 87.183C193.287 87.183 192.063 87.1961 191.247 87.2224C191.247 86.6963 191.254 85.6966 191.267 84.2234C191.28 82.7502 191.287 81.5861 191.287 80.7311C191.287 78.6923 191.274 76.2918 191.247 73.5295C192.511 73.5558 193.702 73.569 194.82 73.569C195.452 73.569 196.662 73.5558 198.452 73.5295C198.439 73.7531 198.432 74.2069 198.432 74.8909C198.432 75.5618 198.439 76.009 198.452 76.2326C196.689 76.2063 195.478 76.1931 194.82 76.1931C194.649 76.1931 194.563 76.2326 194.563 76.3115C194.537 76.6404 194.524 77.3506 194.524 78.4424V78.8567C194.524 79.0409 194.629 79.133 194.84 79.133H195.175C196.031 79.133 197.064 79.1198 198.274 79.0935C198.261 79.396 198.255 79.8433 198.255 80.4352C198.255 81.0271 198.261 81.4743 198.274 81.7768C196.958 81.7505 195.925 81.7374 195.175 81.7374H194.8C194.616 81.7374 194.524 81.8295 194.524 82.0136V82.349C194.524 83.2961 194.531 83.9275 194.544 84.2432C194.544 84.3878 194.636 84.4602 194.82 84.4602C195.636 84.4602 196.926 84.447 198.689 84.4207C198.663 84.9732 198.649 85.4467 198.649 85.8413C198.649 86.3675 198.663 86.8278 198.689 87.2224Z" fill="#EC3538"/>
<path d="M224.797 80.4352C224.797 84.96 223.178 87.2224 219.941 87.2224C219.678 87.2224 219.244 87.2159 218.638 87.2027C218.046 87.1896 217.605 87.183 217.316 87.183C216.513 87.183 215.789 87.1961 215.144 87.2224C215.184 85.1836 215.204 82.9278 215.204 80.4549C215.204 77.9689 215.184 75.6604 215.144 73.5295C215.526 73.5427 216.098 73.5492 216.862 73.5492C217.099 73.5492 218.046 73.5427 219.704 73.5295C223.099 73.5032 224.797 75.8051 224.797 80.4352ZM221.263 80.4944C221.263 78.9554 221.138 77.8505 220.888 77.1796C220.586 76.4167 220.079 76.0353 219.369 76.0353H218.993C218.796 76.0353 218.678 76.0484 218.638 76.0747C218.599 76.101 218.579 76.1865 218.579 76.3312C218.553 76.9232 218.539 77.8768 218.539 79.1922V80.0011C218.539 81.961 218.553 83.4474 218.579 84.4602C218.579 84.618 218.691 84.697 218.915 84.697H219.428C220.652 84.697 221.263 83.2961 221.263 80.4944Z" fill="#EC3538"/>
<path d="M81.3889 119.166C81.3889 119.416 81.356 119.797 81.2902 120.31C80.9744 122.77 79.4545 124 76.7306 124C75.0462 124 73.8092 123.448 73.0197 122.343C72.2301 121.238 71.8353 119.488 71.8353 117.094C71.8353 114.569 72.2235 112.714 72.9999 111.53C73.7763 110.347 75.0199 109.755 76.7306 109.755C79.4282 109.755 80.9349 111.004 81.2508 113.503C81.3297 114.135 81.3692 114.694 81.3692 115.18V115.279C80.8428 115.24 80.2375 115.22 79.5532 115.22C78.9874 115.22 78.461 115.233 77.9741 115.259V114.944C77.9741 113.181 77.5793 112.3 76.7898 112.3C76.2766 112.3 75.9081 112.583 75.6844 113.148C75.4081 113.872 75.2699 115.22 75.2699 117.193C75.2699 118.785 75.3686 119.87 75.566 120.449C75.7765 121.08 76.1845 121.396 76.7898 121.396C77.5925 121.396 78.0399 120.771 78.132 119.521C78.1452 119.284 78.1583 119.028 78.1715 118.752C78.9479 118.831 79.744 118.87 80.5599 118.87C80.7705 118.87 81.0468 118.864 81.3889 118.85V119.166Z" fill="#EC3538"/>
<path d="M107.065 123.743C106.697 123.717 106.196 123.704 105.565 123.704C104.867 123.704 104.236 123.717 103.67 123.743C103.67 123.428 103.676 122.652 103.69 121.415C103.69 120.192 103.69 119.317 103.69 118.791V118.456C103.69 118.311 103.604 118.232 103.433 118.219C103.262 118.206 102.92 118.199 102.407 118.199C102.078 118.199 101.716 118.212 101.321 118.239C101.189 118.252 101.124 118.324 101.124 118.456V118.771C101.124 119.245 101.143 120.902 101.183 123.743C100.749 123.717 100.196 123.704 99.5247 123.704C98.8405 123.704 98.2417 123.717 97.7285 123.743C97.7285 123.112 97.7351 121.968 97.7483 120.31C97.7614 118.64 97.768 117.384 97.768 116.542C97.768 115.7 97.7614 114.569 97.7483 113.148C97.7351 111.728 97.7285 110.689 97.7285 110.031C98.597 110.057 99.1629 110.07 99.4261 110.07C99.8077 110.07 100.38 110.057 101.143 110.031C101.13 110.938 101.124 112.596 101.124 115.003V115.358C101.124 115.516 101.196 115.601 101.341 115.615C101.564 115.628 101.92 115.634 102.407 115.634C103.144 115.634 103.538 115.615 103.591 115.575C103.657 115.536 103.69 115.47 103.69 115.378V115.003C103.69 114.45 103.69 113.622 103.69 112.517C103.676 111.425 103.67 110.596 103.67 110.031C104.078 110.057 104.644 110.07 105.367 110.07C106.091 110.07 106.657 110.057 107.065 110.031L107.026 116.877C107.026 118.324 107.039 120.613 107.065 123.743Z" fill="#EC3538"/>
<path d="M131.38 123.724C130.512 123.697 129.255 123.684 127.61 123.684C125.978 123.684 124.755 123.697 123.939 123.724C123.939 123.198 123.945 122.198 123.958 120.725C123.972 119.252 123.978 118.087 123.978 117.232C123.978 115.194 123.965 112.793 123.939 110.031C125.202 110.057 126.393 110.07 127.511 110.07C128.143 110.07 129.354 110.057 131.143 110.031C131.13 110.254 131.124 110.708 131.124 111.392C131.124 112.063 131.13 112.51 131.143 112.734C129.38 112.708 128.169 112.694 127.511 112.694C127.34 112.694 127.255 112.734 127.255 112.813C127.229 113.142 127.215 113.852 127.215 114.944V115.358C127.215 115.542 127.321 115.634 127.531 115.634H127.867C128.722 115.634 129.755 115.621 130.966 115.595C130.953 115.897 130.946 116.345 130.946 116.937C130.946 117.528 130.953 117.976 130.966 118.278C129.65 118.252 128.617 118.239 127.867 118.239H127.492C127.307 118.239 127.215 118.331 127.215 118.515V118.85C127.215 119.797 127.222 120.429 127.235 120.744C127.235 120.889 127.327 120.962 127.511 120.962C128.327 120.962 129.617 120.948 131.38 120.922C131.354 121.475 131.341 121.948 131.341 122.343C131.341 122.869 131.354 123.329 131.38 123.724Z" fill="#EC3538"/>
<path d="M151.27 123.743C150.889 123.717 150.329 123.704 149.593 123.704C148.908 123.704 148.323 123.717 147.836 123.743C147.862 119.179 147.875 116.825 147.875 116.68C147.875 114.444 147.862 112.228 147.836 110.031C148.704 110.057 149.283 110.07 149.573 110.07C149.941 110.07 150.507 110.057 151.27 110.031C151.244 111.846 151.231 114.056 151.231 116.66C151.231 119.344 151.244 121.705 151.27 123.743Z" fill="#EC3538"/>
<path d="M178.353 123.743C177.734 123.717 177.063 123.704 176.34 123.704C175.629 123.704 174.958 123.717 174.326 123.743C173.787 122.665 172.991 121.093 171.938 119.028C171.885 118.949 171.813 118.791 171.721 118.554C171.655 118.383 171.615 118.298 171.602 118.298C171.576 118.298 171.563 118.357 171.563 118.475V119.225C171.563 120.08 171.576 121.586 171.602 123.743C171.208 123.717 170.668 123.704 169.984 123.704C169.26 123.704 168.641 123.717 168.128 123.743C168.155 122.165 168.168 119.896 168.168 116.937C168.168 113.951 168.155 111.649 168.128 110.031C168.891 110.057 169.51 110.07 169.984 110.07C170.484 110.07 171.023 110.057 171.602 110.031L171.543 115.417C171.543 115.549 171.556 115.615 171.583 115.615C171.622 115.615 171.661 115.555 171.701 115.437C171.767 115.266 171.833 115.115 171.898 114.983C172.491 113.865 173.3 112.214 174.326 110.031C174.984 110.057 175.576 110.07 176.103 110.07C176.695 110.07 177.294 110.057 177.899 110.031C177.149 111.425 176.122 113.365 174.82 115.851C174.675 116.141 174.603 116.325 174.603 116.404C174.603 116.522 174.662 116.7 174.78 116.937C175.543 118.383 176.734 120.652 178.353 123.743Z" fill="#EC3538"/>
<path d="M203.482 123.743C203.114 123.717 202.614 123.704 201.982 123.704C201.285 123.704 200.653 123.717 200.087 123.743C200.087 123.428 200.094 122.652 200.107 121.415C200.107 120.192 200.107 119.317 200.107 118.791V118.456C200.107 118.311 200.021 118.232 199.85 118.219C199.679 118.206 199.337 118.199 198.824 118.199C198.495 118.199 198.133 118.212 197.738 118.239C197.607 118.252 197.541 118.324 197.541 118.456V118.771C197.541 119.245 197.561 120.902 197.6 123.743C197.166 123.717 196.613 123.704 195.942 123.704C195.258 123.704 194.659 123.717 194.146 123.743C194.146 123.112 194.152 121.968 194.165 120.31C194.179 118.64 194.185 117.384 194.185 116.542C194.185 115.7 194.179 114.569 194.165 113.148C194.152 111.728 194.146 110.689 194.146 110.031C195.014 110.057 195.58 110.07 195.843 110.07C196.225 110.07 196.797 110.057 197.561 110.031C197.547 110.938 197.541 112.596 197.541 115.003V115.358C197.541 115.516 197.613 115.601 197.758 115.615C197.982 115.628 198.337 115.634 198.824 115.634C199.561 115.634 199.956 115.615 200.008 115.575C200.074 115.536 200.107 115.47 200.107 115.378V115.003C200.107 114.45 200.107 113.622 200.107 112.517C200.094 111.425 200.087 110.596 200.087 110.031C200.495 110.057 201.061 110.07 201.785 110.07C202.508 110.07 203.074 110.057 203.482 110.031L203.443 116.877C203.443 118.324 203.456 120.613 203.482 123.743Z" fill="#EC3538"/>
</svg>
