<svg width="625" height="309" viewBox="0 0 625 309" fill="none" xmlns="http://www.w3.org/2000/svg">
<path d="M364.139 183.479V179.162H368.047V183.479H364.139ZM353.421 192.709C351.263 192.709 349.328 192.312 347.616 191.518C345.928 190.749 344.601 189.669 343.633 188.28C342.666 186.891 342.182 185.315 342.182 183.554C342.182 183.057 342.219 182.4 342.294 181.581C342.368 180.762 342.467 179.844 342.591 178.827C342.74 177.81 342.889 176.78 343.038 175.738C343.212 174.671 343.373 173.642 343.522 172.649L348.434 173.319C348.161 174.982 347.926 176.507 347.727 177.897C347.554 179.261 347.417 180.427 347.318 181.395C347.219 182.363 347.169 183.07 347.169 183.516C347.169 184.509 347.417 185.365 347.913 186.084C348.41 186.804 349.117 187.362 350.035 187.759C350.977 188.181 352.106 188.392 353.421 188.392C354.786 188.392 355.89 188.193 356.733 187.796C357.577 187.399 358.185 186.853 358.557 186.159C358.954 185.464 359.152 184.682 359.152 183.814V157.168H364.139V183.814C364.139 185.6 363.668 187.163 362.725 188.503C361.807 189.843 360.542 190.873 358.929 191.592C357.316 192.336 355.481 192.709 353.421 192.709ZM368.047 183.479V179.162C368.345 179.162 368.543 179.361 368.643 179.758C368.742 180.13 368.791 180.651 368.791 181.321C368.791 181.966 368.742 182.487 368.643 182.884C368.543 183.281 368.345 183.479 368.047 183.479Z" fill="white"/>
<path d="M396.977 183.479V179.162H400.884V183.479H396.977ZM368.06 183.479V179.162H396.195L391.99 182.809V174.994C391.99 173.58 391.804 172.451 391.432 171.607C391.06 170.739 390.514 170.106 389.794 169.709C389.099 169.312 388.256 169.114 387.263 169.114C386.197 169.114 385.179 169.325 384.212 169.746C383.269 170.168 382.388 170.714 381.569 171.384C380.751 172.054 379.994 172.773 379.299 173.542C378.605 174.312 377.984 175.056 377.439 175.775C376.893 176.47 376.421 177.066 376.024 177.562L374.908 173.952C375.875 172.786 376.744 171.719 377.513 170.751C378.282 169.784 379.014 168.928 379.709 168.183C380.428 167.439 381.173 166.819 381.942 166.323C382.736 165.826 383.592 165.454 384.51 165.206C385.452 164.933 386.544 164.797 387.785 164.797C389.447 164.797 390.861 165.082 392.027 165.653C393.193 166.199 394.136 166.955 394.856 167.923C395.6 168.891 396.133 169.982 396.456 171.198C396.803 172.414 396.977 173.679 396.977 174.994V183.479H368.06ZM372.749 179.162V164.797H377.736V179.162H372.749ZM368.06 183.479C367.762 183.479 367.564 183.281 367.465 182.884C367.365 182.487 367.316 181.966 367.316 181.321C367.316 180.651 367.365 180.13 367.465 179.758C367.564 179.361 367.762 179.162 368.06 179.162V183.479ZM400.884 183.479V179.162C401.182 179.162 401.381 179.361 401.48 179.758C401.579 180.13 401.629 180.651 401.629 181.321C401.629 181.966 401.579 182.487 401.48 182.884C401.381 183.281 401.182 183.479 400.884 183.479ZM382.798 161.41V157.168H387.785V161.41H382.798Z" fill="white"/>
<path d="M400.878 183.479V179.162H418.258L416.732 180.465V168.035L417.998 169.114H413.308C412.217 169.114 411.361 169.25 410.741 169.523C410.12 169.796 409.686 170.305 409.438 171.049C409.19 171.769 409.066 172.798 409.066 174.138C409.066 175.602 409.19 176.693 409.438 177.413C409.686 178.108 410.12 178.579 410.741 178.827C411.361 179.05 412.217 179.162 413.308 179.162V183.033C411.2 183.033 409.463 182.735 408.098 182.139C406.734 181.544 405.716 180.601 405.047 179.311C404.401 177.996 404.079 176.272 404.079 174.138C404.079 172.103 404.401 170.392 405.047 169.002C405.716 167.613 406.734 166.571 408.098 165.876C409.463 165.157 411.2 164.797 413.308 164.797H421.719V183.479H400.878ZM400.878 183.479C400.581 183.479 400.382 183.281 400.283 182.884C400.184 182.487 400.134 181.966 400.134 181.321C400.134 180.651 400.184 180.13 400.283 179.758C400.382 179.361 400.581 179.162 400.878 179.162V183.479ZM411.336 161.373V157.13H416.323V161.373H411.336Z" fill="white"/>
<path d="M425.809 183.479V179.162H444.714L442.332 181.618V157.168H447.319V183.479H425.809ZM430.982 179.162V162.378H435.931V179.162H430.982ZM431.242 159.289C430.771 158.718 430.411 158.172 430.163 157.651C429.915 157.13 429.791 156.572 429.791 155.977C429.791 155.133 430.014 154.376 430.461 153.706C430.907 153.012 431.49 152.478 432.21 152.106C432.929 151.709 433.723 151.511 434.592 151.511C435.063 151.511 435.547 151.573 436.043 151.697C436.539 151.821 436.961 152.007 437.308 152.255L436.043 154.525C435.82 154.401 435.596 154.327 435.373 154.302C435.175 154.252 434.964 154.227 434.74 154.227C434.145 154.227 433.686 154.389 433.363 154.711C433.041 155.009 432.88 155.418 432.88 155.939C432.88 156.237 432.942 156.522 433.066 156.795C433.19 157.068 433.376 157.366 433.624 157.689L431.242 159.289ZM428.972 159.587V156.87H437.978V159.587H428.972Z" fill="white"/>
<path d="M453.401 183.479V157.168H458.35V183.479H453.401Z" fill="white"/>
<path d="M501.158 183.479V179.162H505.103V183.479H501.158ZM482.103 193.379C480.069 193.379 478.233 192.994 476.595 192.225C474.958 191.481 473.668 190.438 472.725 189.099C471.782 187.784 471.311 186.283 471.311 184.596C471.311 184.075 471.348 183.392 471.422 182.549C471.522 181.705 471.633 180.775 471.757 179.758C471.906 178.74 472.055 177.686 472.204 176.594C472.378 175.503 472.539 174.473 472.688 173.505L477.6 174.212C477.352 175.85 477.129 177.351 476.93 178.715C476.732 180.08 476.571 181.246 476.446 182.214C476.347 183.181 476.298 183.926 476.298 184.447C476.298 185.439 476.521 186.27 476.968 186.94C477.439 187.635 478.109 188.156 478.977 188.503C479.846 188.875 480.888 189.061 482.103 189.061H490.812C492.623 189.061 493.975 188.689 494.868 187.945C495.761 187.226 496.208 186.183 496.208 184.819V168.035L497.436 169.114H492.747C491.655 169.114 490.799 169.25 490.179 169.523C489.559 169.796 489.125 170.305 488.877 171.049C488.628 171.769 488.504 172.798 488.504 174.138C488.504 175.602 488.628 176.693 488.877 177.413C489.125 178.108 489.559 178.579 490.179 178.827C490.799 179.05 491.655 179.162 492.747 179.162H496.208V183.479H492.747C490.638 183.479 488.901 183.157 487.537 182.512C486.172 181.842 485.155 180.812 484.485 179.423C483.84 178.033 483.517 176.272 483.517 174.138C483.517 172.103 483.84 170.392 484.485 169.002C485.155 167.613 486.172 166.571 487.537 165.876C488.901 165.157 490.638 164.797 492.747 164.797H501.158V184.819C501.158 186.58 500.699 188.094 499.781 189.359C498.888 190.649 497.659 191.642 496.096 192.336C494.558 193.031 492.797 193.379 490.812 193.379H482.103ZM505.103 183.479V179.162C505.4 179.162 505.599 179.361 505.698 179.758C505.797 180.13 505.847 180.651 505.847 181.321C505.847 181.966 505.797 182.487 505.698 182.884C505.599 183.281 505.4 183.479 505.103 183.479ZM487.983 162.564V158.321H492.97V162.564H487.983ZM493.082 162.564V158.321H498.069V162.564H493.082Z" fill="white"/>
<path d="M524.389 183.479V179.162H528.334V183.479H524.389ZM505.112 183.479V179.162H521.114L519.44 180.539V173.654C519.44 172.166 518.968 171.037 518.026 170.268C517.108 169.498 515.644 169.114 513.634 169.114C513.063 169.114 512.282 169.163 511.289 169.263C510.297 169.337 509.218 169.461 508.052 169.635L507.568 165.69C508.635 165.442 509.714 165.231 510.806 165.057C511.922 164.884 513.014 164.797 514.081 164.797C516.115 164.797 517.901 165.157 519.44 165.876C520.978 166.571 522.181 167.576 523.05 168.891C523.943 170.205 524.389 171.793 524.389 173.654V183.479H505.112ZM505.112 183.479C504.814 183.479 504.615 183.281 504.516 182.884C504.417 182.487 504.367 181.966 504.367 181.321C504.367 180.651 504.417 180.13 504.516 179.758C504.615 179.361 504.814 179.162 505.112 179.162V183.479ZM528.334 183.479V179.162C528.607 179.162 528.793 179.361 528.893 179.758C529.017 180.13 529.079 180.651 529.079 181.321C529.079 181.966 529.017 182.487 528.893 182.884C528.793 183.281 528.607 183.479 528.334 183.479Z" fill="white"/>
<path d="M539.202 183.479V179.162H543.854V183.479H539.202ZM543.854 183.479V179.162C544.152 179.162 544.35 179.361 544.45 179.758C544.549 180.13 544.598 180.651 544.598 181.321C544.598 181.966 544.549 182.487 544.45 182.884C544.35 183.281 544.152 183.479 543.854 183.479ZM528.334 183.479V179.162H537.155L534.253 181.581V164.797H539.202V183.479H528.334ZM528.334 183.479C528.037 183.479 527.839 183.281 527.74 182.884C527.64 182.487 527.591 181.966 527.591 181.321C527.591 180.651 527.64 180.13 527.74 179.758C527.839 179.361 528.037 179.162 528.334 179.162V183.479ZM529.824 162.564V158.321H534.811V162.564H529.824ZM534.922 162.564V158.321H539.909V162.564H534.922Z" fill="white"/>
<path d="M575.078 183.479V179.162H579.023V183.479H575.078ZM565.737 183.479C564.72 183.479 563.702 183.293 562.685 182.921C561.693 182.524 560.775 181.941 559.931 181.172L562.983 178.008C563.479 178.405 563.938 178.703 564.36 178.902C564.806 179.075 565.265 179.162 565.737 179.162H572.696L570.128 181.507V173.245C570.128 172.848 570.079 172.252 569.979 171.458C569.905 170.64 569.781 169.722 569.607 168.704C569.458 167.662 569.272 166.608 569.049 165.541L573.961 164.797C574.135 165.69 574.296 166.695 574.445 167.811C574.619 168.903 574.768 169.945 574.892 170.937C575.016 171.905 575.078 172.674 575.078 173.245V183.479H565.737ZM543.854 183.479V179.162H549.287L548.171 180.316V168.593H553.158V183.479H543.854ZM553.158 183.479V179.162H556.172C556.966 179.162 557.574 179.05 557.996 178.827C558.418 178.579 558.703 178.095 558.852 177.376C559.026 176.631 559.112 175.527 559.112 174.064V166.732H564.099V174.064C564.099 176.272 563.814 178.07 563.243 179.46C562.697 180.849 561.842 181.866 560.675 182.512C559.509 183.157 558.008 183.479 556.172 183.479H553.158ZM543.854 183.479C543.556 183.479 543.358 183.281 543.258 182.884C543.159 182.487 543.11 181.966 543.11 181.321C543.11 180.651 543.159 180.13 543.258 179.758C543.358 179.361 543.556 179.162 543.854 179.162V183.479ZM579.023 183.479V179.162C579.321 179.162 579.519 179.361 579.618 179.758C579.718 180.13 579.767 180.651 579.767 181.321C579.767 181.966 579.718 182.487 579.618 182.884C579.519 183.281 579.321 183.479 579.023 183.479Z" fill="white"/>
<path d="M579.034 183.479V179.162H585.845L582.942 181.581V164.797H587.929V183.479H579.034ZM579.034 183.479C578.737 183.479 578.538 183.281 578.439 182.884C578.34 182.487 578.29 181.966 578.29 181.321C578.29 180.651 578.34 180.13 578.439 179.758C578.538 179.361 578.737 179.162 579.034 179.162V183.479ZM582.942 161.373V157.13H587.929V161.373H582.942Z" fill="white"/>
<path d="M308.035 227.153V206.5H313.478L320.1 221.014H320.644V206.5H324.817V227.153H319.435L312.752 212.396H312.208V227.153H308.035Z" fill="white"/>
<path d="M336.751 227.485C334.553 227.485 332.81 227.102 331.52 226.336C330.25 225.55 329.332 224.371 328.768 222.798C328.224 221.226 327.952 219.26 327.952 216.902C327.952 214.523 328.224 212.538 328.768 210.945C329.332 209.353 330.25 208.153 331.52 207.347C332.81 206.54 334.553 206.137 336.751 206.137C338.948 206.137 340.682 206.54 341.952 207.347C343.242 208.153 344.159 209.353 344.703 210.945C345.268 212.538 345.55 214.523 345.55 216.902C345.55 219.301 345.268 221.286 344.703 222.859C344.159 224.431 343.242 225.6 341.952 226.366C340.682 227.112 338.948 227.485 336.751 227.485ZM336.751 223.978C338.021 223.978 338.978 223.726 339.623 223.222C340.289 222.697 340.732 221.911 340.954 220.863C341.176 219.795 341.286 218.474 341.286 216.902C341.286 215.33 341.165 214.009 340.924 212.941C340.702 211.852 340.268 211.036 339.623 210.491C338.978 209.927 338.021 209.645 336.751 209.645C335.501 209.645 334.543 209.927 333.878 210.491C333.233 211.036 332.79 211.852 332.548 212.941C332.306 214.009 332.185 215.33 332.185 216.902C332.185 218.454 332.296 219.754 332.517 220.803C332.759 221.851 333.203 222.647 333.848 223.191C334.513 223.715 335.481 223.978 336.751 223.978Z" fill="white"/>
<path d="M356.468 227.485C354.774 227.485 353.333 227.263 352.144 226.82C350.975 226.376 350.088 225.641 349.483 224.613C348.878 223.564 348.576 222.173 348.576 220.44V206.5H352.748V220.591C352.748 221.78 353.061 222.637 353.686 223.161C354.331 223.685 355.258 223.947 356.468 223.947C357.738 223.947 358.695 223.685 359.34 223.161C359.985 222.637 360.308 221.78 360.308 220.591V206.5H364.481V220.379C364.481 222.113 364.168 223.504 363.543 224.552C362.939 225.6 362.042 226.356 360.852 226.82C359.683 227.263 358.222 227.485 356.468 227.485Z" fill="white"/>
<path d="M374.809 227.485C374.043 227.485 373.207 227.435 372.3 227.334C371.392 227.253 370.505 227.153 369.639 227.032C368.792 226.89 368.066 226.77 367.462 226.669L367.734 223.373C368.359 223.453 369.084 223.544 369.911 223.645C370.737 223.726 371.554 223.796 372.36 223.857C373.187 223.917 373.902 223.947 374.507 223.947C375.656 223.947 376.493 223.726 377.017 223.282C377.541 222.818 377.803 222.103 377.803 221.135C377.803 220.611 377.692 220.198 377.47 219.895C377.269 219.573 376.896 219.321 376.351 219.139C375.807 218.938 375.051 218.746 374.084 218.565C372.471 218.263 371.161 217.89 370.153 217.446C369.165 217.003 368.439 216.378 367.976 215.571C367.532 214.765 367.31 213.687 367.31 212.336C367.31 210.764 367.603 209.534 368.187 208.647C368.772 207.74 369.608 207.095 370.697 206.712C371.786 206.329 373.066 206.137 374.537 206.137C375.202 206.137 375.958 206.178 376.805 206.258C377.672 206.319 378.518 206.399 379.345 206.5C380.192 206.601 380.907 206.712 381.492 206.833L381.31 210.159C380.706 210.078 380 210.008 379.194 209.947C378.408 209.867 377.621 209.796 376.835 209.736C376.069 209.675 375.414 209.645 374.87 209.645C373.721 209.645 372.874 209.826 372.33 210.189C371.786 210.552 371.513 211.137 371.513 211.943C371.513 212.548 371.634 213.011 371.876 213.334C372.118 213.656 372.521 213.918 373.086 214.12C373.67 214.322 374.467 214.533 375.475 214.755C376.664 215.017 377.672 215.299 378.498 215.602C379.345 215.904 380.02 216.267 380.524 216.69C381.048 217.114 381.431 217.658 381.673 218.323C381.915 218.988 382.036 219.825 382.036 220.833C382.036 222.446 381.744 223.746 381.159 224.734C380.595 225.701 379.768 226.407 378.68 226.85C377.611 227.273 376.321 227.485 374.809 227.485Z" fill="white"/>
<path d="M391.514 227.153V206.5H398.227L402.399 220.289L406.482 206.5H413.285V227.153H409.112V211.852H408.689L404.365 226.608H400.434L396.11 211.852H395.687V227.153H391.514Z" fill="white"/>
<path d="M417.086 227.153V206.5H430.814V209.977H421.259V214.997H429V218.414H421.259V223.675H430.814V227.153H417.086ZM422.559 204.414L420.17 203.355L424.736 199.938L427.972 201.239L422.559 204.414Z" fill="white"/>
<path d="M433.741 227.153V206.5H441.814C443.467 206.5 444.848 206.712 445.957 207.135C447.085 207.558 447.922 208.264 448.466 209.252C449.031 210.239 449.313 211.58 449.313 213.273C449.313 214.765 449.041 216.025 448.497 217.053C447.972 218.061 447.166 218.807 446.078 219.291L449.313 227.153H444.929L442.207 220.228H437.913V227.153H433.741ZM437.913 216.811H441.905C442.671 216.811 443.286 216.67 443.749 216.388C444.213 216.085 444.545 215.672 444.747 215.148C444.949 214.604 445.049 213.989 445.049 213.304C445.049 212.175 444.787 211.328 444.263 210.764C443.739 210.199 442.923 209.917 441.814 209.917H437.913V216.811Z" fill="white"/>
<path d="M452.373 227.153V206.5H456.546V227.153H452.373Z" fill="white"/>
<path d="M464.367 227.153V210.038H458.803V206.5H473.922V210.038H468.54V227.153H464.367Z" fill="white"/>
<path d="M484.337 227.485C482.14 227.485 480.396 227.102 479.106 226.336C477.836 225.55 476.919 224.371 476.355 222.798C475.81 221.226 475.538 219.26 475.538 216.902C475.538 214.523 475.81 212.538 476.355 210.945C476.919 209.353 477.836 208.153 479.106 207.347C480.396 206.54 482.14 206.137 484.337 206.137C486.535 206.137 488.268 206.54 489.538 207.347C490.828 208.153 491.746 209.353 492.29 210.945C492.854 212.538 493.137 214.523 493.137 216.902C493.137 219.301 492.854 221.286 492.29 222.859C491.746 224.431 490.828 225.6 489.538 226.366C488.268 227.112 486.535 227.485 484.337 227.485ZM484.337 223.978C485.607 223.978 486.565 223.726 487.21 223.222C487.875 222.697 488.319 221.911 488.54 220.863C488.762 219.795 488.873 218.474 488.873 216.902C488.873 215.33 488.752 214.009 488.51 212.941C488.288 211.852 487.855 211.036 487.21 210.491C486.565 209.927 485.607 209.645 484.337 209.645C483.088 209.645 482.13 209.927 481.465 210.491C480.82 211.036 480.376 211.852 480.134 212.941C479.892 214.009 479.771 215.33 479.771 216.902C479.771 218.454 479.882 219.754 480.104 220.803C480.346 221.851 480.789 222.647 481.435 223.191C482.1 223.715 483.067 223.978 484.337 223.978Z" fill="white"/>
<path d="M496.283 227.153V206.5H501.726L508.348 221.014H508.892V206.5H513.065V227.153H507.683L501 212.396H500.456V227.153H496.283Z" fill="white"/>
<path d="M523.548 227.485C522.782 227.485 521.945 227.435 521.038 227.334C520.131 227.253 519.244 227.153 518.377 227.032C517.53 226.89 516.805 226.77 516.2 226.669L516.472 223.373C517.097 223.453 517.823 223.544 518.649 223.645C519.476 223.726 520.292 223.796 521.098 223.857C521.925 223.917 522.64 223.947 523.245 223.947C524.394 223.947 525.231 223.726 525.755 223.282C526.279 222.818 526.541 222.103 526.541 221.135C526.541 220.611 526.43 220.198 526.209 219.895C526.007 219.573 525.634 219.321 525.09 219.139C524.545 218.938 523.789 218.746 522.822 218.565C521.209 218.263 519.899 217.89 518.891 217.446C517.903 217.003 517.177 216.378 516.714 215.571C516.27 214.765 516.049 213.687 516.049 212.336C516.049 210.764 516.341 209.534 516.926 208.647C517.51 207.74 518.347 207.095 519.435 206.712C520.524 206.329 521.804 206.137 523.275 206.137C523.941 206.137 524.697 206.178 525.543 206.258C526.41 206.319 527.257 206.399 528.083 206.5C528.93 206.601 529.646 206.712 530.23 206.833L530.049 210.159C529.444 210.078 528.738 210.008 527.932 209.947C527.146 209.867 526.36 209.796 525.574 209.736C524.808 209.675 524.152 209.645 523.608 209.645C522.459 209.645 521.612 209.826 521.068 210.189C520.524 210.552 520.252 211.137 520.252 211.943C520.252 212.548 520.373 213.011 520.615 213.334C520.856 213.656 521.26 213.918 521.824 214.12C522.409 214.322 523.205 214.533 524.213 214.755C525.402 215.017 526.41 215.299 527.237 215.602C528.083 215.904 528.759 216.267 529.263 216.69C529.787 217.114 530.17 217.658 530.412 218.323C530.653 218.988 530.774 219.825 530.774 220.833C530.774 222.446 530.482 223.746 529.898 224.734C529.333 225.701 528.507 226.407 527.418 226.85C526.35 227.273 525.059 227.485 523.548 227.485Z" fill="white"/>
<path d="M540.252 227.153V206.5H546.965L551.138 220.289L555.22 206.5H562.023V227.153H557.851V211.852H557.427L553.103 226.608H549.172L544.848 211.852H544.425V227.153H540.252Z" fill="white"/>
<path d="M565.824 227.153V206.5H569.997V227.153H565.824Z" fill="white"/>
<path d="M573.827 227.153V206.5H587.555V209.977H578V214.997H585.74V218.414H578V223.675H587.555V227.153H573.827Z" fill="white"/>
<path d="M598.252 227.485C596.559 227.485 595.118 227.263 593.928 226.82C592.759 226.376 591.872 225.641 591.267 224.613C590.663 223.564 590.36 222.173 590.36 220.44V206.5H594.533V220.591C594.533 221.78 594.845 222.637 595.47 223.161C596.115 223.685 597.043 223.947 598.252 223.947C599.522 223.947 600.48 223.685 601.125 223.161C601.77 222.637 602.092 221.78 602.092 220.591V206.5H606.265V220.379C606.265 222.113 605.953 223.504 605.328 224.552C604.723 225.6 603.826 226.356 602.637 226.82C601.468 227.263 600.006 227.485 598.252 227.485Z" fill="white"/>
<path d="M608.248 227.153L613.872 217.114L608.248 206.5H612.663L616.594 214.09L620.736 206.5H625L619.346 216.72L624.879 227.153H620.434L616.564 219.774L612.572 227.153H608.248Z" fill="white"/>
<path d="M128.168 148.637C106.494 139.817 72.6327 171.137 72.6327 171.137C73.2578 176.452 74.4875 181.582 76.2511 186.456C81.1321 195.189 105.633 188.598 129.061 182.297C145.947 177.754 162.275 173.362 170.295 174.967C189.444 178.796 205.936 186.456 205.936 186.456C208.585 179.134 210.029 171.235 210.029 162.999C199.976 171.137 153.317 158.871 128.168 148.637Z" fill="url(#paint0_linear_171_1687)"/>
<path fill-rule="evenodd" clip-rule="evenodd" d="M141.093 94.0625C179.166 94.0625 210.029 124.926 210.029 162.999C199.976 171.137 153.317 158.871 128.168 148.637C106.494 139.817 72.6327 171.137 72.6327 171.137C72.3188 168.468 72.1573 165.752 72.1573 162.999C72.1573 124.926 103.021 94.0625 141.093 94.0625Z" fill="url(#paint1_linear_171_1687)"/>
<path d="M76.2511 186.456C85.8484 212.98 111.257 231.935 141.093 231.935C170.929 231.935 196.338 212.98 205.936 186.456C205.936 186.456 189.444 178.796 170.295 174.967C162.275 173.362 145.947 177.754 129.061 182.297C105.633 188.598 81.1321 195.189 76.2511 186.456Z" fill="url(#paint2_linear_171_1687)"/>
<path d="M182.648 118.373C183.136 118.645 183.728 118.715 184.189 119.071C183.31 118.966 182.431 118.848 181.553 118.771C176.971 118.366 173.157 119.956 169.956 123.192C169.614 123.541 169.391 123.534 169.133 123.136C168.931 122.822 168.68 122.536 168.457 122.237C165.207 118.067 160.891 116.309 155.64 116.588C156.428 116.226 158.081 115.968 159.58 116.002C163.352 116.072 166.609 117.411 169.356 119.998C169.698 120.319 169.893 120.319 170.277 120.075C173.966 117.725 177.934 117.104 182.173 118.269C182.334 118.297 182.487 118.332 182.648 118.373ZM184.217 119.071H184.189L184.21 119.078L184.217 119.071ZM163.534 128.303C160.333 128.08 157.599 129.098 155.298 131.309C155.061 131.546 154.922 131.581 154.636 131.393C152.3 129.942 149.789 129.461 147.07 129.942C145.989 130.13 144.845 130.549 144.329 130.925C148.046 129.97 151.372 130.605 154.301 133.115C154.503 133.303 154.72 133.471 154.915 133.666C155.159 133.91 155.319 133.875 155.514 133.575C157.328 130.821 159.831 129.119 163.164 128.75C163.806 128.68 164.447 128.645 165.089 128.589C164.698 128.401 164.273 128.443 163.889 128.317C163.757 128.317 163.652 128.317 163.534 128.303ZM178.645 137.738C176.923 137.431 175.367 137.801 173.98 138.875C173.826 138.979 173.764 138.993 173.617 138.875C172.481 137.954 171.044 137.508 169.594 137.62C168.994 137.668 168.352 137.829 168.052 137.996C170.124 137.696 171.902 138.254 173.338 139.795C173.436 139.9 173.54 140.012 173.638 140.123C173.757 140.277 173.84 140.263 173.966 140.116C175.123 138.721 176.588 137.954 178.422 137.954C178.77 137.954 179.126 137.975 179.475 137.975C179.286 137.85 179.049 137.85 178.833 137.752C178.763 137.759 178.708 137.752 178.645 137.738Z" fill="black"/>
<mask id="mask0_171_1687" style="mask-type:luminance" maskUnits="userSpaceOnUse" x="106" y="128" width="32" height="24">
<path d="M106.948 128.853H137.742V151.614H106.948V128.853Z" fill="white"/>
</mask>
<g mask="url(#mask0_171_1687)">
<path d="M111.355 137.925L111.159 137.451L111.215 135.91C111.222 135.91 111.557 137.081 111.355 137.925ZM137.923 130.959C137.888 130.456 137.393 130.045 137.393 130.045C136.723 129.557 135.587 129.696 135.587 129.696C134.764 129.801 134.06 129.355 134.06 129.355C133.3 128.867 132.512 129.417 132.512 129.417C131.71 129.145 131.549 129.71 131.549 129.71L131.626 129.899C131.48 129.947 131.431 130.275 131.431 130.275C131.445 130.533 131.263 130.938 131.263 130.938C130.957 131.454 130.503 133.26 130.503 133.26C130.217 134.529 129.039 134.557 129.039 134.557C127.756 134.529 127.072 132.939 127.072 132.939C126.291 131.293 123.293 130.533 123.293 130.533C122.54 130.408 121.891 129.968 121.891 129.968C120.664 128.971 119.22 129.145 119.22 129.145C117.624 129.208 116.278 131.154 116.278 131.154C115.908 131.293 113.607 131.935 113.607 131.935C112.979 132.032 112.596 132.772 112.596 132.772C112.477 133.183 112.108 133.434 112.108 133.434C109.458 134.857 110.525 137.255 110.525 137.255C111.055 138.462 110.741 139.675 110.741 139.675C110.601 139.982 110.525 140.47 110.525 140.47C110.155 141.384 108.712 142.674 108.712 142.674C107.993 143.183 108.168 144.138 108.168 144.138C108.286 144.835 108.231 146.704 108.231 146.704C108.091 148.406 107.366 148.971 107.366 148.971C107.254 149.061 107.198 149.145 107.171 149.215C107.164 149.257 107.164 149.305 107.157 149.361C107.157 149.382 107.15 149.41 107.15 149.438C107.108 150.254 107.603 150.839 107.603 150.839C108.147 151.446 108.244 150.254 108.244 150.254C108.286 149.556 108.816 149.222 108.816 149.222C109.088 149.005 108.886 148.329 108.886 148.329C108.949 147.102 109.179 145.986 109.179 145.986C109.493 144.389 110.392 143.531 110.392 143.531C110.664 143.301 111.954 141.99 111.954 141.99C111.961 142.904 111.592 144.34 111.592 144.34C111.327 145.059 111.599 145.498 111.599 145.498C111.724 145.721 111.871 146.251 112.219 146.9C112.575 147.555 113.182 149.905 113.182 149.905C113.14 150.344 113.44 150.895 113.44 150.895C113.356 151.425 114.374 151.432 114.374 151.432C115.525 151.551 115.469 151.104 115.469 151.104C115.476 150.923 114.855 150.86 114.855 150.86C114.493 150.7 114.318 150.323 114.318 150.323C114.318 150.051 113.956 149.591 113.956 149.591C113.614 148.929 113.335 147.206 113.335 147.206C113.307 147.025 113.265 146.551 113.265 146.551C113.272 146.314 113.237 144.612 113.237 144.612C113.216 144.48 113.356 143.831 113.356 143.831C113.454 143.483 113.53 142.29 113.53 142.29C113.516 142.186 113.649 141.942 113.649 141.942C113.956 141.788 114.632 140.519 114.632 140.519C115.071 140.087 114.995 139.808 114.995 139.808L114.981 139.166C116.062 138.141 117.386 139.145 117.386 139.145C118.098 139.703 120.504 139.836 120.504 139.836C120.971 139.836 121.417 140.142 121.417 140.142C121.215 140.345 120.678 141.788 120.678 141.788C120.371 142.876 119.513 144.563 119.513 144.563C119.193 144.898 119.248 145.491 119.248 145.491C119.213 146.725 118.063 149.047 118.063 149.047C117.84 149.277 117.854 149.745 117.854 149.745C117.847 150.038 117.526 150.581 117.526 150.581C116.773 151.362 118.516 151.251 118.516 151.251C119.688 151.279 119.437 150.916 119.437 150.916C119.325 150.644 118.893 150.491 118.893 150.491L118.879 150.268C118.997 150.031 119.172 149.089 119.172 149.089C119.492 147.206 120.406 146.139 120.406 146.139C121.082 145.805 120.922 145.135 120.922 145.135C121.187 143.873 122.609 142.06 122.609 142.06C122.93 141.677 123.509 140.637 123.509 140.637C123.662 140.108 124.541 139.801 124.541 139.801C124.82 139.982 125.05 140.735 125.05 140.735C125.259 141.621 125.992 144.389 125.992 144.389C126.138 146.286 126.905 146.9 126.905 146.9C127.163 147.534 128.042 150.742 128.042 150.742C127.581 151.495 129.102 151.251 129.102 151.251C130.754 151.495 130.482 151.056 130.482 151.056C130.155 150.393 129.13 150.031 129.13 150.031C128.167 148.706 127.881 146.767 127.881 146.767C128.181 145.003 127.581 144.961 127.581 144.961C127.093 143.845 127.024 139.766 127.024 139.766C127.017 139.487 127.177 139.236 127.177 139.236C127.303 139.194 127.846 138.532 127.846 138.532C128.056 138.608 128.823 138.504 128.823 138.504C128.739 138.999 130.113 138.629 130.113 138.629C134.004 136.914 134.255 133.302 134.255 133.302C134.499 133.288 135.329 132.597 135.329 132.597C135.531 132.318 136.005 131.886 136.005 131.886C136.319 131.893 136.654 131.649 136.654 131.649C137.888 131.963 137.686 131.405 137.686 131.405C138.055 131.398 137.923 130.959 137.923 130.959Z" fill="url(#paint3_linear_171_1687)"/>
</g>
<path d="M66.6094 165.562C66.6094 122.676 101.378 87.9075 144.271 87.9075C163.88 87.9075 181.787 95.1807 195.455 107.168C180.588 84.121 154.682 68.8564 125.22 68.8564C79.0916 68.8564 41.7007 106.254 41.7007 152.376C41.7007 192.451 69.9287 225.93 107.585 234.026C83.1919 220.93 66.6094 195.185 66.6094 165.562Z" fill="white"/>
<path fill-rule="evenodd" clip-rule="evenodd" d="M176.493 20.5361C176.037 18.4136 176.152 16.6832 177.789 16.7204C179.871 17.6411 182.309 18.5978 185.021 19.6619C206 27.8947 243.369 42.5591 258.969 96.7576C272.818 144.875 272.06 197.782 237.88 237.309C201.865 278.949 144.21 286.659 94.6204 262.748C55.2782 243.776 41.1111 209.697 36.1851 169.363C46.6382 194.124 60.3031 220.982 86.393 233.628C135.771 257.569 185.451 243.494 218.122 202.151C228.389 189.155 227.875 170.658 217.087 158.097C209.646 149.416 201.12 139.398 195.976 125.468C186.99 101.106 200.777 91.708 196.094 82.2692C201.684 81.0575 204.252 89.8276 206.97 99.1148C209.953 109.305 213.119 120.119 220.661 119.05C242.612 115.942 225.282 46.2903 184.26 29.6435C180.335 28.0532 177.382 24.6712 176.493 20.5361Z" fill="white"/>
<path d="M184.506 55.1119C205.835 63.8012 220.743 86.8092 227.051 107.325C227.433 100.151 225.631 90.4718 221.897 80.7326C216.899 67.7121 209.489 56.4656 200.777 48.2916C191.737 44.1288 182.122 46.1262 177.97 42.1676C176.295 42.1286 176.216 43.9423 176.708 46.1262C177.639 50.2321 180.612 53.5256 184.506 55.1119Z" fill="white"/>
<defs>
<linearGradient id="paint0_linear_171_1687" x1="141" y1="155.5" x2="141.093" y2="231.935" gradientUnits="userSpaceOnUse">
<stop stop-color="#393939"/>
<stop offset="1" stop-color="#8E8E8E"/>
</linearGradient>
<linearGradient id="paint1_linear_171_1687" x1="156.5" y1="94" x2="141.093" y2="231.935" gradientUnits="userSpaceOnUse">
<stop stop-color="#E2E2E2"/>
<stop offset="1" stop-color="white"/>
</linearGradient>
<linearGradient id="paint2_linear_171_1687" x1="126.732" y1="185.499" x2="141.093" y2="231.935" gradientUnits="userSpaceOnUse">
<stop stop-color="#C3C3C3"/>
<stop offset="1" stop-color="#919191"/>
</linearGradient>
<linearGradient id="paint3_linear_171_1687" x1="122.547" y1="129.134" x2="122.547" y2="151.452" gradientUnits="userSpaceOnUse">
<stop stop-color="#3A3A3A"/>
<stop offset="1" stop-color="#404040"/>
</linearGradient>
</defs>
</svg>
